<svg xmlns="http://www.w3.org/2000/svg" xmlns:xlink="http://www.w3.org/1999/xlink" width="500" zoomAndPan="magnify" viewBox="0 0 375 374.999991" height="500" preserveAspectRatio="xMidYMid meet" version="1.0"><defs><g/><clipPath id="3de317cabc"><path d="M 97.5 141.742188 L 277.679688 141.742188 L 277.679688 233.257812 L 97.5 233.257812 Z M 97.5 141.742188 " clip-rule="nonzero"/></clipPath><clipPath id="3f3ba069f2"><path d="M 113.25 141.742188 L 261.75 141.742188 C 270.449219 141.742188 277.5 148.792969 277.5 157.492188 L 277.5 217.507812 C 277.5 221.6875 275.839844 225.691406 272.886719 228.644531 C 269.933594 231.601562 265.925781 233.257812 261.75 233.257812 L 113.25 233.257812 C 104.550781 233.257812 97.5 226.207031 97.5 217.507812 L 97.5 157.492188 C 97.5 148.792969 104.550781 141.742188 113.25 141.742188 Z M 113.25 141.742188 " clip-rule="nonzero"/></clipPath></defs><g clip-path="url(#3de317cabc)"><g clip-path="url(#3f3ba069f2)"><path fill="#f4d548" d="M 97.5 141.742188 L 277.679688 141.742188 L 277.679688 233.257812 L 97.5 233.257812 Z M 97.5 141.742188 " fill-opacity="1" fill-rule="nonzero"/></g></g><g fill="#269577" fill-opacity="1"><g transform="translate(132.099073, 204.04502)"><g><path d="M 1.265625 -0.3125 L -6.046875 -29.5 L 2.03125 -31.53125 C 3.195312 -31.820312 4.28125 -31.664062 5.28125 -31.0625 C 6.289062 -30.46875 6.945312 -29.582031 7.25 -28.40625 L 10.375 -15.9375 C 10.488281 -15.195312 10.410156 -14.484375 10.140625 -13.796875 C 9.878906 -13.109375 9.460938 -12.550781 8.890625 -12.125 C 9.609375 -11.96875 10.242188 -11.65625 10.796875 -11.1875 C 11.347656 -10.726562 11.75 -10.144531 12 -9.4375 L 13.515625 -3.390625 L 8.265625 -2.078125 L 6.546875 -8.953125 L 4.78125 -8.5 L 6.5 -1.625 Z M 3.671875 -12.9375 L 4.546875 -13.15625 C 4.804688 -13.21875 5 -13.351562 5.125 -13.5625 C 5.25 -13.78125 5.28125 -14.015625 5.21875 -14.265625 L 2.265625 -26.03125 C 2.203125 -26.269531 2.066406 -26.445312 1.859375 -26.5625 C 1.648438 -26.6875 1.414062 -26.71875 1.15625 -26.65625 L 0.28125 -26.4375 Z M 3.671875 -12.9375 "/></g></g></g><g fill="#269577" fill-opacity="1"><g transform="translate(145.978893, 200.531704)"><g><path d="M 1.28125 -0.21875 L -3.890625 -29.859375 L 4.3125 -31.296875 C 5.5 -31.503906 6.570312 -31.269531 7.53125 -30.59375 C 8.5 -29.925781 9.085938 -28.992188 9.296875 -27.796875 L 11.78125 -13.609375 C 11.976562 -12.429688 11.738281 -11.359375 11.0625 -10.390625 C 10.382812 -9.429688 9.453125 -8.847656 8.265625 -8.640625 L 5.390625 -8.140625 L 6.609375 -1.15625 Z M 4.609375 -12.640625 L 5.5 -12.796875 C 5.75 -12.835938 5.941406 -12.957031 6.078125 -13.15625 C 6.222656 -13.351562 6.273438 -13.582031 6.234375 -13.84375 L 4.140625 -25.78125 C 4.097656 -26.03125 3.972656 -26.222656 3.765625 -26.359375 C 3.566406 -26.503906 3.34375 -26.554688 3.09375 -26.515625 L 2.203125 -26.359375 Z M 4.609375 -12.640625 "/></g></g></g><g fill="#269577" fill-opacity="1"><g transform="translate(160.117713, 198.053696)"><g><path d="M 4.734375 -0.484375 C 3.597656 -0.367188 2.585938 -0.6875 1.703125 -1.4375 C 0.816406 -2.195312 0.316406 -3.164062 0.203125 -4.34375 L -0.09375 -7.125 L 5.296875 -7.6875 L 5.46875 -6.015625 C 5.5 -5.753906 5.609375 -5.546875 5.796875 -5.390625 C 5.984375 -5.234375 6.207031 -5.171875 6.46875 -5.203125 C 6.71875 -5.234375 6.921875 -5.34375 7.078125 -5.53125 C 7.234375 -5.71875 7.296875 -5.941406 7.265625 -6.203125 L 6.9375 -9.40625 C 6.90625 -9.664062 6.796875 -9.875 6.609375 -10.03125 C 6.421875 -10.1875 6.203125 -10.25 5.953125 -10.21875 L 3.921875 -10.015625 C 2.734375 -9.890625 1.679688 -10.195312 0.765625 -10.9375 C -0.148438 -11.675781 -0.664062 -12.640625 -0.78125 -13.828125 L -2.015625 -25.671875 C -2.140625 -26.878906 -1.828125 -27.941406 -1.078125 -28.859375 C -0.335938 -29.773438 0.625 -30.296875 1.8125 -30.421875 L 3.109375 -30.546875 L 3.09375 -30.578125 L 5.828125 -30.859375 C 7.023438 -30.984375 8.078125 -30.675781 8.984375 -29.9375 C 9.898438 -29.207031 10.421875 -28.238281 10.546875 -27.03125 L 11.5 -17.84375 L 6.125 -17.28125 L 5.28125 -25.328125 C 5.257812 -25.578125 5.148438 -25.78125 4.953125 -25.9375 C 4.765625 -26.09375 4.546875 -26.15625 4.296875 -26.125 C 4.035156 -26.09375 3.828125 -25.984375 3.671875 -25.796875 C 3.523438 -25.609375 3.460938 -25.390625 3.484375 -25.140625 L 4.484375 -15.546875 C 4.503906 -15.296875 4.609375 -15.09375 4.796875 -14.9375 C 4.992188 -14.78125 5.222656 -14.71875 5.484375 -14.75 L 7.484375 -14.953125 C 8.679688 -15.078125 9.734375 -14.769531 10.640625 -14.03125 C 11.546875 -13.289062 12.0625 -12.320312 12.1875 -11.125 L 12.765625 -5.65625 C 12.878906 -4.457031 12.566406 -3.398438 11.828125 -2.484375 C 11.097656 -1.566406 10.132812 -1.046875 8.9375 -0.921875 Z M 4.734375 -0.484375 "/></g></g></g><g fill="#269577" fill-opacity="1"><g transform="translate(173.283851, 196.731038)"><g/></g></g><g fill="#269577" fill-opacity="1"><g transform="translate(181.996828, 196.209993)"><g><path d="M 5.59375 0.0625 C 4.382812 0.0507812 3.367188 -0.375 2.546875 -1.21875 C 1.734375 -2.0625 1.332031 -3.082031 1.34375 -4.28125 L 1.59375 -25.78125 C 1.601562 -26.988281 2.023438 -28 2.859375 -28.8125 C 3.703125 -29.632812 4.726562 -30.039062 5.9375 -30.03125 L 9.96875 -29.984375 C 11.175781 -29.972656 12.191406 -29.546875 13.015625 -28.703125 C 13.835938 -27.867188 14.242188 -26.847656 14.234375 -25.640625 L 14.0625 -11.5 L 8.640625 -11.5625 L 8.796875 -24.59375 C 8.796875 -24.84375 8.710938 -25.050781 8.546875 -25.21875 C 8.378906 -25.394531 8.164062 -25.484375 7.90625 -25.484375 C 7.644531 -25.492188 7.425781 -25.410156 7.25 -25.234375 C 7.070312 -25.066406 6.984375 -24.859375 6.984375 -24.609375 L 6.765625 -5.390625 C 6.765625 -5.128906 6.847656 -4.910156 7.015625 -4.734375 C 7.179688 -4.566406 7.394531 -4.476562 7.65625 -4.46875 C 7.914062 -4.46875 8.132812 -4.550781 8.3125 -4.71875 C 8.488281 -4.894531 8.578125 -5.113281 8.578125 -5.375 L 8.59375 -6.265625 L 7.46875 -6.765625 L 7.5 -9.59375 L 14.046875 -9.515625 L 13.9375 0.15625 L 8.515625 0.09375 L 8.53125 -1.0625 C 7.914062 -0.46875 7.222656 -0.0859375 6.453125 0.078125 Z M 5.59375 0.0625 "/></g></g></g><g fill="#269577" fill-opacity="1"><g transform="translate(196.315005, 196.341098)"><g><path d="M 0.640625 0.046875 L 6.328125 -29.65625 L 13.78125 -29.03125 L 14.484375 1.21875 L 9.078125 0.765625 L 9.109375 -3.71875 L 6.765625 -3.921875 L 6.046875 0.515625 Z M 7.46875 -8.4375 L 9.140625 -8.296875 L 9.234375 -19.65625 Z M 7.46875 -8.4375 "/></g></g></g><g fill="#269577" fill-opacity="1"><g transform="translate(210.404901, 197.366978)"><g><path d="M 1.28125 0.21875 L 6.34375 -29.4375 L 13.125 -28.28125 L 12.953125 -14.71875 L 17.28125 -27.5625 L 24.046875 -26.40625 L 18.984375 3.25 L 13.640625 2.328125 L 16.4375 -14.078125 L 11.53125 1.96875 L 8.6875 1.484375 L 9.40625 -15.28125 L 6.609375 1.125 Z M 1.28125 0.21875 "/></g></g></g><g fill="#269577" fill-opacity="1"><g transform="translate(229.650534, 200.761296)"><g><path d="M 1.25 0.328125 L 8.703125 -28.828125 L 19.75 -26.015625 L 18.625 -21.609375 L 12.828125 -23.09375 L 10.515625 -14.0625 L 14.640625 -13 L 13.515625 -8.578125 L 9.390625 -9.640625 L 7.625 -2.765625 L 13.421875 -1.28125 L 12.296875 3.140625 Z M 1.25 0.328125 "/></g></g></g></svg>