<svg xmlns="http://www.w3.org/2000/svg" xmlns:xlink="http://www.w3.org/1999/xlink" width="500" zoomAndPan="magnify" viewBox="0 0 375 374.999991" height="500" preserveAspectRatio="xMidYMid meet" version="1.0"><defs><clipPath id="1b2b55b7eb"><path d="M 79 90 L 296 90 L 296 269.9375 L 79 269.9375 Z M 79 90 " clip-rule="nonzero"/></clipPath></defs><g clip-path="url(#1b2b55b7eb)"><path fill="#5e3528" d="M 118.863281 215.941406 C 113.015625 216.308594 106.699219 215.597656 101.394531 218.613281 C 96.878906 221.074219 94.589844 226.695312 95.933594 231.625 C 97.183594 236.472656 100.371094 240.421875 104.476562 243.207031 C 110.160156 247.09375 117.1875 249.347656 123.898438 250.675781 C 129.597656 251.835938 135.117188 251.664062 140.898438 251.441406 C 145.28125 251.261719 149.644531 250.796875 153.929688 249.835938 C 159.851562 248.515625 166.207031 248.71875 172.160156 249.742188 C 179.644531 251.046875 187.242188 253.371094 194.90625 252.996094 C 202.210938 252.574219 209.261719 249.914062 215.394531 246 C 217.085938 244.894531 218.53125 243.214844 219.910156 241.746094 C 221.871094 242.210938 223.828125 242.675781 225.789062 243.144531 C 224.515625 247.671875 224.335938 252.996094 226.964844 257.097656 C 228.519531 259.71875 231.445312 261.15625 234.089844 262.457031 C 241.308594 265.71875 248.921875 267.996094 256.726562 269.363281 C 260.058594 269.9375 263.304688 269.335938 266.316406 267.851562 C 272.417969 264.875 277.1875 259.636719 281.03125 254.167969 C 289.449219 242.113281 293.953125 227.613281 295.460938 213.085938 C 296.269531 203.609375 295.695312 193.449219 292.007812 184.570312 C 291.519531 183.246094 290.109375 182.683594 288.980469 182.015625 C 282.140625 178.382812 274.558594 175.886719 267.25 173.335938 C 263.421875 172.0625 258.941406 170.273438 254.871094 171.207031 C 252.675781 172.203125 250.757812 173.9375 248.820312 175.355469 C 248.328125 171.988281 248.015625 168.800781 246.589844 165.652344 C 245.128906 162.445312 243.285156 159.285156 241.238281 156.417969 C 236.75 150.296875 231.011719 146.265625 225.707031 140.808594 C 221.179688 136.164062 216.851562 131.539062 213.726562 125.800781 C 208.105469 117.757812 205.203125 108.464844 199.761719 100.339844 C 197.726562 97.050781 195.296875 94.160156 191.777344 92.386719 C 187 89.941406 180.527344 90.128906 176.199219 93.472656 C 172.570312 96.289062 170.449219 100.355469 169.390625 104.75 C 167.515625 112.476562 168.816406 120.605469 171.261719 128.046875 C 172.328125 131.488281 174.050781 134.566406 175.652344 137.773438 C 168.429688 132.554688 161.464844 126.988281 155.015625 120.828125 C 146.679688 113.539062 139.851562 105.851562 130.53125 99.621094 C 126.808594 97.152344 122.203125 96.328125 117.867188 97.492188 C 112.988281 99.082031 109.488281 103.574219 108.929688 108.644531 C 108.152344 115.277344 110.796875 122.015625 114.476562 127.425781 C 118.226562 133.164062 123.011719 137.746094 127.75 142.628906 C 119.140625 138.328125 110.003906 131.71875 100.523438 129.671875 C 95.066406 128.460938 87.941406 129.105469 83.863281 133.335938 C 79.617188 137.949219 79.695312 144.503906 82.160156 149.964844 C 85.117188 156.753906 90.828125 161.0625 96.652344 165.28125 C 106.519531 172.132812 118.375 176.917969 129.246094 181.929688 C 121.15625 180.402344 113.160156 178.246094 105.230469 176.027344 C 100.667969 174.796875 96.5 173.46875 91.679688 173.785156 C 85.027344 174.0625 79.328125 180.277344 79.285156 186.875 C 78.898438 195.046875 84.527344 202.507812 91.273438 206.609375 C 99.324219 211.683594 109.664062 213.992188 118.863281 215.941406 Z M 118.863281 215.941406 " fill-opacity="1" fill-rule="nonzero"/></g><path fill="#ffe3d4" d="M 140.40625 215.488281 C 144.574219 216.28125 148.472656 216.613281 152.460938 218.085938 C 148.75 219.550781 144.5625 219.753906 140.523438 220.382812 C 131.757812 220.4375 122.945312 220.722656 114.199219 221.246094 C 110.886719 221.523438 106.664062 221.746094 104.019531 223.984375 C 102.675781 225.082031 102.324219 226.558594 101.957031 228.167969 C 102.632812 228.824219 103.292969 229.480469 103.957031 230.121094 C 103.292969 229.480469 102.632812 228.824219 101.957031 228.167969 C 102.335938 231.335938 103.617188 234.003906 106.035156 236.113281 C 110.402344 239.941406 116.585938 242.050781 122.140625 243.484375 C 129.8125 245.53125 137.1875 245.148438 145.023438 245.058594 C 152.863281 244.777344 160.714844 243.609375 168.566406 243.609375 C 178.152344 243.640625 188.675781 247.734375 198.007812 245.777344 C 203.0625 244.726562 208.242188 242.730469 212.273438 239.445312 C 216.890625 235.421875 220.175781 229.8125 221.613281 223.878906 C 222.722656 219.484375 222.605469 215.195312 223.074219 210.757812 C 222.933594 210.507812 222.789062 210.261719 222.644531 210.015625 C 222.789062 210.261719 222.933594 210.507812 223.074219 210.757812 C 224.75 213.453125 225.769531 216.183594 226.210938 219.332031 C 226.738281 224.980469 225.78125 230.394531 223.816406 235.675781 C 229.738281 237.542969 235.65625 239.335938 241.425781 241.664062 C 246.972656 232.683594 251.078125 222.539062 253.777344 212.355469 C 255.679688 206.558594 256.929688 200.460938 257.191406 194.371094 C 253.390625 193.71875 250.265625 191.957031 246.8125 190.386719 C 244.824219 194.148438 242.726562 196.480469 239.167969 198.816406 C 240.359375 193.582031 242.449219 188.851562 242.609375 183.382812 C 243.191406 176.71875 241.695312 170.742188 238.019531 165.171875 C 233.09375 156.949219 225.996094 152.441406 219.675781 145.441406 C 214.136719 139.675781 209.753906 133.101562 205.648438 126.269531 C 200.164062 118.007812 197.621094 109.472656 191.519531 101.640625 C 189.878906 99.59375 187.714844 98.527344 185.128906 98.164062 C 182.507812 97.953125 180.109375 99.332031 178.703125 101.5 C 175.878906 105.710938 175.464844 111.246094 175.835938 116.160156 C 176.667969 125.210938 180.128906 134.027344 186.121094 140.914062 C 188.964844 144.328125 192.214844 147.792969 193.738281 152.03125 C 194.527344 154.4375 195.542969 156.484375 194.832031 159.085938 C 191.976562 171.871094 191.175781 185.761719 196.789062 197.945312 C 193.957031 194.839844 191.582031 191.390625 190.003906 187.484375 C 186.058594 177.152344 185.726562 165.777344 189.257812 155.28125 C 183.191406 152.261719 177.949219 148.125 172.527344 144.128906 C 167.105469 140.0625 161.691406 136.121094 156.5625 131.71875 C 149.601562 125.542969 142.734375 119.273438 135.996094 112.855469 C 132.367188 109.921875 128.773438 106.183594 124.46875 104.308594 C 121.574219 103.175781 119.335938 103.949219 117.078125 105.890625 C 114.703125 109.828125 115.1875 114.222656 116.566406 118.402344 C 118.351562 123.550781 121.882812 128.324219 125.375 132.457031 C 135.019531 143.769531 147.351562 153.4375 159.441406 162.023438 C 160.875 163.066406 162.480469 164.089844 163.679688 165.40625 C 163.382812 166.179688 162.992188 166.917969 162.625 167.667969 C 159.953125 166.269531 157.289062 164.832031 154.710938 163.261719 C 152.746094 161.753906 150.714844 160.335938 148.632812 158.996094 C 145.328125 156.859375 141.640625 155.496094 138.246094 153.476562 C 129.980469 148.582031 121.019531 144.648438 112.265625 140.6875 C 106.898438 138.402344 100.390625 135.445312 94.464844 136.074219 C 92.316406 136.414062 89.886719 136.792969 88.441406 138.597656 C 86.859375 140.535156 86.839844 143.328125 87.332031 145.65625 C 88.355469 150.007812 91.132812 153.527344 94.359375 156.507812 C 102.515625 164.175781 113.195312 169.679688 123.109375 174.808594 C 130.71875 178.550781 138.378906 182.394531 146.238281 185.589844 C 148.847656 186.660156 151.457031 187.726562 153.921875 189.113281 C 152.828125 189.660156 151.84375 190.253906 150.59375 190.324219 C 146.652344 190.609375 142.59375 189.8125 138.660156 189.472656 C 139.046875 189.625 139.433594 189.78125 139.816406 189.941406 C 139.433594 189.78125 139.046875 189.625 138.660156 189.472656 C 125.933594 187.226562 113.285156 184.980469 100.757812 181.847656 C 97.03125 181.066406 92.835938 179.828125 89.242188 181.695312 C 89.265625 182.003906 89.285156 182.308594 89.308594 182.613281 C 89.285156 182.308594 89.265625 182.003906 89.242188 181.695312 C 87.898438 183.007812 86.660156 184.351562 86.355469 186.285156 C 85.703125 190.710938 87.851562 194.921875 90.816406 198.070312 C 95.175781 202.648438 101.214844 205.261719 107.039062 207.445312 C 117.949219 211.523438 129.007812 213.371094 140.40625 215.488281 Z M 108.734375 234.019531 C 109.324219 234.382812 109.941406 234.71875 110.597656 235.019531 C 109.941406 234.71875 109.324219 234.382812 108.734375 234.019531 Z M 231.738281 188.554688 C 231.53125 189.160156 231.289062 189.753906 231.015625 190.328125 C 231.289062 189.753906 231.53125 189.160156 231.738281 188.554688 Z M 226.996094 226.589844 C 227.621094 226.949219 228.296875 227.230469 229 227.4375 C 228.296875 227.230469 227.621094 226.949219 226.996094 226.589844 C 226.925781 226.453125 226.863281 226.308594 226.8125 226.160156 C 226.863281 226.308594 226.925781 226.453125 226.996094 226.589844 Z M 220.824219 198.574219 C 220.980469 198.675781 221.140625 198.78125 221.296875 198.878906 C 221.140625 198.78125 220.980469 198.675781 220.824219 198.574219 Z M 218.746094 157.433594 C 219.257812 158.074219 219.773438 158.691406 220.296875 159.289062 C 219.773438 158.691406 219.257812 158.074219 218.746094 157.433594 C 218.027344 156.539062 217.292969 155.667969 216.539062 154.804688 C 217.292969 155.667969 218.027344 156.539062 218.746094 157.433594 Z M 209.585938 147.226562 C 210.75 148.488281 211.925781 149.734375 213.089844 150.992188 C 211.925781 149.734375 210.75 148.488281 209.585938 147.226562 C 209.242188 146.855469 208.90625 146.480469 208.578125 146.097656 C 208.90625 146.480469 209.242188 146.855469 209.585938 147.226562 Z M 131.421875 131.078125 C 132.394531 132.128906 133.390625 133.160156 134.410156 134.164062 C 133.390625 133.160156 132.394531 132.128906 131.421875 131.078125 Z M 137.574219 137.144531 C 138.53125 138.007812 139.511719 138.855469 140.507812 139.675781 C 139.511719 138.855469 138.53125 138.007812 137.574219 137.144531 Z M 92.125 143.488281 C 92.050781 143.320312 91.992188 143.15625 91.945312 142.988281 C 91.992188 143.15625 92.050781 143.320312 92.125 143.488281 C 92.222656 143.707031 92.328125 143.921875 92.441406 144.136719 C 92.328125 143.921875 92.222656 143.707031 92.125 143.488281 Z M 158.238281 232.132812 C 158.40625 232.601562 158.539062 233.082031 158.636719 233.570312 C 158.539062 233.082031 158.40625 232.601562 158.238281 232.132812 Z M 189.554688 198.527344 C 189.746094 198.914062 189.9375 199.300781 190.128906 199.6875 C 189.621094 199.957031 189.121094 200.234375 188.628906 200.511719 C 189.121094 200.234375 189.621094 199.957031 190.128906 199.6875 C 189.9375 199.300781 189.746094 198.914062 189.554688 198.527344 Z M 184.273438 196.191406 C 183.914062 196.359375 183.5625 196.539062 183.21875 196.734375 C 183.5625 196.539062 183.914062 196.359375 184.273438 196.191406 Z M 187.261719 238.1875 C 188.148438 238.21875 189.03125 238.214844 189.910156 238.183594 C 189.03125 238.214844 188.148438 238.21875 187.261719 238.1875 C 185.046875 238.242188 182.847656 238.097656 180.710938 237.726562 C 182.847656 238.097656 185.046875 238.242188 187.261719 238.1875 Z M 163.554688 172.816406 C 165.609375 168.960938 168.773438 163.90625 173.609375 163.539062 C 170.417969 166.933594 168.464844 171.746094 166.890625 176.074219 C 163.941406 184.910156 162.246094 194.101562 161.664062 203.394531 C 161.304688 209.171875 160.757812 215.292969 161.808594 221.019531 C 160.550781 219.523438 159.917969 217.796875 159.453125 215.921875 C 155.679688 201.789062 157.085938 185.960938 163.554688 172.816406 Z M 156.863281 174.273438 C 156.824219 174.511719 156.78125 174.753906 156.742188 174.996094 C 156.78125 174.753906 156.824219 174.511719 156.863281 174.273438 Z M 156.609375 239.09375 C 156.847656 239.089844 157.054688 239.050781 157.242188 238.980469 C 157.054688 239.050781 156.847656 239.089844 156.609375 239.09375 C 152.792969 239.734375 148.875 239.820312 145.023438 240.15625 C 143.90625 240.210938 142.792969 240.257812 141.679688 240.296875 C 142.792969 240.257812 143.90625 240.210938 145.023438 240.15625 C 148.875 239.820312 152.792969 239.734375 156.609375 239.09375 Z M 152.421875 203.199219 C 152.441406 203.046875 152.453125 202.894531 152.460938 202.742188 C 152.453125 202.894531 152.441406 203.046875 152.421875 203.199219 C 152.398438 203.328125 152.371094 203.457031 152.339844 203.589844 C 152.371094 203.457031 152.398438 203.328125 152.421875 203.199219 Z M 90.988281 189.597656 C 90.78125 189.246094 90.601562 188.890625 90.445312 188.535156 C 90.601562 188.890625 90.78125 189.246094 90.988281 189.597656 C 91.546875 190.574219 92.238281 191.425781 93.015625 192.175781 C 92.238281 191.425781 91.546875 190.574219 90.988281 189.597656 Z M 90.988281 189.597656 " fill-opacity="1" fill-rule="nonzero"/><path fill="#6d6d6d" d="M 258.035156 180.359375 C 262.363281 183.007812 262.585938 187.753906 262.992188 192.316406 C 263.242188 201.535156 261.179688 210.921875 258.339844 219.65625 C 257.234375 223.277344 255.273438 226.597656 255.410156 230.347656 C 255.445312 234.410156 256.664062 238.933594 259.28125 242.121094 C 262.425781 245.910156 267.957031 246.261719 272.300781 244.679688 C 277.816406 242.210938 281.046875 236.941406 283.363281 231.617188 C 288.183594 221.21875 289.726562 209.1875 288.71875 197.835938 C 288.265625 194.738281 287.714844 191.175781 285.980469 188.5 C 285.414062 187.511719 284.488281 187.296875 283.511719 186.859375 C 275.394531 183.726562 267.375 180.582031 259.136719 177.773438 C 257.691406 177.144531 256.53125 178.085938 255.230469 178.660156 C 252.71875 179.972656 250.898438 181.992188 249.253906 184.253906 C 252.109375 185.636719 254.996094 186.894531 258.023438 187.84375 C 258.546875 185.324219 258.203125 182.890625 258.035156 180.359375 Z M 267.210938 220.304688 C 270.660156 218.859375 274.742188 220.148438 276.898438 223.140625 C 280.402344 228.085938 278.457031 235.953125 272.609375 238.160156 C 268.367188 239.9375 263.4375 237.605469 261.761719 233.421875 C 259.65625 228.457031 262.238281 222.339844 267.210938 220.304688 Z M 267.210938 220.304688 " fill-opacity="1" fill-rule="nonzero"/><path fill="#ffffff" d="M 266.753906 233.988281 C 268.566406 235.503906 271.234375 235.160156 272.867188 233.554688 C 275.464844 231.15625 275.539062 226.769531 272.921875 224.351562 C 271.441406 222.824219 269.03125 222.671875 267.246094 223.734375 C 263.714844 225.949219 263.535156 231.417969 266.753906 233.988281 Z M 266.753906 233.988281 " fill-opacity="1" fill-rule="nonzero"/><path fill="#6d6d6d" d="M 259.164062 246.414062 C 254.816406 243.378906 253.445312 238.773438 252.363281 233.851562 C 249.132812 239.554688 245.753906 244.875 240.503906 248.964844 C 238.550781 250.5 236.300781 251.171875 233.9375 251.816406 C 235.28125 250.230469 236.5625 248.621094 237.734375 246.914062 C 235.84375 246.324219 233.953125 245.722656 232.070312 245.128906 C 231.382812 247.9375 230.71875 250.597656 231.308594 253.507812 C 231.710938 254.359375 232.914062 254.800781 233.683594 255.28125 C 240.953125 258.957031 248.894531 261.417969 256.84375 263.140625 C 258.847656 263.671875 261.0625 262.441406 262.777344 261.523438 C 269.023438 257.914062 273.496094 251.71875 277.292969 245.746094 C 271.808594 249.152344 264.722656 250.226562 259.164062 246.414062 Z M 259.164062 246.414062 " fill-opacity="1" fill-rule="nonzero"/><path fill="#e5b1a3" d="M 190.980469 106.335938 C 193.003906 111.003906 194.144531 116.050781 195.863281 120.835938 C 197.441406 125.199219 198.832031 129.679688 200.777344 133.890625 C 203.125 138.734375 205.917969 143.265625 209.585938 147.226562 C 212.6875 150.585938 215.875 153.863281 218.746094 157.433594 C 222.820312 162.5625 227.480469 166.117188 230.4375 172.042969 C 233.65625 178.382812 233.792969 187.117188 229.4375 192.972656 C 227.207031 196.007812 224.128906 197.09375 220.824219 198.574219 C 223.34375 200.226562 225.832031 201.652344 228.925781 201.832031 C 232.671875 202.203125 236.140625 200.945312 239.167969 198.816406 C 240.359375 193.582031 242.449219 188.851562 242.609375 183.382812 C 243.191406 176.71875 241.695312 170.742188 238.019531 165.171875 C 233.09375 156.949219 225.996094 152.441406 219.675781 145.441406 C 214.136719 139.675781 209.753906 133.101562 205.648438 126.269531 C 200.164062 118.007812 197.621094 109.472656 191.519531 101.640625 C 189.878906 99.59375 187.714844 98.527344 185.128906 98.164062 C 187.601562 100.5 189.632812 103.203125 190.980469 106.335938 Z M 190.980469 106.335938 " fill-opacity="1" fill-rule="nonzero"/><path fill="#e5b1a3" d="M 140.40625 215.488281 C 144.574219 216.28125 148.472656 216.613281 152.460938 218.085938 C 148.75 219.550781 144.5625 219.753906 140.523438 220.382812 C 145.003906 221.578125 149.742188 222.378906 153.339844 225.519531 C 156.289062 228.070312 159.066406 231.722656 158.777344 235.828125 C 158.632812 237.148438 158.292969 239.078125 156.609375 239.09375 C 152.792969 239.734375 148.875 239.820312 145.023438 240.15625 C 133.101562 240.738281 121.46875 240.515625 110.597656 235.019531 C 107.101562 233.421875 104.664062 230.789062 101.957031 228.167969 C 102.335938 231.335938 103.617188 234.003906 106.035156 236.113281 C 110.402344 239.941406 116.585938 242.050781 122.140625 243.484375 C 129.8125 245.53125 137.1875 245.148438 145.023438 245.058594 C 152.863281 244.777344 160.714844 243.609375 168.566406 243.609375 C 178.152344 243.640625 188.675781 247.734375 198.007812 245.777344 C 203.0625 244.726562 208.242188 242.730469 212.273438 239.445312 C 216.890625 235.421875 220.175781 229.8125 221.613281 223.878906 C 222.722656 219.484375 222.605469 215.195312 223.074219 210.757812 C 220.8125 206.765625 218.082031 203.1875 214.378906 200.421875 C 216.289062 206.960938 216.429688 213.648438 215.242188 220.328125 C 214.234375 225.222656 211.375 229.507812 207.335938 232.441406 C 201.5 236.625 194.410156 238.4375 187.261719 238.1875 C 180.171875 238.359375 173.253906 236.511719 167.929688 231.695312 C 164.730469 228.78125 163.367188 224.933594 161.808594 221.019531 C 160.550781 219.523438 159.917969 217.796875 159.457031 215.921875 C 155.679688 201.789062 157.085938 185.960938 163.554688 172.816406 C 165.609375 168.960938 168.773438 163.90625 173.609375 163.539062 C 175.691406 161.59375 177.511719 159.570312 178.90625 157.066406 C 174.191406 155.253906 169.167969 155.214844 164.40625 153.621094 C 158.023438 151.660156 152.703125 148.179688 147.121094 144.601562 C 137.949219 138.460938 130.214844 130.550781 123.664062 121.699219 C 120.214844 116.941406 117.5 111.875 117.078125 105.890625 C 114.703125 109.828125 115.1875 114.222656 116.566406 118.402344 C 118.351562 123.550781 121.882812 128.324219 125.375 132.457031 C 135.019531 143.769531 147.351562 153.4375 159.441406 162.023438 C 160.875 163.066406 162.480469 164.089844 163.679688 165.40625 C 163.382812 166.179688 162.992188 166.917969 162.625 167.667969 C 159.953125 166.269531 157.289062 164.832031 154.710938 163.261719 C 155.625 165.15625 156.582031 167.132812 157.066406 169.1875 C 157.515625 171.128906 157.058594 173.066406 156.742188 174.996094 C 146.339844 173.828125 136.667969 170.050781 127.105469 165.984375 C 117.890625 161.824219 108.824219 157.398438 100.28125 151.964844 C 97.164062 149.828125 93.695312 147 92.125 143.488281 C 90.972656 140.832031 93.101562 138.203125 94.464844 136.074219 C 92.316406 136.414062 89.886719 136.792969 88.441406 138.597656 C 86.859375 140.535156 86.839844 143.328125 87.332031 145.65625 C 88.355469 150.007812 91.132812 153.527344 94.359375 156.507812 C 102.515625 164.175781 113.195312 169.679688 123.109375 174.808594 C 130.71875 178.550781 138.378906 182.394531 146.238281 185.589844 C 148.847656 186.660156 151.457031 187.726562 153.921875 189.113281 C 152.828125 189.660156 151.84375 190.253906 150.59375 190.324219 C 146.652344 190.609375 142.59375 189.8125 138.660156 189.472656 C 142.773438 191.09375 146.902344 193.125 149.871094 196.484375 C 151.445312 198.285156 152.746094 200.75 152.421875 203.199219 C 152.191406 204.570312 151.386719 206.164062 149.84375 206.332031 C 147.585938 206.683594 145.226562 206.566406 142.941406 206.527344 C 132.535156 206.199219 122.402344 204.222656 112.40625 201.394531 C 107.808594 200.039062 103.347656 198.171875 99.027344 196.089844 C 95.890625 194.535156 92.78125 192.722656 90.988281 189.597656 C 89.511719 187.089844 89.449219 184.515625 89.242188 181.695312 C 87.898438 183.007812 86.660156 184.351562 86.355469 186.285156 C 85.703125 190.710938 87.851562 194.921875 90.816406 198.070312 C 95.175781 202.648438 101.214844 205.261719 107.039062 207.445312 C 117.949219 211.523438 129.007812 213.371094 140.40625 215.488281 Z M 140.40625 215.488281 " fill-opacity="1" fill-rule="nonzero"/><path fill="#e5b1a3" d="M 190.128906 199.6875 C 189.359375 198.136719 188.613281 196.597656 187.753906 195.097656 C 184.4375 195.703125 181.75 197.316406 179.429688 199.730469 C 174.804688 204.484375 171.621094 210.527344 170.484375 217.078125 C 175.71875 209.511719 182.015625 204.015625 190.128906 199.6875 Z M 190.128906 199.6875 " fill-opacity="1" fill-rule="nonzero"/><path fill="#e5b1a3" d="M 226.996094 226.589844 C 226.019531 224.613281 226.648438 221.570312 226.210938 219.332031 C 226.738281 224.980469 225.78125 230.394531 223.816406 235.675781 C 229.738281 237.542969 235.65625 239.335938 241.425781 241.664062 C 246.972656 232.683594 251.078125 222.539062 253.777344 212.355469 C 249.976562 217.546875 246.777344 222.753906 240.855469 225.808594 C 236.910156 227.890625 231.011719 228.894531 226.996094 226.589844 Z M 226.996094 226.589844 " fill-opacity="1" fill-rule="nonzero"/></svg>