<svg xmlns="http://www.w3.org/2000/svg" xmlns:xlink="http://www.w3.org/1999/xlink" width="500" zoomAndPan="magnify" viewBox="0 0 375 374.999991" height="500" preserveAspectRatio="xMidYMid meet" version="1.0"><defs><clipPath id="0a81cf61d9"><path d="M 68 49.089844 L 307 49.089844 L 307 289 L 68 289 Z M 68 49.089844 " clip-rule="nonzero"/></clipPath><clipPath id="0e07f52aa5"><path d="M 67.351562 49.089844 L 307 49.089844 L 307 289 L 67.351562 289 Z M 67.351562 49.089844 " clip-rule="nonzero"/></clipPath></defs><g clip-path="url(#0a81cf61d9)"><path fill="#fbb830" d="M 306.425781 169.097656 L 238.867188 182.960938 L 290.457031 228.78125 L 225.027344 206.90625 L 246.878906 272.414062 L 201.113281 220.757812 L 187.265625 288.398438 L 173.417969 220.757812 L 127.65625 272.414062 L 149.503906 206.902344 L 84.074219 228.78125 L 135.667969 182.960938 L 68.109375 169.097656 L 135.667969 155.230469 L 84.074219 109.410156 L 149.503906 131.289062 L 127.65625 65.777344 L 173.417969 117.433594 L 187.265625 49.792969 L 201.113281 117.433594 L 246.878906 65.777344 L 225.027344 131.289062 L 290.457031 109.414062 L 238.867188 155.230469 Z M 306.425781 169.097656 " fill-opacity="1" fill-rule="nonzero"/></g><g clip-path="url(#0e07f52aa5)"><path fill="#000000" d="M 306.273438 168.546875 C 298.644531 170.113281 291.015625 171.679688 283.382812 173.246094 C 271.273438 175.730469 259.164062 178.214844 247.054688 180.703125 C 244.273438 181.273438 241.496094 181.84375 238.714844 182.414062 C 238.304688 182.496094 238.15625 183.089844 238.464844 183.363281 C 244.289062 188.539062 250.117188 193.710938 255.945312 198.886719 C 265.191406 207.101562 274.441406 215.3125 283.6875 223.527344 C 285.8125 225.410156 287.933594 227.296875 290.058594 229.183594 L 290.609375 228.230469 C 283.21875 225.761719 275.832031 223.292969 268.441406 220.820312 C 256.710938 216.898438 244.984375 212.976562 233.253906 209.058594 C 230.5625 208.15625 227.871094 207.257812 225.179688 206.355469 C 224.777344 206.222656 224.347656 206.652344 224.480469 207.054688 C 226.949219 214.453125 229.417969 221.851562 231.882812 229.25 C 235.800781 240.992188 239.71875 252.738281 243.632812 264.480469 C 244.53125 267.175781 245.429688 269.871094 246.332031 272.566406 L 247.277344 272.011719 C 242.109375 266.179688 236.941406 260.34375 231.773438 254.511719 C 223.570312 245.25 215.367188 235.992188 207.164062 226.730469 C 205.28125 224.605469 203.398438 222.480469 201.515625 220.355469 C 201.242188 220.046875 200.652344 220.199219 200.566406 220.605469 C 199.003906 228.246094 197.441406 235.886719 195.875 243.523438 C 193.394531 255.648438 190.910156 267.773438 188.429688 279.898438 C 187.859375 282.683594 187.289062 285.464844 186.71875 288.25 L 187.8125 288.25 C 186.25 280.609375 184.6875 272.96875 183.121094 265.332031 C 180.640625 253.207031 178.15625 241.082031 175.675781 228.957031 C 175.105469 226.171875 174.535156 223.390625 173.964844 220.605469 C 173.882812 220.199219 173.292969 220.046875 173.015625 220.355469 C 167.847656 226.191406 162.679688 232.023438 157.511719 237.859375 C 149.308594 247.117188 141.105469 256.375 132.902344 265.636719 C 131.019531 267.761719 129.136719 269.886719 127.253906 272.011719 L 128.203125 272.566406 C 130.671875 265.167969 133.136719 257.769531 135.605469 250.371094 C 139.523438 238.625 143.4375 226.882812 147.355469 215.140625 C 148.253906 212.445312 149.152344 209.75 150.050781 207.054688 C 150.1875 206.652344 149.753906 206.222656 149.351562 206.355469 C 141.964844 208.828125 134.574219 211.296875 127.183594 213.769531 C 115.457031 217.6875 103.726562 221.609375 92 225.53125 C 89.308594 226.429688 86.617188 227.332031 83.921875 228.230469 L 84.476562 229.183594 C 90.304688 224.007812 96.128906 218.832031 101.957031 213.65625 C 111.203125 205.445312 120.453125 197.230469 129.699219 189.019531 C 131.824219 187.132812 133.945312 185.25 136.070312 183.363281 C 136.378906 183.089844 136.226562 182.496094 135.820312 182.414062 C 128.1875 180.847656 120.558594 179.28125 112.929688 177.714844 C 100.820312 175.230469 88.707031 172.746094 76.597656 170.257812 C 73.820312 169.6875 71.039062 169.117188 68.261719 168.546875 L 68.261719 169.644531 C 75.890625 168.078125 83.519531 166.511719 91.148438 164.945312 C 103.257812 162.460938 115.371094 159.976562 127.480469 157.492188 C 130.257812 156.921875 133.039062 156.351562 135.820312 155.78125 C 136.226562 155.695312 136.378906 155.105469 136.070312 154.828125 C 130.242188 149.65625 124.414062 144.480469 118.589844 139.304688 C 109.339844 131.09375 100.09375 122.878906 90.84375 114.664062 C 88.722656 112.78125 86.597656 110.894531 84.476562 109.011719 L 83.925781 109.960938 C 91.3125 112.429688 98.703125 114.902344 106.09375 117.371094 C 117.820312 121.292969 129.550781 125.214844 141.277344 129.136719 C 143.96875 130.035156 146.660156 130.9375 149.355469 131.835938 C 149.753906 131.96875 150.1875 131.539062 150.050781 131.136719 C 147.585938 123.738281 145.117188 116.339844 142.648438 108.941406 C 138.734375 97.199219 134.816406 85.457031 130.902344 73.714844 C 130 71.015625 129.101562 68.324219 128.203125 65.625 L 127.253906 66.179688 C 132.421875 72.015625 137.589844 77.847656 142.757812 83.683594 C 150.960938 92.941406 159.164062 102.199219 167.367188 111.460938 C 169.25 113.585938 171.132812 115.710938 173.015625 117.835938 C 173.292969 118.144531 173.882812 117.996094 173.964844 117.585938 C 175.53125 109.945312 177.09375 102.308594 178.65625 94.667969 C 181.140625 82.542969 183.621094 70.417969 186.105469 58.292969 C 186.675781 55.511719 187.246094 52.726562 187.8125 49.945312 L 186.71875 49.945312 C 188.285156 57.582031 189.847656 65.222656 191.410156 72.863281 C 193.894531 84.984375 196.375 97.113281 198.859375 109.234375 C 199.429688 112.019531 199.996094 114.800781 200.566406 117.585938 C 200.652344 117.996094 201.242188 118.144531 201.515625 117.835938 C 206.683594 112.003906 211.851562 106.167969 217.023438 100.335938 C 225.226562 91.074219 233.429688 81.816406 241.632812 72.558594 C 243.515625 70.429688 245.398438 68.304688 247.28125 66.179688 L 246.332031 65.628906 C 243.863281 73.027344 241.394531 80.425781 238.929688 87.824219 C 235.011719 99.566406 231.09375 111.308594 227.179688 123.050781 C 226.28125 125.746094 225.382812 128.441406 224.480469 131.136719 C 224.347656 131.539062 224.78125 131.96875 225.179688 131.835938 C 232.570312 129.367188 239.960938 126.894531 247.347656 124.425781 C 259.078125 120.503906 270.804688 116.582031 282.535156 112.660156 C 285.226562 111.761719 287.917969 110.859375 290.609375 109.960938 L 290.058594 109.011719 C 284.230469 114.183594 278.402344 119.359375 272.578125 124.535156 C 263.328125 132.746094 254.082031 140.960938 244.832031 149.171875 C 242.710938 151.058594 240.585938 152.945312 238.464844 154.828125 C 238.15625 155.105469 238.304688 155.695312 238.714844 155.78125 C 246.34375 157.34375 253.976562 158.910156 261.605469 160.476562 C 273.714844 162.960938 285.824219 165.449219 297.933594 167.933594 C 300.714844 168.503906 303.492188 169.074219 306.273438 169.644531 C 306.988281 169.789062 307.292969 168.695312 306.574219 168.546875 C 298.945312 166.980469 291.316406 165.417969 283.6875 163.851562 C 271.578125 161.367188 259.464844 158.878906 247.355469 156.394531 C 244.578125 155.824219 241.796875 155.253906 239.015625 154.683594 L 239.269531 155.632812 C 245.09375 150.457031 250.921875 145.285156 256.75 140.109375 C 265.996094 131.898438 275.246094 123.683594 284.492188 115.46875 C 286.617188 113.585938 288.738281 111.699219 290.859375 109.816406 C 291.28125 109.441406 290.839844 108.6875 290.308594 108.863281 C 282.917969 111.335938 275.527344 113.804688 268.140625 116.277344 C 256.410156 120.199219 244.683594 124.117188 232.953125 128.039062 C 230.261719 128.941406 227.570312 129.839844 224.878906 130.738281 L 225.578125 131.4375 C 228.042969 124.039062 230.511719 116.640625 232.980469 109.242188 C 236.894531 97.5 240.8125 85.757812 244.730469 74.015625 C 245.628906 71.320312 246.527344 68.625 247.425781 65.929688 C 247.601562 65.398438 246.851562 64.957031 246.476562 65.375 C 241.308594 71.210938 236.140625 77.042969 230.972656 82.878906 C 222.769531 92.136719 214.566406 101.394531 206.363281 110.65625 C 204.480469 112.78125 202.597656 114.90625 200.714844 117.03125 L 201.664062 117.28125 C 200.097656 109.644531 198.535156 102.003906 196.96875 94.363281 C 194.488281 82.242188 192.003906 70.117188 189.523438 57.992188 C 188.953125 55.207031 188.382812 52.425781 187.8125 49.640625 C 187.703125 49.097656 186.828125 49.097656 186.71875 49.640625 C 185.15625 57.28125 183.589844 64.917969 182.027344 72.558594 C 179.546875 84.683594 177.0625 96.808594 174.582031 108.933594 C 174.011719 111.714844 173.441406 114.5 172.871094 117.28125 L 173.820312 117.03125 C 168.652344 111.199219 163.484375 105.363281 158.316406 99.53125 C 150.113281 90.269531 141.910156 81.011719 133.707031 71.75 C 131.824219 69.625 129.941406 67.5 128.058594 65.375 C 127.683594 64.953125 126.929688 65.398438 127.109375 65.929688 C 129.574219 73.328125 132.042969 80.726562 134.511719 88.125 C 138.425781 99.867188 142.34375 111.609375 146.261719 123.351562 C 147.160156 126.046875 148.058594 128.742188 148.957031 131.4375 L 149.65625 130.738281 C 142.265625 128.269531 134.875 125.796875 127.488281 123.328125 C 115.757812 119.40625 104.03125 115.484375 92.300781 111.5625 C 89.609375 110.664062 86.917969 109.765625 84.226562 108.863281 C 83.695312 108.6875 83.253906 109.441406 83.671875 109.8125 C 89.5 114.988281 95.324219 120.164062 101.152344 125.339844 C 110.402344 133.550781 119.648438 141.765625 128.898438 149.976562 C 131.019531 151.863281 133.144531 153.746094 135.265625 155.632812 L 135.515625 154.683594 C 127.886719 156.25 120.257812 157.816406 112.625 159.378906 C 100.515625 161.867188 88.40625 164.351562 76.296875 166.835938 C 73.515625 167.40625 70.738281 167.976562 67.957031 168.546875 C 67.414062 168.660156 67.414062 169.535156 67.957031 169.644531 C 75.585938 171.210938 83.214844 172.777344 90.847656 174.34375 C 102.957031 176.828125 115.066406 179.3125 127.175781 181.796875 C 129.957031 182.367188 132.734375 182.9375 135.515625 183.507812 L 135.265625 182.558594 C 129.4375 187.734375 123.613281 192.910156 117.785156 198.082031 C 108.535156 206.296875 99.289062 214.507812 90.039062 222.722656 C 87.917969 224.609375 85.796875 226.492188 83.671875 228.378906 C 83.25 228.75 83.695312 229.507812 84.226562 229.328125 C 91.613281 226.859375 99.003906 224.386719 106.394531 221.917969 C 118.121094 217.996094 129.851562 214.074219 141.578125 210.152344 C 144.269531 209.253906 146.960938 208.351562 149.65625 207.453125 L 148.957031 206.753906 C 146.488281 214.152344 144.019531 221.550781 141.554688 228.949219 C 137.636719 240.691406 133.722656 252.433594 129.804688 264.175781 C 128.90625 266.871094 128.007812 269.566406 127.105469 272.261719 C 126.929688 272.792969 127.683594 273.238281 128.054688 272.816406 C 133.226562 266.984375 138.394531 261.148438 143.5625 255.316406 C 151.765625 246.054688 159.96875 236.796875 168.171875 227.535156 C 170.054688 225.410156 171.9375 223.285156 173.820312 221.160156 L 172.871094 220.910156 C 174.433594 228.550781 176 236.1875 177.5625 243.828125 C 180.046875 255.953125 182.527344 268.078125 185.007812 280.203125 C 185.578125 282.984375 186.148438 285.769531 186.71875 288.550781 C 186.828125 289.09375 187.703125 289.09375 187.8125 288.550781 C 189.378906 280.910156 190.941406 273.273438 192.507812 265.632812 C 194.988281 253.507812 197.46875 241.382812 199.953125 229.257812 C 200.523438 226.476562 201.09375 223.691406 201.664062 220.910156 L 200.714844 221.160156 C 205.882812 226.996094 211.050781 232.828125 216.21875 238.664062 C 224.421875 247.921875 232.625 257.179688 240.828125 266.441406 C 242.710938 268.566406 244.59375 270.691406 246.476562 272.816406 C 246.847656 273.238281 247.601562 272.796875 247.425781 272.261719 C 244.957031 264.863281 242.488281 257.464844 240.023438 250.066406 C 236.105469 238.324219 232.1875 226.582031 228.273438 214.839844 C 227.375 212.144531 226.476562 209.449219 225.574219 206.753906 L 224.878906 207.453125 C 232.265625 209.921875 239.65625 212.394531 247.046875 214.863281 C 258.773438 218.785156 270.503906 222.707031 282.230469 226.628906 C 284.921875 227.527344 287.617188 228.429688 290.308594 229.328125 C 290.839844 229.507812 291.28125 228.75 290.859375 228.378906 C 285.035156 223.203125 279.207031 218.027344 273.378906 212.855469 C 264.132812 204.640625 254.882812 196.429688 245.636719 188.214844 C 243.511719 186.328125 241.390625 184.445312 239.265625 182.558594 L 239.015625 183.507812 C 246.648438 181.941406 254.277344 180.378906 261.90625 178.8125 C 274.015625 176.328125 286.125 173.839844 298.238281 171.355469 C 301.015625 170.785156 303.796875 170.214844 306.574219 169.644531 C 307.292969 169.496094 306.988281 168.402344 306.273438 168.546875 Z M 306.273438 168.546875 " fill-opacity="1" fill-rule="nonzero"/></g><path fill="#f55842" d="M 178.171875 202.992188 L 148.183594 236.839844 L 162.511719 193.878906 L 119.605469 208.222656 L 153.410156 178.203125 L 109.039062 169.09375 L 153.410156 159.988281 L 119.605469 129.96875 L 162.515625 144.3125 L 148.1875 101.355469 L 178.171875 135.199219 L 187.265625 90.773438 L 196.359375 135.199219 L 226.347656 101.351562 L 212.019531 144.3125 L 254.925781 129.96875 L 221.121094 159.988281 L 265.492188 169.09375 L 221.121094 178.203125 L 254.925781 208.222656 L 212.019531 193.878906 L 226.347656 236.835938 L 196.363281 202.992188 L 187.265625 247.417969 Z M 178.171875 202.992188 " fill-opacity="1" fill-rule="nonzero"/><path fill="#000000" d="M 177.769531 202.589844 C 174.394531 206.398438 171.019531 210.207031 167.644531 214.015625 C 162.265625 220.089844 156.882812 226.167969 151.5 232.242188 C 150.261719 233.640625 149.023438 235.039062 147.785156 236.4375 L 148.734375 236.988281 C 150.34375 232.15625 151.957031 227.320312 153.570312 222.484375 C 156.140625 214.773438 158.714844 207.066406 161.285156 199.355469 L 163.0625 194.03125 C 163.195312 193.628906 162.761719 193.195312 162.363281 193.332031 C 157.535156 194.945312 152.703125 196.558594 147.875 198.171875 C 140.175781 200.746094 132.476562 203.324219 124.773438 205.898438 C 123 206.488281 121.230469 207.082031 119.457031 207.675781 L 120.007812 208.625 C 123.8125 205.246094 127.617188 201.867188 131.421875 198.488281 C 137.488281 193.101562 143.554688 187.714844 149.621094 182.328125 C 151.019531 181.085938 152.417969 179.84375 153.8125 178.605469 C 154.125 178.328125 153.972656 177.738281 153.5625 177.65625 C 148.570312 176.628906 143.574219 175.605469 138.582031 174.578125 C 130.617188 172.945312 122.65625 171.3125 114.691406 169.675781 C 112.859375 169.300781 111.023438 168.921875 109.191406 168.546875 L 109.191406 169.644531 C 114.183594 168.621094 119.179688 167.59375 124.171875 166.570312 C 132.136719 164.933594 140.097656 163.300781 148.0625 161.667969 C 149.894531 161.289062 151.730469 160.914062 153.5625 160.539062 C 153.972656 160.453125 154.125 159.863281 153.8125 159.585938 C 150.007812 156.210938 146.203125 152.832031 142.398438 149.453125 C 136.332031 144.0625 130.265625 138.675781 124.199219 133.289062 C 122.800781 132.046875 121.40625 130.804688 120.007812 129.566406 L 119.457031 130.515625 C 124.285156 132.128906 129.113281 133.746094 133.941406 135.359375 C 141.644531 137.933594 149.34375 140.507812 157.042969 143.082031 C 158.816406 143.675781 160.589844 144.269531 162.363281 144.859375 C 162.765625 144.996094 163.195312 144.5625 163.0625 144.160156 C 161.449219 139.328125 159.835938 134.492188 158.222656 129.660156 C 155.652344 121.949219 153.082031 114.238281 150.511719 106.527344 C 149.917969 104.753906 149.324219 102.976562 148.734375 101.203125 L 147.785156 101.757812 C 151.160156 105.566406 154.535156 109.375 157.90625 113.183594 C 163.289062 119.257812 168.671875 125.332031 174.050781 131.40625 C 175.292969 132.804688 176.53125 134.203125 177.769531 135.601562 C 178.042969 135.914062 178.636719 135.761719 178.71875 135.351562 C 179.742188 130.351562 180.765625 125.351562 181.789062 120.351562 C 183.421875 112.378906 185.054688 104.40625 186.6875 96.433594 C 187.0625 94.597656 187.4375 92.761719 187.8125 90.925781 L 186.71875 90.925781 C 187.742188 95.925781 188.765625 100.925781 189.789062 105.925781 C 191.421875 113.898438 193.054688 121.871094 194.6875 129.84375 C 195.0625 131.679688 195.4375 133.515625 195.8125 135.351562 C 195.898438 135.761719 196.488281 135.914062 196.761719 135.601562 C 200.136719 131.792969 203.511719 127.984375 206.886719 124.175781 C 212.269531 118.101562 217.648438 112.027344 223.03125 105.949219 C 224.269531 104.550781 225.507812 103.152344 226.75 101.753906 L 225.800781 101.203125 C 224.1875 106.035156 222.574219 110.871094 220.960938 115.707031 C 218.390625 123.417969 215.820312 131.125 213.246094 138.835938 C 212.65625 140.613281 212.0625 142.386719 211.472656 144.160156 C 211.335938 144.5625 211.769531 144.996094 212.167969 144.859375 C 217 143.246094 221.828125 141.632812 226.65625 140.019531 C 234.355469 137.445312 242.058594 134.867188 249.757812 132.292969 C 251.53125 131.703125 253.304688 131.109375 255.074219 130.515625 L 254.523438 129.566406 C 250.71875 132.945312 246.914062 136.324219 243.109375 139.703125 C 237.042969 145.089844 230.976562 150.476562 224.910156 155.867188 C 223.511719 157.105469 222.117188 158.347656 220.71875 159.585938 C 220.410156 159.863281 220.558594 160.453125 220.96875 160.539062 C 225.960938 161.5625 230.957031 162.585938 235.949219 163.613281 C 243.914062 165.246094 251.878906 166.878906 259.839844 168.515625 C 261.675781 168.890625 263.507812 169.265625 265.339844 169.644531 L 265.339844 168.546875 C 260.347656 169.570312 255.355469 170.597656 250.359375 171.621094 L 226.46875 176.523438 C 224.636719 176.902344 222.804688 177.277344 220.96875 177.652344 C 220.5625 177.738281 220.410156 178.328125 220.71875 178.605469 C 224.523438 181.984375 228.328125 185.363281 232.132812 188.738281 C 238.199219 194.128906 244.265625 199.515625 250.332031 204.902344 C 251.730469 206.144531 253.125 207.382812 254.523438 208.625 L 255.074219 207.675781 C 250.246094 206.0625 245.417969 204.445312 240.589844 202.832031 C 232.890625 200.257812 225.1875 197.683594 217.488281 195.109375 C 215.714844 194.515625 213.941406 193.921875 212.167969 193.328125 C 211.769531 193.195312 211.335938 193.628906 211.472656 194.027344 C 213.082031 198.863281 214.695312 203.699219 216.308594 208.53125 C 218.878906 216.242188 221.453125 223.953125 224.023438 231.664062 C 224.613281 233.4375 225.207031 235.210938 225.796875 236.988281 L 226.746094 236.433594 C 223.375 232.625 220 228.816406 216.625 225.007812 C 211.242188 218.933594 205.859375 212.859375 200.480469 206.785156 C 199.242188 205.386719 198.003906 203.988281 196.761719 202.589844 C 196.488281 202.277344 195.898438 202.429688 195.8125 202.839844 C 194.789062 207.839844 193.765625 212.839844 192.742188 217.839844 C 191.109375 225.8125 189.480469 233.785156 187.847656 241.757812 C 187.46875 243.59375 187.09375 245.429688 186.71875 247.265625 L 187.8125 247.265625 C 186.789062 242.265625 185.765625 237.265625 184.742188 232.265625 C 183.109375 224.292969 181.480469 216.320312 179.847656 208.347656 C 179.472656 206.511719 179.09375 204.675781 178.71875 202.839844 C 178.574219 202.125 177.476562 202.425781 177.625 203.140625 C 178.648438 208.140625 179.671875 213.140625 180.695312 218.140625 C 182.328125 226.113281 183.960938 234.085938 185.589844 242.058594 C 185.96875 243.894531 186.34375 245.730469 186.71875 247.566406 C 186.828125 248.109375 187.703125 248.109375 187.8125 247.566406 C 188.835938 242.566406 189.859375 237.566406 190.882812 232.570312 C 192.515625 224.59375 194.148438 216.621094 195.78125 208.648438 C 196.15625 206.8125 196.53125 204.976562 196.910156 203.140625 L 195.960938 203.394531 C 199.335938 207.203125 202.707031 211.011719 206.082031 214.820312 C 211.464844 220.894531 216.847656 226.96875 222.226562 233.042969 C 223.464844 234.441406 224.707031 235.839844 225.945312 237.238281 C 226.316406 237.660156 227.070312 237.21875 226.894531 236.683594 C 225.28125 231.851562 223.667969 227.015625 222.054688 222.183594 C 219.484375 214.472656 216.914062 206.761719 214.34375 199.050781 C 213.75 197.277344 213.15625 195.5 212.566406 193.726562 L 211.867188 194.425781 C 216.695312 196.039062 221.523438 197.65625 226.355469 199.269531 C 234.054688 201.84375 241.753906 204.417969 249.457031 206.992188 C 251.226562 207.585938 253 208.179688 254.773438 208.769531 C 255.304688 208.949219 255.746094 208.195312 255.328125 207.820312 C 251.523438 204.441406 247.71875 201.0625 243.914062 197.683594 C 237.847656 192.296875 231.78125 186.910156 225.710938 181.523438 C 224.316406 180.28125 222.917969 179.039062 221.523438 177.800781 L 221.273438 178.75 C 226.265625 177.726562 231.257812 176.699219 236.253906 175.675781 C 244.214844 174.039062 252.179688 172.40625 260.144531 170.773438 C 261.976562 170.394531 263.808594 170.019531 265.644531 169.644531 C 266.183594 169.53125 266.1875 168.65625 265.644531 168.546875 C 260.648438 167.523438 255.65625 166.496094 250.664062 165.472656 C 242.699219 163.839844 234.734375 162.203125 226.773438 160.570312 C 224.9375 160.195312 223.105469 159.816406 221.273438 159.441406 L 221.523438 160.390625 C 225.328125 157.011719 229.132812 153.632812 232.933594 150.253906 C 239.003906 144.867188 245.070312 139.480469 251.136719 134.089844 C 252.53125 132.851562 253.929688 131.609375 255.328125 130.371094 C 255.746094 129.996094 255.304688 129.242188 254.773438 129.417969 C 249.945312 131.035156 245.117188 132.648438 240.289062 134.261719 C 232.585938 136.835938 224.886719 139.410156 217.1875 141.984375 C 215.414062 142.578125 213.640625 143.171875 211.867188 143.765625 L 212.566406 144.464844 C 214.179688 139.628906 215.792969 134.792969 217.402344 129.960938 C 219.976562 122.25 222.546875 114.539062 225.117188 106.828125 C 225.710938 105.054688 226.300781 103.277344 226.894531 101.503906 C 227.070312 100.972656 226.320312 100.53125 225.945312 100.949219 C 222.570312 104.757812 219.195312 108.570312 215.820312 112.378906 C 210.441406 118.453125 205.058594 124.527344 199.675781 130.601562 C 198.4375 132 197.199219 133.398438 195.960938 134.796875 L 196.90625 135.046875 C 195.882812 130.050781 194.859375 125.050781 193.835938 120.050781 C 192.207031 112.078125 190.574219 104.105469 188.941406 96.128906 C 188.566406 94.292969 188.1875 92.457031 187.8125 90.625 C 187.703125 90.082031 186.828125 90.082031 186.71875 90.625 C 185.695312 95.625 184.671875 100.621094 183.648438 105.621094 C 182.015625 113.59375 180.382812 121.570312 178.75 129.542969 C 178.375 131.378906 178 133.214844 177.625 135.046875 L 178.574219 134.796875 C 175.199219 130.988281 171.824219 127.179688 168.449219 123.371094 C 163.066406 117.296875 157.6875 111.222656 152.304688 105.148438 C 151.066406 103.75 149.828125 102.351562 148.585938 100.953125 C 148.214844 100.53125 147.460938 100.972656 147.636719 101.503906 C 149.25 106.339844 150.863281 111.175781 152.476562 116.007812 C 155.046875 123.71875 157.617188 131.429688 160.191406 139.136719 C 160.78125 140.914062 161.375 142.6875 161.964844 144.464844 L 162.664062 143.765625 C 157.835938 142.148438 153.007812 140.535156 148.179688 138.921875 L 125.078125 131.199219 C 123.304688 130.605469 121.53125 130.011719 119.757812 129.417969 C 119.226562 129.242188 118.785156 129.996094 119.203125 130.371094 C 123.007812 133.75 126.8125 137.128906 130.617188 140.503906 C 136.683594 145.894531 142.753906 151.28125 148.820312 156.667969 C 150.214844 157.910156 151.613281 159.152344 153.011719 160.390625 L 153.261719 159.441406 C 148.265625 160.464844 143.273438 161.492188 138.28125 162.515625 C 130.316406 164.148438 122.351562 165.785156 114.386719 167.417969 C 112.554688 167.792969 110.722656 168.171875 108.886719 168.546875 C 108.347656 168.660156 108.347656 169.53125 108.886719 169.644531 C 113.882812 170.667969 118.875 171.691406 123.867188 172.71875 C 131.832031 174.351562 139.796875 175.988281 147.761719 177.621094 C 149.59375 177.996094 151.425781 178.375 153.261719 178.75 L 153.011719 177.800781 C 149.207031 181.179688 145.402344 184.558594 141.597656 187.9375 C 135.53125 193.324219 129.460938 198.710938 123.394531 204.101562 C 122 205.339844 120.601562 206.582031 119.203125 207.820312 C 118.785156 208.195312 119.226562 208.949219 119.757812 208.773438 C 124.585938 207.15625 129.414062 205.542969 134.242188 203.929688 C 141.945312 201.355469 149.644531 198.777344 157.34375 196.203125 C 159.117188 195.613281 160.890625 195.019531 162.664062 194.425781 L 161.964844 193.726562 C 160.351562 198.5625 158.742188 203.398438 157.128906 208.230469 C 154.558594 215.941406 151.984375 223.652344 149.414062 231.363281 L 147.636719 236.6875 C 147.460938 237.21875 148.214844 237.660156 148.585938 237.242188 C 151.960938 233.429688 155.335938 229.621094 158.710938 225.8125 C 164.09375 219.738281 169.472656 213.664062 174.855469 207.589844 C 176.09375 206.191406 177.332031 204.792969 178.574219 203.394531 C 179.054688 202.847656 178.257812 202.042969 177.769531 202.589844 Z M 177.769531 202.589844 " fill-opacity="1" fill-rule="nonzero"/><path fill="#5285fb" d="M 182.925781 185.226562 L 168.714844 201.261719 L 175.523438 180.851562 L 155.140625 187.667969 L 171.15625 173.445312 L 149.972656 169.097656 L 171.15625 164.75 L 155.140625 150.523438 L 175.523438 157.339844 L 168.71875 136.929688 L 182.925781 152.96875 L 187.265625 131.757812 L 191.609375 152.96875 L 205.816406 136.929688 L 199.007812 157.339844 L 219.390625 150.523438 L 203.375 164.75 L 224.5625 169.097656 L 203.375 173.445312 L 219.394531 187.667969 L 199.007812 180.851562 L 205.816406 201.261719 L 191.609375 185.226562 L 187.265625 206.433594 Z M 182.925781 185.226562 " fill-opacity="1" fill-rule="nonzero"/><path fill="#000000" d="M 182.523438 184.824219 C 178.378906 189.503906 174.230469 194.183594 170.085938 198.863281 C 169.496094 199.53125 168.90625 200.195312 168.316406 200.863281 L 169.265625 201.414062 C 171.246094 195.46875 173.230469 189.523438 175.210938 183.582031 C 175.5 182.722656 175.785156 181.863281 176.070312 181.003906 C 176.203125 180.601562 175.773438 180.171875 175.371094 180.304688 C 169.4375 182.289062 163.5 184.273438 157.5625 186.257812 C 156.703125 186.546875 155.847656 186.832031 154.988281 187.121094 L 155.542969 188.070312 C 160.214844 183.917969 164.890625 179.769531 169.5625 175.617188 C 170.230469 175.027344 170.894531 174.4375 171.558594 173.847656 C 171.867188 173.570312 171.71875 172.980469 171.308594 172.894531 C 165.128906 171.628906 158.949219 170.359375 152.769531 169.089844 C 151.886719 168.910156 151.003906 168.730469 150.125 168.546875 L 150.125 169.644531 C 156.304688 168.375 162.484375 167.109375 168.664062 165.839844 C 169.546875 165.660156 170.425781 165.476562 171.308594 165.296875 C 171.71875 165.210938 171.867188 164.621094 171.558594 164.347656 C 166.882812 160.195312 162.210938 156.042969 157.535156 151.894531 C 156.871094 151.300781 156.207031 150.710938 155.542969 150.121094 L 154.988281 151.070312 C 160.925781 153.054688 166.863281 155.042969 172.800781 157.027344 C 173.65625 157.3125 174.515625 157.597656 175.371094 157.886719 C 175.773438 158.019531 176.207031 157.589844 176.070312 157.1875 C 174.089844 151.242188 172.105469 145.300781 170.125 139.355469 C 169.835938 138.496094 169.550781 137.636719 169.265625 136.777344 L 168.316406 137.332031 C 172.460938 142.011719 176.609375 146.691406 180.753906 151.371094 L 182.523438 153.367188 C 182.796875 153.679688 183.386719 153.527344 183.472656 153.117188 C 184.738281 146.929688 186.003906 140.742188 187.273438 134.558594 C 187.453125 133.675781 187.632812 132.792969 187.8125 131.910156 L 186.71875 131.910156 C 187.984375 138.09375 189.253906 144.28125 190.519531 150.46875 C 190.699219 151.351562 190.878906 152.234375 191.0625 153.117188 C 191.144531 153.527344 191.734375 153.679688 192.007812 153.367188 C 196.15625 148.6875 200.300781 144.007812 204.449219 139.328125 L 206.21875 137.332031 L 205.269531 136.777344 C 203.285156 142.722656 201.304688 148.667969 199.320312 154.613281 C 199.035156 155.46875 198.75 156.328125 198.460938 157.1875 C 198.328125 157.589844 198.757812 158.019531 199.160156 157.886719 C 205.097656 155.902344 211.035156 153.917969 216.972656 151.933594 C 217.828125 151.644531 218.6875 151.359375 219.542969 151.074219 L 218.992188 150.121094 C 214.316406 154.273438 209.640625 158.425781 204.96875 162.574219 C 204.304688 163.164062 203.636719 163.757812 202.972656 164.347656 C 202.664062 164.621094 202.816406 165.210938 203.222656 165.296875 C 209.40625 166.566406 215.585938 167.832031 221.765625 169.101562 C 222.644531 169.28125 223.527344 169.464844 224.410156 169.644531 L 224.410156 168.546875 C 218.230469 169.816406 212.050781 171.085938 205.871094 172.355469 C 204.988281 172.535156 204.105469 172.714844 203.226562 172.898438 C 202.816406 172.980469 202.664062 173.570312 202.976562 173.847656 C 207.648438 177.996094 212.324219 182.148438 216.996094 186.300781 C 217.660156 186.890625 218.328125 187.480469 218.992188 188.070312 L 219.542969 187.121094 C 213.605469 185.136719 207.667969 183.152344 201.734375 181.164062 C 200.875 180.878906 200.019531 180.59375 199.160156 180.304688 C 198.757812 180.171875 198.328125 180.601562 198.460938 181.003906 C 200.445312 186.949219 202.425781 192.894531 204.410156 198.839844 C 204.695312 199.695312 204.980469 200.554688 205.269531 201.414062 L 206.21875 200.859375 C 202.070312 196.179688 197.925781 191.5 193.78125 186.820312 C 193.191406 186.15625 192.601562 185.488281 192.011719 184.824219 C 191.734375 184.515625 191.144531 184.664062 191.0625 185.074219 C 189.792969 191.261719 188.527344 197.449219 187.261719 203.636719 C 187.082031 204.519531 186.898438 205.402344 186.71875 206.285156 L 187.8125 206.285156 C 186.546875 200.097656 185.28125 193.910156 184.015625 187.722656 C 183.832031 186.839844 183.652344 185.957031 183.472656 185.074219 C 183.324219 184.359375 182.230469 184.660156 182.378906 185.378906 C 183.644531 191.5625 184.910156 197.75 186.175781 203.9375 C 186.359375 204.820312 186.539062 205.703125 186.71875 206.585938 C 186.832031 207.128906 187.703125 207.128906 187.8125 206.585938 C 189.082031 200.398438 190.347656 194.210938 191.613281 188.027344 C 191.796875 187.144531 191.976562 186.261719 192.15625 185.378906 L 191.207031 185.628906 C 195.351562 190.308594 199.5 194.988281 203.644531 199.667969 C 204.234375 200.332031 204.824219 201 205.414062 201.664062 C 205.789062 202.085938 206.542969 201.644531 206.363281 201.113281 C 204.382812 195.167969 202.398438 189.222656 200.414062 183.277344 C 200.128906 182.417969 199.84375 181.558594 199.558594 180.703125 L 198.859375 181.402344 C 204.796875 183.386719 210.734375 185.371094 216.667969 187.355469 C 217.527344 187.644531 218.382812 187.929688 219.242188 188.214844 C 219.773438 188.394531 220.214844 187.640625 219.792969 187.265625 C 215.121094 183.117188 210.445312 178.964844 205.773438 174.8125 C 205.109375 174.222656 204.445312 173.632812 203.777344 173.042969 L 203.527344 173.992188 C 209.707031 172.722656 215.886719 171.457031 222.066406 170.1875 C 222.949219 170.007812 223.832031 169.824219 224.710938 169.644531 C 225.253906 169.53125 225.253906 168.660156 224.710938 168.546875 C 218.53125 167.28125 212.351562 166.011719 206.171875 164.742188 C 205.289062 164.5625 204.410156 164.382812 203.527344 164.199219 L 203.777344 165.148438 C 208.453125 161 213.125 156.847656 217.800781 152.695312 C 218.464844 152.105469 219.128906 151.515625 219.792969 150.925781 C 220.214844 150.550781 219.773438 149.796875 219.242188 149.976562 C 213.304688 151.960938 207.367188 153.945312 201.429688 155.929688 C 200.574219 156.21875 199.714844 156.503906 198.859375 156.789062 L 199.558594 157.488281 C 201.539062 151.542969 203.523438 145.601562 205.503906 139.65625 C 205.792969 138.796875 206.078125 137.9375 206.363281 137.078125 C 206.542969 136.546875 205.789062 136.105469 205.414062 136.527344 C 201.269531 141.207031 197.121094 145.886719 192.976562 150.566406 C 192.386719 151.234375 191.796875 151.898438 191.207031 152.5625 L 192.15625 152.816406 C 190.890625 146.628906 189.621094 140.441406 188.355469 134.253906 C 188.175781 133.371094 187.992188 132.488281 187.8125 131.605469 C 187.703125 131.0625 186.828125 131.0625 186.71875 131.605469 C 185.453125 137.792969 184.183594 143.980469 182.917969 150.167969 C 182.738281 151.050781 182.558594 151.933594 182.375 152.816406 L 183.324219 152.5625 C 179.179688 147.882812 175.035156 143.203125 170.886719 138.523438 L 169.117188 136.527344 C 168.746094 136.105469 167.992188 136.550781 168.171875 137.082031 C 170.152344 143.023438 172.132812 148.96875 174.117188 154.914062 C 174.402344 155.773438 174.691406 156.628906 174.976562 157.488281 L 175.675781 156.789062 C 169.738281 154.804688 163.800781 152.820312 157.863281 150.835938 C 157.003906 150.546875 156.148438 150.261719 155.289062 149.976562 C 154.761719 149.796875 154.316406 150.550781 154.738281 150.925781 C 159.414062 155.074219 164.085938 159.226562 168.761719 163.378906 C 169.425781 163.96875 170.089844 164.558594 170.753906 165.148438 L 171.007812 164.199219 C 164.824219 165.46875 158.644531 166.734375 152.464844 168.003906 L 149.820312 168.546875 C 149.28125 168.660156 149.277344 169.53125 149.820312 169.644531 C 156 170.914062 162.179688 172.179688 168.359375 173.449219 C 169.242188 173.628906 170.125 173.8125 171.007812 173.992188 L 170.753906 173.042969 C 166.082031 177.191406 161.40625 181.34375 156.734375 185.496094 C 156.070312 186.085938 155.402344 186.675781 154.738281 187.265625 C 154.320312 187.636719 154.761719 188.394531 155.292969 188.214844 C 161.226562 186.230469 167.164062 184.246094 173.101562 182.261719 C 173.960938 181.972656 174.816406 181.6875 175.675781 181.402344 L 174.976562 180.703125 C 172.992188 186.648438 171.011719 192.589844 169.027344 198.535156 C 168.742188 199.394531 168.457031 200.253906 168.167969 201.113281 C 167.992188 201.644531 168.746094 202.085938 169.117188 201.664062 C 173.265625 196.984375 177.410156 192.304688 181.558594 187.625 C 182.148438 186.960938 182.734375 186.292969 183.324219 185.628906 C 183.808594 185.082031 183.007812 184.273438 182.523438 184.824219 Z M 182.523438 184.824219 " fill-opacity="1" fill-rule="nonzero"/><path fill="#ffffff" d="M 106.175781 163.144531 C 117.714844 151.226562 129.84375 135.980469 148.207031 137.804688 C 157.25 138.703125 161.746094 147.867188 157.195312 155.933594 C 157.421875 155.527344 162.121094 157.644531 162.65625 157.941406 C 164.433594 158.925781 166.378906 160.425781 167.171875 162.375 C 168.789062 166.34375 167.363281 172.511719 165.003906 175.929688 C 168.1875 175.140625 171.632812 177.035156 173.3125 179.859375 C 174.992188 182.679688 175.140625 186.203125 174.464844 189.417969 C 171.429688 203.902344 149.644531 213.480469 136.863281 216.15625 C 129.222656 217.753906 117.6875 220.835938 111.382812 214.632812 C 103.003906 206.390625 97.242188 192.917969 92.332031 182.390625 " fill-opacity="1" fill-rule="nonzero"/><path fill="#000000" d="M 106.578125 163.542969 C 113.40625 156.484375 119.910156 148.757812 128.304688 143.476562 C 132.441406 140.875 137.050781 138.964844 141.933594 138.410156 C 146.59375 137.878906 151.839844 138.136719 155.324219 141.671875 C 159.050781 145.449219 159.183594 151.164062 156.703125 155.644531 C 156.398438 156.203125 157.136719 156.808594 157.597656 156.335938 C 157.417969 156.515625 157.292969 156.402344 157.507812 156.472656 C 157.628906 156.511719 157.761719 156.535156 157.882812 156.570312 C 158.238281 156.675781 158.582031 156.804688 158.929688 156.933594 C 159.75 157.246094 160.558594 157.59375 161.359375 157.953125 C 163.1875 158.78125 165.027344 159.929688 166.144531 161.644531 C 167.480469 163.691406 167.464844 166.457031 167.101562 168.789062 C 166.726562 171.210938 165.886719 173.605469 164.511719 175.644531 C 164.21875 176.078125 164.703125 176.578125 165.152344 176.476562 C 167.492188 175.953125 169.875 176.886719 171.550781 178.535156 C 173.429688 180.378906 174.214844 183.023438 174.269531 185.605469 C 174.355469 189.582031 172.878906 193.359375 170.605469 196.566406 C 166.125 202.875 159.058594 207.183594 152.160156 210.382812 C 145.445312 213.5 138.414062 215.367188 131.171875 216.769531 C 127.070312 217.5625 122.734375 218.210938 118.574219 217.484375 C 116.585938 217.140625 114.652344 216.457031 113.011719 215.269531 C 111.214844 213.976562 109.722656 212.117188 108.347656 210.402344 C 101.597656 201.980469 97.347656 191.8125 92.820312 182.105469 C 92.511719 181.441406 91.535156 182.019531 91.839844 182.675781 C 96.152344 191.925781 100.222656 201.484375 106.375 209.695312 C 109.03125 213.238281 111.941406 216.796875 116.320312 218.125 C 120.488281 219.386719 125.019531 218.960938 129.253906 218.265625 C 137.058594 216.980469 144.714844 214.980469 151.941406 211.726562 C 159.289062 208.421875 166.746094 203.890625 171.519531 197.230469 C 173.851562 193.976562 175.363281 190.125 175.40625 186.085938 C 175.457031 181.359375 172.953125 176.320312 167.957031 175.332031 C 166.917969 175.128906 165.882812 175.148438 164.851562 175.382812 L 165.492188 176.214844 C 167.050781 173.90625 167.957031 171.136719 168.296875 168.378906 C 168.628906 165.71875 168.441406 162.730469 166.738281 160.535156 C 165.332031 158.726562 163.34375 157.582031 161.28125 156.683594 C 160.359375 156.28125 159.433594 155.882812 158.476562 155.566406 C 157.996094 155.410156 157.21875 155.09375 156.792969 155.53125 L 157.683594 156.21875 C 159.925781 152.164062 160.289062 147.175781 157.859375 143.109375 C 156.738281 141.230469 155.085938 139.679688 153.148438 138.667969 C 150.898438 137.5 148.425781 137.152344 145.917969 137.09375 C 135.136719 136.839844 125.96875 142.800781 118.347656 149.878906 C 113.953125 153.964844 109.941406 158.433594 105.773438 162.742188 C 105.265625 163.265625 106.066406 164.070312 106.578125 163.546875 Z M 106.578125 163.542969 " fill-opacity="1" fill-rule="nonzero"/><path fill="#ffffff" d="M 89.425781 185.675781 C 80.652344 172.332031 90.554688 153.15625 102.8125 145.464844 C 103.40625 145.089844 104.003906 144.746094 104.605469 144.429688 C 122.574219 134.988281 133.339844 155.632812 137.140625 170.472656 C 137.8125 173.089844 138.359375 175.792969 138.097656 178.480469 C 137.835938 181.171875 136.664062 183.878906 134.476562 185.460938 C 126.714844 191.066406 119.234375 181.460938 115.582031 175.785156 " fill-opacity="1" fill-rule="nonzero"/><path fill="#000000" d="M 89.914062 185.390625 C 84.816406 177.519531 86.335938 167.652344 90.5625 159.757812 C 92.734375 155.707031 95.617188 152.019531 99.066406 148.980469 C 102.441406 146.007812 106.527344 143.527344 111.019531 142.800781 C 118.929688 141.519531 125.25 147.082031 129.28125 153.289062 C 131.515625 156.730469 133.261719 160.484375 134.65625 164.339844 C 135.304688 166.132812 135.878906 167.957031 136.378906 169.796875 C 137.136719 172.609375 137.828125 175.550781 137.53125 178.480469 C 137.261719 181.109375 136.082031 183.722656 133.832031 185.214844 C 131.949219 186.464844 129.761719 186.910156 127.570312 186.300781 C 123.378906 185.144531 120.164062 181.304688 117.71875 177.917969 C 117.148438 177.125 116.601562 176.316406 116.074219 175.496094 C 115.675781 174.886719 114.691406 175.453125 115.089844 176.070312 C 117.53125 179.847656 120.425781 183.734375 124.332031 186.097656 C 126.136719 187.191406 128.234375 187.898438 130.367188 187.683594 C 132.691406 187.453125 134.964844 186.203125 136.417969 184.371094 C 140.042969 179.796875 138.648438 173.566406 137.179688 168.449219 C 135.996094 164.316406 134.4375 160.269531 132.445312 156.460938 C 128.816406 149.539062 123.015625 142.242188 114.648438 141.527344 C 105.199219 140.722656 96.675781 148.355469 91.726562 155.648438 C 86.472656 163.386719 83.386719 173.777344 87.226562 182.769531 C 87.703125 183.886719 88.273438 184.945312 88.933594 185.964844 C 89.332031 186.574219 90.3125 186.007812 89.914062 185.390625 Z M 89.914062 185.390625 " fill-opacity="1" fill-rule="nonzero"/><path fill="#ffffff" d="M 93.339844 171.164062 C 92.710938 170.574219 92.070312 170.003906 91.417969 169.445312 C 88.949219 167.339844 86.234375 165.679688 82.882812 166.136719 C 75.640625 167.125 68.34375 175.167969 70.789062 182.675781 C 72.960938 189.332031 87.449219 220.105469 93.5625 227.222656 C 94.460938 228.269531 95.417969 229.285156 96.570312 230.042969 C 103.121094 234.347656 114.234375 229.179688 115.9375 221.929688 C 116.800781 218.25 116.183594 214.394531 115.292969 210.722656 C 111.800781 196.300781 104.339844 181.441406 93.339844 171.164062 Z M 93.339844 171.164062 " fill-opacity="1" fill-rule="nonzero"/><path fill="#000000" d="M 93.742188 170.761719 C 91.261719 168.460938 88.496094 165.96875 84.996094 165.554688 C 81.957031 165.195312 78.792969 166.492188 76.347656 168.21875 C 71.671875 171.527344 68.386719 177.394531 70.347656 183.140625 C 71.460938 186.402344 72.933594 189.566406 74.351562 192.707031 C 76.5 197.460938 78.753906 202.171875 81.09375 206.839844 C 83.382812 211.410156 85.746094 215.953125 88.324219 220.371094 C 90.359375 223.859375 92.570312 227.828125 95.890625 230.257812 C 100.257812 233.453125 106.464844 232.300781 110.734375 229.535156 C 112.871094 228.152344 114.773438 226.253906 115.84375 223.914062 C 117.308594 220.710938 117.066406 216.914062 116.46875 213.527344 C 115.210938 206.367188 112.625 199.292969 109.484375 192.757812 C 106.320312 186.164062 102.320312 179.933594 97.414062 174.503906 C 96.242188 173.203125 95.015625 171.957031 93.742188 170.761719 C 93.207031 170.261719 92.402344 171.0625 92.9375 171.566406 C 102.972656 180.988281 109.785156 193.613281 113.640625 206.746094 C 115.382812 212.679688 117.746094 220.605469 113.238281 225.875 C 110.019531 229.640625 104.320312 232.011719 99.414062 230.691406 C 95.296875 229.582031 92.785156 225.503906 90.667969 222.074219 C 88.292969 218.222656 86.152344 214.21875 84.074219 210.199219 C 79.933594 202.195312 75.949219 194.042969 72.539062 185.699219 C 72.046875 184.492188 71.519531 183.269531 71.183594 182.007812 C 70.40625 179.097656 71.1875 176.0625 72.761719 173.5625 C 74.355469 171.03125 76.746094 168.964844 79.464844 167.726562 C 82.59375 166.308594 85.777344 166.300781 88.730469 168.144531 C 90.265625 169.101562 91.617188 170.339844 92.9375 171.566406 C 93.472656 172.0625 94.277344 171.261719 93.742188 170.761719 Z M 93.742188 170.761719 " fill-opacity="1" fill-rule="nonzero"/><path fill="#000000" d="M 165.316406 175.339844 C 160.546875 176.414062 156 178.246094 151.601562 180.363281 C 149.335938 181.453125 147.105469 182.613281 144.890625 183.796875 C 143.035156 184.792969 141.183594 185.855469 139.628906 187.289062 C 136.96875 189.738281 135.238281 193.863281 137.09375 197.304688 C 138.972656 200.796875 143.410156 200.832031 146.804688 200.140625 C 152.066406 199.066406 157.167969 196.824219 161.695312 193.957031 C 162.308594 193.566406 161.742188 192.582031 161.121094 192.976562 C 157.433594 195.308594 153.453125 197.128906 149.261719 198.34375 C 146.0625 199.269531 141.367188 200.492188 138.738281 197.667969 C 135.953125 194.679688 138.082031 190.15625 140.65625 187.890625 C 142.171875 186.558594 143.964844 185.578125 145.734375 184.632812 C 147.660156 183.609375 149.59375 182.601562 151.550781 181.644531 C 156.058594 179.445312 160.714844 177.539062 165.617188 176.4375 C 166.332031 176.277344 166.027344 175.179688 165.316406 175.339844 Z M 165.316406 175.339844 " fill-opacity="1" fill-rule="nonzero"/><path fill="#000000" d="M 157.394531 155.394531 C 151.257812 155.882812 145.3125 157.777344 140.035156 160.957031 C 139.410156 161.335938 139.980469 162.320312 140.609375 161.941406 C 145.710938 158.867188 151.457031 157.003906 157.394531 156.53125 C 158.117188 156.476562 158.125 155.335938 157.394531 155.394531 Z M 157.394531 155.394531 " fill-opacity="1" fill-rule="nonzero"/><path fill="#000000" d="M 130.433594 187.457031 C 131.582031 190.390625 134.855469 192.164062 137.933594 191.46875 C 138.648438 191.308594 138.34375 190.210938 137.632812 190.371094 C 135.203125 190.921875 132.441406 189.492188 131.53125 187.15625 C 131.417969 186.871094 131.148438 186.671875 130.832031 186.757812 C 130.558594 186.835938 130.320312 187.171875 130.433594 187.457031 Z M 130.433594 187.457031 " fill-opacity="1" fill-rule="nonzero"/><path fill="#ffffff" d="M 274.402344 182.53125 C 267.980469 191.386719 260.25 202.816406 251.035156 208.941406 C 244.097656 213.550781 233.980469 208.640625 227.195312 205.792969 C 215.855469 201.035156 197.414062 188.28125 197.191406 174.347656 C 197.140625 171.25 197.90625 168.023438 199.960938 165.710938 C 202.464844 162.898438 204.300781 163.683594 207.8125 163.257812 C 194.4375 153.621094 171.105469 137.800781 170.3125 130.289062 C 168.90625 117.023438 181.214844 119.890625 189.121094 123.546875 C 197.554688 127.441406 224.46875 146.648438 226.789062 148.136719 C 223.328125 142.886719 215.859375 131.542969 212.398438 126.292969 C 208.648438 120.605469 194.546875 98.511719 203.332031 92.25 C 205.203125 90.917969 207.753906 90.839844 209.941406 91.542969 C 212.128906 92.25 214.019531 93.652344 215.792969 95.117188 C 225.890625 103.457031 234.273438 117.914062 241.300781 128.730469 C 241.839844 129.554688 242.390625 130.398438 243.1875 130.976562 C 244.171875 131.695312 245.414062 131.929688 246.589844 132.25 C 250.777344 133.386719 257.761719 137.699219 260.507812 141.066406 " fill-opacity="1" fill-rule="nonzero"/><path fill="#000000" d="M 273.910156 182.242188 C 268.71875 189.414062 263.675781 196.804688 257.324219 203.019531 C 254.433594 205.847656 251.007812 209.183594 246.917969 210.011719 C 242.839844 210.839844 238.546875 209.628906 234.722656 208.25 C 227.949219 205.8125 221.378906 202.710938 215.433594 198.632812 C 209.332031 194.445312 203.324219 189.183594 199.925781 182.484375 C 198.082031 178.839844 197.183594 174.648438 198.140625 170.609375 C 198.679688 168.332031 199.929688 165.886719 202.039062 164.691406 C 203.738281 163.730469 205.941406 164.039062 207.8125 163.828125 C 208.382812 163.765625 208.574219 163.109375 208.101562 162.769531 C 199.597656 156.644531 190.933594 150.710938 182.847656 144.03125 C 179.476562 141.242188 176.066406 138.324219 173.324219 134.894531 C 172.4375 133.785156 171.546875 132.554688 171.097656 131.191406 C 170.519531 129.445312 170.632812 127.195312 171.113281 125.4375 C 173.246094 117.625 184.703125 121.984375 189.445312 124.328125 C 192.417969 125.796875 195.242188 127.59375 198.039062 129.367188 C 201.777344 131.738281 205.460938 134.191406 209.128906 136.671875 C 214.742188 140.46875 220.269531 144.386719 225.871094 148.207031 C 226.078125 148.347656 226.289062 148.492188 226.503906 148.628906 C 226.972656 148.933594 227.589844 148.324219 227.277344 147.851562 C 222.394531 140.441406 217.496094 133.039062 212.632812 125.613281 C 208.710938 119.628906 204.976562 113.300781 202.636719 106.507812 C 201.542969 103.324219 200.492188 99.589844 201.347656 96.222656 C 201.691406 94.867188 202.417969 93.628906 203.554688 92.789062 C 206.195312 90.835938 209.734375 91.722656 212.316406 93.277344 C 214.78125 94.757812 216.96875 96.78125 218.996094 98.808594 C 220.992188 100.804688 222.847656 102.933594 224.609375 105.132812 C 228.332031 109.773438 231.644531 114.734375 234.867188 119.730469 C 236.375 122.070312 237.863281 124.421875 239.363281 126.769531 C 240.753906 128.941406 241.9375 131.371094 244.523438 132.261719 C 245.695312 132.667969 246.910156 132.894531 248.074219 133.34375 C 249.21875 133.785156 250.324219 134.328125 251.402344 134.910156 C 253.675781 136.140625 255.878906 137.566406 257.855469 139.238281 C 258.660156 139.921875 259.429688 140.65625 260.105469 141.46875 C 260.574219 142.03125 261.371094 141.222656 260.910156 140.664062 C 259.378906 138.824219 257.410156 137.34375 255.433594 136.015625 C 253.316406 134.597656 251.066406 133.335938 248.703125 132.378906 C 247.574219 131.921875 246.421875 131.652344 245.261719 131.304688 C 243.511719 130.78125 242.605469 129.691406 241.644531 128.210938 C 240.109375 125.84375 238.605469 123.460938 237.085938 121.085938 C 233.808594 115.957031 230.46875 110.855469 226.75 106.03125 C 223.242188 101.480469 219.386719 97.082031 214.792969 93.597656 C 212.453125 91.824219 209.6875 90.355469 206.667969 90.554688 C 204.597656 90.6875 202.6875 91.636719 201.453125 93.316406 C 199.5 95.976562 199.75 99.625 200.382812 102.683594 C 201.214844 106.691406 202.875 110.527344 204.683594 114.179688 C 206.367188 117.578125 208.265625 120.867188 210.289062 124.070312 C 214.953125 131.46875 219.894531 138.707031 224.707031 146.007812 C 225.238281 146.8125 225.769531 147.621094 226.296875 148.425781 L 227.074219 147.648438 C 221.800781 144.242188 216.738281 140.472656 211.546875 136.941406 C 207.730469 134.34375 203.894531 131.773438 200.007812 129.277344 C 196.945312 127.308594 193.855469 125.332031 190.621094 123.652344 C 187.386719 121.976562 183.820312 120.640625 180.203125 120.117188 C 176.949219 119.644531 173.113281 119.898438 171.058594 122.839844 C 169.925781 124.457031 169.617188 126.535156 169.636719 128.46875 C 169.652344 130.152344 169.898438 131.601562 170.710938 133.078125 C 172.597656 136.503906 175.71875 139.3125 178.597656 141.882812 C 186.730469 149.132812 195.769531 155.34375 204.617188 161.664062 C 205.589844 162.359375 206.558594 163.054688 207.527344 163.75 L 207.816406 162.691406 C 206.066406 162.886719 204.15625 162.691406 202.46875 163.265625 C 200.632812 163.886719 199.199219 165.457031 198.269531 167.117188 C 196.320312 170.609375 196.234375 174.976562 197.265625 178.769531 C 199.296875 186.210938 205.207031 192.226562 211.101562 196.855469 C 214.191406 199.277344 217.472656 201.449219 220.90625 203.347656 C 224.140625 205.140625 227.53125 206.578125 230.941406 207.988281 C 234.949219 209.648438 239.175781 211.21875 243.554688 211.386719 C 245.582031 211.464844 247.632812 211.191406 249.511719 210.394531 C 251.417969 209.589844 253.089844 208.234375 254.679688 206.929688 C 262.816406 200.25 268.769531 191.269531 274.890625 182.816406 C 275.320312 182.222656 274.335938 181.65625 273.910156 182.242188 Z M 273.910156 182.242188 " fill-opacity="1" fill-rule="nonzero"/><path fill="#ffffff" d="M 276.394531 185.90625 C 286.886719 175.132812 281.148438 155.628906 271.183594 146.324219 C 270.703125 145.871094 270.210938 145.445312 269.707031 145.046875 C 254.777344 133.101562 241.140625 150.269531 234.976562 163.316406 C 233.886719 165.617188 232.902344 168.015625 232.664062 170.550781 C 232.425781 173.085938 233.027344 175.796875 234.769531 177.652344 C 240.945312 184.222656 249.578125 176.675781 253.96875 172.082031 " fill-opacity="1" fill-rule="nonzero"/><path fill="#000000" d="M 276.796875 186.308594 C 282.828125 180.03125 283.578125 170.878906 281.410156 162.78125 C 279.207031 154.554688 273.890625 145.738281 265.949219 141.988281 C 262.285156 140.261719 258.203125 139.988281 254.367188 141.316406 C 250.40625 142.6875 247.019531 145.394531 244.175781 148.417969 C 241.128906 151.664062 238.574219 155.382812 236.414062 159.273438 C 234.054688 163.515625 231.382812 168.488281 232.207031 173.5 C 232.9375 177.925781 236.914062 181.265625 241.4375 180.726562 C 245.609375 180.234375 249.269531 177.355469 252.246094 174.582031 C 252.976562 173.90625 253.679688 173.203125 254.367188 172.484375 C 254.875 171.953125 254.074219 171.148438 253.566406 171.679688 C 250.851562 174.511719 247.765625 177.363281 244.082031 178.859375 C 242.351562 179.558594 240.425781 179.925781 238.59375 179.417969 C 236.34375 178.796875 234.457031 176.957031 233.695312 174.765625 C 232.058594 170.046875 234.613281 165.0625 236.789062 160.964844 C 238.738281 157.285156 241.027344 153.753906 243.746094 150.597656 C 248.648438 144.898438 255.847656 139.695312 263.699219 142.300781 C 267.804688 143.664062 271.210938 146.722656 273.847656 150.070312 C 276.296875 153.183594 278.210938 156.753906 279.515625 160.492188 C 282.421875 168.800781 282.425781 178.808594 275.992188 185.503906 C 275.484375 186.03125 276.285156 186.835938 276.796875 186.308594 Z M 276.796875 186.308594 " fill-opacity="1" fill-rule="nonzero"/><path fill="#ffffff" d="M 275.359375 171.785156 C 276.046875 171.351562 276.742188 170.9375 277.445312 170.539062 C 280.101562 169.03125 282.910156 167.984375 285.929688 169.003906 C 292.449219 171.210938 297.761719 179.957031 294.160156 186.460938 C 290.96875 192.226562 272.082031 218.097656 265.15625 223.585938 C 264.140625 224.394531 263.074219 225.164062 261.875 225.65625 C 255.046875 228.46875 245.691406 221.703125 245.410156 214.691406 C 245.265625 211.136719 246.527344 207.679688 248.003906 204.441406 C 253.804688 191.730469 263.355469 179.320312 275.359375 171.785156 Z M 275.359375 171.785156 " fill-opacity="1" fill-rule="nonzero"/><path fill="#000000" d="M 275.648438 172.273438 C 278.601562 170.429688 282.011719 168.378906 285.609375 169.5 C 288.09375 170.277344 290.261719 172.027344 291.847656 174.058594 C 293.496094 176.164062 294.65625 178.785156 294.75 181.484375 C 294.824219 183.515625 294.207031 185.320312 293.167969 187.035156 C 289.15625 193.667969 284.355469 199.90625 279.644531 206.050781 C 276.886719 209.648438 274.066406 213.207031 271.105469 216.644531 C 268.925781 219.171875 266.683594 221.816406 263.964844 223.785156 C 261.628906 225.480469 259.027344 226.121094 256.195312 225.480469 C 253.652344 224.90625 251.300781 223.523438 249.457031 221.691406 C 247.695312 219.945312 246.257812 217.660156 246.007812 215.144531 C 245.648438 211.554688 247.03125 207.933594 248.492188 204.730469 C 253.746094 193.203125 261.644531 182.480469 271.847656 174.878906 C 273.078125 173.960938 274.347656 173.09375 275.644531 172.273438 C 276.261719 171.886719 275.695312 170.902344 275.074219 171.292969 C 263.640625 178.515625 254.753906 189.523438 248.753906 201.554688 C 246.023438 207.03125 242.921875 213.867188 246.425781 219.6875 C 249.046875 224.035156 254.410156 227.40625 259.597656 226.8125 C 263.8125 226.328125 267.007812 222.886719 269.730469 219.90625 C 272.851562 216.492188 275.761719 212.875 278.609375 209.226562 C 283.921875 202.429688 289.234375 195.492188 293.808594 188.164062 C 294.777344 186.609375 295.574219 185.03125 295.808594 183.183594 C 296.144531 180.523438 295.429688 177.824219 294.152344 175.496094 C 292.851562 173.128906 290.921875 171.054688 288.617188 169.648438 C 285.820312 167.941406 282.761719 167.605469 279.695312 168.8125 C 278.066406 169.457031 276.554688 170.367188 275.074219 171.292969 C 274.453125 171.679688 275.023438 172.664062 275.644531 172.273438 Z M 275.648438 172.273438 " fill-opacity="1" fill-rule="nonzero"/><path fill="#000000" d="M 234.613281 178.097656 C 233.707031 182.351562 229 182.824219 225.382812 182.863281 C 219.417969 182.929688 213.425781 182.546875 207.496094 181.933594 C 206.773438 181.859375 206.777344 182.996094 207.496094 183.070312 C 213.757812 183.714844 220.160156 184.226562 226.457031 183.972656 C 230.339844 183.820312 234.777344 182.773438 235.710938 178.402344 C 235.863281 177.6875 234.765625 177.382812 234.613281 178.097656 Z M 234.613281 178.097656 " fill-opacity="1" fill-rule="nonzero"/><path fill="#000000" d="M 206.90625 163.566406 C 211.78125 164.328125 216.613281 165.242188 221.386719 166.503906 C 225.257812 167.53125 229.351562 168.433594 232.109375 171.582031 C 232.59375 172.132812 233.394531 171.324219 232.914062 170.777344 C 230.160156 167.636719 226.140625 166.574219 222.253906 165.558594 C 217.285156 164.257812 212.28125 163.261719 207.210938 162.46875 C 206.496094 162.355469 206.1875 163.453125 206.90625 163.566406 Z M 206.90625 163.566406 " fill-opacity="1" fill-rule="nonzero"/></svg>