<?xml version="1.0" standalone="yes"?>
<svg width="563" height="576">
<path style="fill:#f6f6f6; stroke:none;" d="M0 0L0 576L563 576L563 0L0 0z"/>
<path style="fill:#c6c6c6; stroke:none;" d="M256 8L256 9L264 9L256 8z"/>
<path style="fill:#404042; stroke:none;" d="M56 452L59 448L61 455L62 455L64 430L67 432C69.1255 424.527 63.7324 419.228 60.3117 413C52.8607 399.433 46.935 385.308 41.1443 371C27.6599 337.681 24.7294 297.41 28.1698 262C40.6369 133.682 161.312 24.1398 292 33.0895C325.439 35.3794 357.39 43.2192 388 56.8611C401.799 63.0108 416.496 77.1151 431 80L431 79L429 78L431 76L422 74L424 66L418 65L417 68L416 68C419.098 62.381 426.355 64 432 64L432 72L440 72C440.095 63.9328 442.846 62.8613 450 65C442.585 55.393 428.42 49.0953 418 43.1505C385.188 24.4297 347.474 13.4567 310 9.83026C180.784 -2.67413 59.2765 74.8786 16.3835 198C4.52429 232.041 1.39838 268.322 2.96065 304C4.66849 343.002 15.2607 381.105 32.7531 416C38.6135 427.691 45.4902 443.889 56 452z"/>
<path style="fill:#8b8b8b; stroke:none;" d="M293 8L293 9L299 9L293 8z"/>
<path style="fill:#c4c4c4; stroke:none;" d="M299 8L299 9L307 9L299 8z"/>
<path style="fill:#939393; stroke:none;" d="M307 9L307 10L312 10L307 9z"/>
<path style="fill:#ababab; stroke:none;" d="M242 10L242 11L245 11L242 10z"/>
<path style="fill:#b9b9b9; stroke:none;" d="M318 10L318 11L323 11L318 10z"/>
<path style="fill:#ababab; stroke:none;" d="M235 11L235 12L238 12L235 11z"/>
<path style="fill:#767676; stroke:none;" d="M323 11L323 12L326 12L323 11z"/>
<path style="fill:#ababab; stroke:none;" d="M229 12L229 13L232 13L229 12z"/>
<path style="fill:#8c8c8c; stroke:none;" d="M330 12L330 13L333 13L330 12z"/>
<path style="fill:#b0b0b0; stroke:none;" d="M224.667 13.3333L225.333 13.6667L224.667 13.3333z"/>
<path style="fill:#939393; stroke:none;" d="M336.667 13.3333L337.333 13.6667L336.667 13.3333z"/>
<path style="fill:#848484; stroke:none;" d="M340.667 14.3333L341.333 14.6667L340.667 14.3333z"/>
<path style="fill:#bfbfbf; stroke:none;" d="M342.667 14.3333L343.333 14.6667L342.667 14.3333z"/>
<path style="fill:#8e8e8e; stroke:none;" d="M216.667 15.3333L217.333 15.6667L216.667 15.3333z"/>
<path style="fill:#9f9f9f; stroke:none;" d="M345 15L345 16L348 16L345 15z"/>
<path style="fill:#b6b6b8; stroke:none;" d="M211.667 16.3333L212.333 16.6667L211.667 16.3333z"/>
<path style="fill:#949496; stroke:none;" d="M349.667 16.3333L350.333 16.6667L349.667 16.3333z"/>
<path style="fill:#98989a; stroke:none;" d="M208.667 17.3333L209.333 17.6667L208.667 17.3333z"/>
<path style="fill:#9a9a9c; stroke:none;" d="M353.667 17.3333L354.333 17.6667L353.667 17.3333z"/>
<path style="fill:#ababad; stroke:none;" d="M357.667 18.3333L358.333 18.6667L357.667 18.3333z"/>
<path style="fill:#868688; stroke:none;" d="M201.667 19.3333L202.333 19.6667L201.667 19.3333z"/>
<path style="fill:#767678; stroke:none;" d="M198.667 20.3333L199.333 20.6667L198.667 20.3333z"/>
<path style="fill:#808082; stroke:none;" d="M363 20L363 21L366 21L363 20z"/>
<path style="fill:#757577; stroke:none;" d="M366.667 21.3333L367.333 21.6667L366.667 21.3333z"/>
<path style="fill:#afafaf; stroke:none;" d="M370.667 22.3333L371.333 22.6667L370.667 22.3333z"/>
<path style="fill:#b8b8b8; stroke:none;" d="M373.667 23.3333L374.333 23.6667L373.667 23.3333z"/>
<path style="fill:#7e7e7e; stroke:none;" d="M186.667 24.3333L187.333 24.6667L186.667 24.3333z"/>
<path style="fill:#b8b8b8; stroke:none;" d="M376.667 24.3333L377.333 24.6667L376.667 24.3333z"/>
<path style="fill:#7e7e7e; stroke:none;" d="M178.667 27.3333L179.333 27.6667L178.667 27.3333z"/>
<path style="fill:#afafaf; stroke:none;" d="M267 33L267 34L288 34L267 33z"/>
<path style="fill:#878787; stroke:none;" d="M288 33L288 34L296 34L288 33z"/>
<path style="fill:#b6b6b6; stroke:none;" d="M256 34L256 35L261 35L256 34z"/>
<path style="fill:#ffffff; stroke:none;" d="M261 34.4244C213.166 40.7822 170.671 54.1116 131 82.5587C106.135 100.389 85.2164 123.629 68.3333 149C-8.3849 264.289 28.174 426.611 143 501.921C194.993 536.021 258.843 547.95 320 539.711C354.959 535.002 390.684 521.535 420 502C458.786 476.155 489.944 441.848 510.731 400C562.586 295.606 532.671 164.008 443 90.6142C418.101 70.2348 389.57 55.2626 359 45.4954C328.753 35.8312 292.751 30.2042 261 34.4244z"/>
<path style="fill:#d3d3d3; stroke:none;" d="M298 34L298 35L307 35L298 34z"/>
<path style="fill:#c9c9c9; stroke:none;" d="M248 35L248 36L253 36L248 35z"/>
<path style="fill:#b5b5b5; stroke:none;" d="M312 35L312 36L315 36L312 35z"/>
<path style="fill:#a8a8a8; stroke:none;" d="M241.667 36.3333L242.333 36.6667L241.667 36.3333z"/>
<path style="fill:#8b8b8b; stroke:none;" d="M234 37L234 38L237 38L234 37z"/>
<path style="fill:#b6b6b6; stroke:none;" d="M325 37L325 38L328 38L325 37z"/>
<path style="fill:#797979; stroke:none;" d="M228.667 38.3333L229.333 38.6667L228.667 38.3333z"/>
<path style="fill:#aeaeae; stroke:none;" d="M230.667 38.3333L231.333 38.6667L230.667 38.3333z"/>
<path style="fill:#cbcbcb; stroke:none;" d="M330 38L330 39L333 39L330 38z"/>
<path style="fill:#808080; stroke:none;" d="M224.667 39.3333L225.333 39.6667L224.667 39.3333z"/>
<path style="fill:#a2a2a2; stroke:none;" d="M336.667 39.3333L337.333 39.6667L336.667 39.3333z"/>
<path style="fill:#b8b8ba; stroke:none;" d="M221 40L221 41L224 41L221 40z"/>
<path style="fill:#aaaaaa; stroke:none;" d="M340.667 40.3333L341.333 40.6667L340.667 40.3333z"/>
<path style="fill:#818183; stroke:none;" d="M216.667 41.3333L217.333 41.6667L216.667 41.3333z"/>
<path style="fill:#797979; stroke:none;" d="M345.667 41.3333L346.333 41.6667L345.667 41.3333z"/>
<path style="fill:#b8b8ba; stroke:none;" d="M213.667 42.3333L214.333 42.6667L213.667 42.3333z"/>
<path style="fill:#9c9c9e; stroke:none;" d="M209.667 43.3333L210.333 43.6667L209.667 43.3333z"/>
<path style="fill:#8a8a8c; stroke:none;" d="M352.667 43.3333L353.333 43.6667L352.667 43.3333z"/>
<path style="fill:#9c9c9c; stroke:none;" d="M143 44L144 45L143 44z"/>
<path style="fill:#9d9d9f; stroke:none;" d="M206.667 44.3333L207.333 44.6667L206.667 44.3333z"/>
<path style="fill:#acacae; stroke:none;" d="M358.667 45.3333L359.333 45.6667L358.667 45.3333z"/>
<path style="fill:#b3b3b5; stroke:none;" d="M200.667 46.3333L201.333 46.6667L200.667 46.3333z"/>
<path style="fill:#c4c4c4; stroke:none;" d="M192.667 49.3333L193.333 49.6667L192.667 49.3333z"/>
<path style="fill:#818181; stroke:none;" d="M370.667 49.3333L371.333 49.6667L370.667 49.3333z"/>
<path style="fill:#cacaca; stroke:none;" d="M182.667 53.3333L183.333 53.6667L182.667 53.3333z"/>
<path style="fill:#a3a3a3; stroke:none;" d="M439 56L440 57L439 56z"/>
<path style="fill:#414143; stroke:none;" d="M440 72L432 72L432 64C426.738 64 417.999 61.9769 416 68L417 68L418 65L424 66L422 74L431 76L429 79L431 79L431 80L429 81C449.396 92.7333 467.27 112.829 481.8 131C552.605 219.546 554.089 348.193 486.522 439C412.069 539.06 270.742 573.082 161 511.86C123.667 491.034 92.8894 462.412 69 427L68 427L67 432L64 430L62 455L61 455L59 448C51.838 452.813 61.0292 460.594 64.6111 465C75.5915 478.507 87.9928 490.524 101 502.05C149.31 544.859 212.451 565.178 276 567.961C299.186 568.976 323.4 565.416 346 560.424C505.789 525.131 600.673 348.176 546.208 195C532.116 155.371 509.63 120.355 480.424 90.1659C472.347 81.8178 463.053 72.3348 453 66.3889C445.059 61.6924 440.034 62.2733 440 72z"/>
<path style="fill:#88888a; stroke:none;" d="M109 67L110 68L109 67z"/>
<path style="fill:#9f9fa1; stroke:none;" d="M454 67L455 68L454 67z"/>
<path style="fill:#a3a3a5; stroke:none;" d="M105 70L106 71L105 70z"/>
<path style="fill:#a7a7a9; stroke:none;" d="M423 76L424 77L423 76z"/>
<path style="fill:#a8a8a8; stroke:none;" d="M134 80L135 81L134 80z"/>
<path style="fill:#99999b; stroke:none;" d="M433 83L434 84L433 83z"/>
<path style="fill:#a7a7a9; stroke:none;" d="M88 85L89 86L88 85z"/>
<path style="fill:#a8a8aa; stroke:none;" d="M87 86L88 87L87 86z"/>
<path style="fill:#a5a5a7; stroke:none;" d="M86 87L87 88L86 87z"/>
<path style="fill:#99999b; stroke:none;" d="M85 88L86 89L85 88z"/>
<path style="fill:#98989a; stroke:none;" d="M122 89L123 90L122 89z"/>
<path style="fill:#99999b; stroke:none;" d="M81 92L82 93L81 92z"/>
<path style="fill:#9b9b9d; stroke:none;" d="M106 103L107 104L106 103z"/>
<path style="fill:#9e9ea0; stroke:none;" d="M69 105L70 106L69 105z"/>
<path style="fill:#909090; stroke:none;" d="M460 106L461 107L460 106z"/>
<path style="fill:#a9a9ab; stroke:none;" d="M102 107L103 108L102 107z"/>
<path style="fill:#a0a0a2; stroke:none;" d="M101 108L102 109L101 108z"/>
<path style="fill:#a6a6a8; stroke:none;" d="M100 109L101 110L100 109z"/>
<path style="fill:#a0a0a2; stroke:none;" d="M99 110L100 111L99 110z"/>
<path style="fill:#9f9fa1; stroke:none;" d="M64 111L65 112L64 111z"/>
<path style="fill:#9e9ea0; stroke:none;" d="M98 111L99 112L98 111z"/>
<path style="fill:#919193; stroke:none;" d="M95 114L96 115L95 114z"/>
<path style="fill:#939393; stroke:none;" d="M61 115L62 116L61 115z"/>
<path style="fill:#a4a4a4; stroke:none;" d="M472 119L473 120L472 119z"/>
<path style="fill:#9e9e9e; stroke:none;" d="M473 120L474 121L473 120z"/>
<path style="fill:#969696; stroke:none;" d="M474 121L475 122L474 121z"/>
<path style="fill:#a0a0a2; stroke:none;" d="M88 122L89 123L88 122z"/>
<path style="fill:#a6a6a8; stroke:none;" d="M482 131L483 132L482 131z"/>
<path style="fill:#9a9a9c; stroke:none;" d="M79 133L80 134L79 133z"/>
<path style="fill:#979797; stroke:none;" d="M493 146L494 147L493 146z"/>
<path style="fill:#a4a4a6; stroke:none;" d="M501 159L502 160L501 159z"/>
<path style="fill:#d9c6b5; stroke:none;" d="M224.667 170.333L225.333 170.667L224.667 170.333z"/>
<path style="fill:#8d7a69; stroke:none;" d="M226 170L226 171L235 171L226 170z"/>
<path style="fill:#603814; stroke:none;" d="M344 200C337.596 178.824 316.369 177.32 300 188C291 170.699 269.085 172.625 256 183C246.564 164.962 214.209 166.722 207.133 186C203.455 196.023 208.816 211.722 202.821 220.682C200.797 223.706 196.098 222.999 193 223.992C186.079 226.212 179.844 232.599 179.105 240C177.833 252.749 179 266.186 179 279C179 311.498 179.39 341.524 201.321 367.999C249.98 426.739 346.39 412.844 376.833 343C389.203 314.622 385 281.164 385 251C385 238.692 387.638 222.858 384.211 211C378.936 192.749 357.678 192.841 344 200z"/>
<path style="fill:#b7a79a; stroke:none;" d="M240.667 171.333L241.333 171.667L240.667 171.333z"/>
<path style="fill:#c9b6a7; stroke:none;" d="M243.667 172.333L244.333 172.667L243.667 172.333z"/>
<path style="fill:#b19b86; stroke:none;" d="M272 174L272 175L280 175L272 174z"/>
<path style="fill:#8c7968; stroke:none;" d="M282 175L282 176L285 176L282 175z"/>
<path style="fill:#b49a7f; stroke:none;" d="M286.667 176.333L287.333 176.667L286.667 176.333z"/>
<path style="fill:#f4c6a5; stroke:none;" d="M212 219C218.391 218.947 224.677 217.569 231 216.718C235.697 216.085 244.649 215.949 248.397 212.836C250.849 210.798 250.368 204.933 250.715 202C251.425 195.976 251.735 189.027 247.467 184.21C238.267 173.827 218.006 176.079 213.8 190C211.255 198.425 212 210.187 212 219z"/>
<path style="fill:#9f8e7c; stroke:none;" d="M292 179L293 180L292 179z"/>
<path style="fill:#a89888; stroke:none;" d="M259 180L260 181L259 180z"/>
<path style="fill:#cfb39b; stroke:none;" d="M314 180L314 181L321 181L314 180z"/>
<path style="fill:#9a8872; stroke:none;" d="M311 181L311 182L314 182L311 181z"/>
<path style="fill:#c7b0a2; stroke:none;" d="M325.667 181.333L326.333 181.667L325.667 181.333z"/>
<path style="fill:#d0a582; stroke:none;" d="M272 182L272 183L281 183L272 182z"/>
<path style="fill:#b9a396; stroke:none;" d="M328.667 182.333L329.333 182.667L328.667 182.333z"/>
<path style="fill:#f4c6a5; stroke:none;" d="M258 211C262.373 210.964 268.038 209.15 271.895 211.746C276.424 214.794 277.73 221.017 278.789 226C282.182 241.953 274.982 262.196 257 265C264.558 280.827 287.949 272.385 289.816 257C291.49 243.198 292.134 228.878 293.09 215C293.591 207.715 295.601 199.106 292.968 192.001C288.569 180.134 268.871 179.935 261.943 189.09C257.54 194.908 258.882 204.024 258 211z"/>
<path style="fill:#9a6f4c; stroke:none;" d="M283.667 183.333L284.333 183.667L283.667 183.333z"/>
<path style="fill:#828284; stroke:none;" d="M21.3333 184.667L21.6667 185.333L21.3333 184.667z"/>
<path style="fill:#c0c0c2; stroke:none;" d="M515.333 186.667L515.667 187.333L515.333 186.667z"/>
<path style="fill:#bf9474; stroke:none;" d="M314 188L314 189L323 189L314 188z"/>
<path style="fill:#7f7f81; stroke:none;" d="M19.3333 189.667L19.6667 190.333L19.3333 189.667z"/>
<path style="fill:#f4c6a5; stroke:none;" d="M312 189.742C302.076 193.54 302.672 204.302 301.83 213C300.29 228.905 294.238 250.321 297.38 266C299.619 277.171 311.926 281.817 321.999 277.852C332.638 273.665 331.294 263.192 332.17 254C333.653 238.42 340.104 216.252 336.606 201C334.252 190.738 321.312 186.179 312 189.742z"/>
<path style="fill:#bababc; stroke:none;" d="M46.3333 190.667L46.6667 191.333L46.3333 190.667z"/>
<path style="fill:#c7b29f; stroke:none;" d="M205 190L205 195L206 195L205 190z"/>
<path style="fill:#898989; stroke:none;" d="M544.333 190.667L544.667 191.333L544.333 190.667z"/>
<path style="fill:#a17653; stroke:none;" d="M251 191L251 197L252 197L251 191z"/>
<path style="fill:#7e7e80; stroke:none;" d="M18.3333 192.667L18.6667 193.333L18.3333 192.667z"/>
<path style="fill:#c39876; stroke:none;" d="M293.333 192.667L293.667 193.333L293.333 192.667z"/>
<path style="fill:#947966; stroke:none;" d="M341.333 192.667L341.667 193.333L341.333 192.667z"/>
<path style="fill:#b0b0b0; stroke:none;" d="M518.333 193.667L518.667 194.333L518.333 193.667z"/>
<path style="fill:#cfa482; stroke:none;" d="M294 194L294 203L295 203L294 194z"/>
<path style="fill:#dcd2c9; stroke:none;" d="M342 194L344 200L347 199L347 197L342 194z"/>
<path style="fill:#8a715b; stroke:none;" d="M205 195L205 200L206 200L205 195z"/>
<path style="fill:#b7a28f; stroke:none;" d="M353.667 195.333L354.333 195.667L353.667 195.333z"/>
<path style="fill:#cfbcab; stroke:none;" d="M366.667 195.333L367.333 195.667L366.667 195.333z"/>
<path style="fill:#897159; stroke:none;" d="M343.333 197.667L343.667 198.333L343.333 197.667z"/>
<path style="fill:#9b9b9b; stroke:none;" d="M520.333 198.667L520.667 199.333L520.333 198.667z"/>
<path style="fill:#9c9c9c; stroke:none;" d="M547.333 198.667L547.667 199.333L547.333 198.667z"/>
<path style="fill:#b58966; stroke:none;" d="M212 200L212 208L213 208L212 200z"/>
<path style="fill:#cb9f7a; stroke:none;" d="M302 200L302 205L303 205L302 200z"/>
<path style="fill:#b8b8b8; stroke:none;" d="M521.333 201.667L521.667 202.333L521.333 201.667z"/>
<path style="fill:#bfaa97; stroke:none;" d="M204 202L204 208L205 208L204 202z"/>
<path style="fill:#bd9270; stroke:none;" d="M258 202L258 208L259 208L258 202z"/>
<path style="fill:#906942; stroke:none;" d="M357 202L357 203L364 203L357 202z"/>
<path style="fill:#9e7350; stroke:none;" d="M250 203L250 208L251 208L250 203z"/>
<path style="fill:#7f552f; stroke:none;" d="M301 203L301 211L302 211L301 203z"/>
<path style="fill:#f4c6a5; stroke:none;" d="M354.001 203.703C343.735 207.192 343.217 218.865 343 228C342.593 245.123 337.016 262.858 339.185 280C340.577 290.998 352.157 295.438 362 292.347C372.117 289.17 372.492 279.72 373.09 271C374.301 253.321 380.349 231.502 376.721 214C374.794 204.703 362.195 200.918 354.001 203.703z"/>
<path style="fill:#9d7250; stroke:none;" d="M365 203L365 204L368 204L365 203z"/>
<path style="fill:#818181; stroke:none;" d="M14.3333 204.667L14.6667 205.333L14.3333 204.667z"/>
<path style="fill:#b5b5b5; stroke:none;" d="M522.333 204.667L522.667 205.333L522.333 204.667z"/>
<path style="fill:#9a9a9a; stroke:none;" d="M549.333 204.667L549.667 205.333L549.333 204.667z"/>
<path style="fill:#b8b8ba; stroke:none;" d="M40.3333 206.667L40.6667 207.333L40.3333 206.667z"/>
<path style="fill:#dfe0e2; stroke:none;" d="M382 206C389.734 223.336 386 246.247 386 265C386 288.008 387.897 311.904 380.06 334C362.913 382.344 314.726 412.013 264 404.7C248.709 402.495 236.589 394.427 223 388C225.409 395.493 234.665 399.33 241 403.13C257.956 413.299 277.857 414 297 414C304.721 414 312.682 415.156 319.665 411.549C326.659 407.937 345.777 408.729 345 397L360 388L360 385C363.741 384.57 365.339 383.814 366 380L370 380C375.672 367.747 387.145 358.332 391.164 345C394.628 333.509 393.227 320.826 394.054 309.015C395.286 291.421 396 273.886 396 256C396 238.615 400.812 215.449 382 206z"/>
<path style="fill:#797979; stroke:none;" d="M13 207L13 210L14 210L13 207z"/>
<path style="fill:#bdbdbd; stroke:none;" d="M523.333 207.667L523.667 208.333L523.333 207.667z"/>
<path style="fill:#785f49; stroke:none;" d="M204 208L204 213L205 213L204 208z"/>
<path style="fill:#818183; stroke:none;" d="M550.333 208.667L550.667 209.333L550.333 208.667z"/>
<path style="fill:#b6b6b6; stroke:none;" d="M39.3333 209.667L39.6667 210.333L39.3333 209.667z"/>
<path style="fill:#825a36; stroke:none;" d="M336 210L336 218L337 218L336 210z"/>
<path style="fill:#a49582; stroke:none;" d="M384.333 210.667L384.667 211.333L384.333 210.667z"/>
<path style="fill:#bababa; stroke:none;" d="M524.333 210.667L524.667 211.333L524.333 210.667z"/>
<path style="fill:#8e6341; stroke:none;" d="M258 211L258 212L263 212L258 211z"/>
<path style="fill:#9c714e; stroke:none;" d="M293 211L293 216L294 216L293 211z"/>
<path style="fill:#c89d7b; stroke:none;" d="M301 211L301 216L302 216L301 211z"/>
<path style="fill:#a0a0a0; stroke:none;" d="M38.3333 212.667L38.6667 213.333L38.3333 212.667z"/>
<path style="fill:#b5a99d; stroke:none;" d="M203 213L203 221L204 221L203 213z"/>
<path style="fill:#cba37f; stroke:none;" d="M211 213L211 220L216 220L216 219L212 219L211 213z"/>
<path style="fill:#936b47; stroke:none;" d="M248.667 213.333L249.333 213.667L248.667 213.333z"/>
<path style="fill:#aaaaaa; stroke:none;" d="M525.333 213.667L525.667 214.333L525.333 213.667z"/>
<path style="fill:#8b8b8b; stroke:none;" d="M11.3333 214.667L11.6667 215.333L11.3333 214.667z"/>
<path style="fill:#cfa481; stroke:none;" d="M377 214L377 224L378 224L377 214z"/>
<path style="fill:#8b7963; stroke:none;" d="M385 214L385 222L386 222L385 214z"/>
<path style="fill:#969698; stroke:none;" d="M552 215L552 218L553 218L552 215z"/>
<path style="fill:#c2c2c2; stroke:none;" d="M37.3333 216.667L37.6667 217.333L37.3333 216.667z"/>
<path style="fill:#bc916e; stroke:none;" d="M343 216L343 222L344 222L343 216z"/>
<path style="fill:#939393; stroke:none;" d="M526.333 216.667L526.667 217.333L526.333 216.667z"/>
<path style="fill:#c09572; stroke:none;" d="M224 217L224 218L227 218L224 217z"/>
<path style="fill:#888888; stroke:none;" d="M10.3333 218.667L10.6667 219.333L10.3333 218.667z"/>
<path style="fill:#b9916d; stroke:none;" d="M264 218L264 219L267 219L264 218z"/>
<path style="fill:#f4c6a5; stroke:none;" d="M223 263C241.876 260.602 270.843 260.621 271.961 236C272.171 231.362 272.733 222.969 268.49 219.773C264.359 216.662 254.592 220.3 250 221.081C235.983 223.465 221.987 225.869 208 228.386C201.849 229.492 194.994 229.419 190.329 234.214C181.91 242.868 186 263.766 186 275C186 319.144 190.829 358.946 232 384.575C238.875 388.854 254.403 398.018 262.91 395.306C268.186 393.624 271.437 385.632 273.42 381C279.668 366.4 281.834 347.362 276.971 332C272.166 316.819 262.279 303.269 248 295.785C242.923 293.124 227.814 291.858 225.028 287.682C221.806 282.854 223.016 268.874 223 263z"/>
<path style="fill:#9f7452; stroke:none;" d="M300 218L300 224L301 224L300 218z"/>
<path style="fill:#b1b1b1; stroke:none;" d="M36.3333 219.667L36.6667 220.333L36.3333 219.667z"/>
<path style="fill:#a07451; stroke:none;" d="M335 219L335 224L336 224L335 219z"/>
<path style="fill:#8d8d8f; stroke:none;" d="M553.333 219.667L553.667 220.333L553.333 219.667z"/>
<path style="fill:#976b48; stroke:none;" d="M251 220L251 221L254 221L251 220z"/>
<path style="fill:#9f9f9f; stroke:none;" d="M527.333 220.667L527.667 221.333L527.333 220.667z"/>
<path style="fill:#c7b59f; stroke:none;" d="M201.667 221.333L202.333 221.667L201.667 221.333z"/>
<path style="fill:#959595; stroke:none;" d="M9.33333 222.667L9.66667 223.333L9.33333 222.667z"/>
<path style="fill:#868686; stroke:none;" d="M35.3333 222.667L35.6667 223.333L35.3333 222.667z"/>
<path style="fill:#c8b5a4; stroke:none;" d="M196.667 222.333L197.333 222.667L196.667 222.333z"/>
<path style="fill:#6d5940; stroke:none;" d="M198 222L198 223L203 223L198 222z"/>
<path style="fill:#946c48; stroke:none;" d="M240 222L240 223L243 223L240 222z"/>
<path style="fill:#bdad9e; stroke:none;" d="M385 222L385 310L386 310L386 249L385 222z"/>
<path style="fill:#927c6e; stroke:none;" d="M193.667 223.333L194.333 223.667L193.667 223.333z"/>
<path style="fill:#8c8c8e; stroke:none;" d="M554 223L554 226L555 226L554 223z"/>
<path style="fill:#af8461; stroke:none;" d="M228 224L228 225L232 225L228 224z"/>
<path style="fill:#8d623f; stroke:none;" d="M292 224L292 229L293 229L292 224z"/>
<path style="fill:#855a37; stroke:none;" d="M377 224L377 232L378 232L377 224z"/>
<path style="fill:#afafb1; stroke:none;" d="M528.333 224.667L528.667 225.333L528.333 224.667z"/>
<path style="fill:#bcbcbe; stroke:none;" d="M8 225L8 228L9 228L8 225z"/>
<path style="fill:#a98f78; stroke:none;" d="M189 225L190 226L189 225z"/>
<path style="fill:#bbbbbb; stroke:none;" d="M34.3333 227.667L34.6667 228.333L34.3333 227.667z"/>
<path style="fill:#ae9e8e; stroke:none;" d="M186 227L187 228L186 227z"/>
<path style="fill:#8d623f; stroke:none;" d="M299 227L299 232L300 232L299 227z"/>
<path style="fill:#b38865; stroke:none;" d="M342 227L342 235L343 235L342 227z"/>
<path style="fill:#868688; stroke:none;" d="M529 227L529 230L530 230L529 227z"/>
<path style="fill:#c49977; stroke:none;" d="M334 228L334 235L335 235L334 228z"/>
<path style="fill:#a17653; stroke:none;" d="M279 229L279 240L280 240L279 229z"/>
<path style="fill:#ababad; stroke:none;" d="M7.33333 230.667L7.66667 231.333L7.33333 230.667z"/>
<path style="fill:#898989; stroke:none;" d="M33.3333 230.667L33.6667 231.333L33.3333 230.667z"/>
<path style="fill:#b4a393; stroke:none;" d="M183 230L184 231L183 230z"/>
<path style="fill:#c79a79; stroke:none;" d="M291 230L291 235L292 235L291 230z"/>
<path style="fill:#cca17e; stroke:none;" d="M376 230L376 235L377 235L376 230z"/>
<path style="fill:#bb906d; stroke:none;" d="M299 232L299 237L300 237L299 232z"/>
<path style="fill:#a4a4a6; stroke:none;" d="M530.333 232.667L530.667 233.333L530.333 232.667M556.333 232.667L556.667 233.333L556.333 232.667z"/>
<path style="fill:#909090; stroke:none;" d="M32 235L32 238L33 238L32 235z"/>
<path style="fill:#916443; stroke:none;" d="M291 235L291 242L292 242L291 235z"/>
<path style="fill:#916643; stroke:none;" d="M376 235L376 243L377 243L376 235z"/>
<path style="fill:#868688; stroke:none;" d="M531.333 236.667L531.667 237.333L531.333 236.667z"/>
<path style="fill:#7b7b7d; stroke:none;" d="M6 237L6 240L7 240L6 237z"/>
<path style="fill:#ab805d; stroke:none;" d="M341 237L341 243L342 243L341 237z"/>
<path style="fill:#acacae; stroke:none;" d="M557 237L557 240L558 240L557 237z"/>
<path style="fill:#8b8b8d; stroke:none;" d="M31.3333 240.667L31.6667 241.333L31.3333 240.667z"/>
<path style="fill:#71573e; stroke:none;" d="M178 240L178 309L179 309L179 262L178 240z"/>
<path style="fill:#f4e7de; stroke:none;" d="M177 242L177 304L178 304L178 262L177 242z"/>
<path style="fill:#9a6e4b; stroke:none;" d="M278 242L278 245L279 245L278 242z"/>
<path style="fill:#ceced0; stroke:none;" d="M532 242L532 246L533 246L532 242z"/>
<path style="fill:#8c674a; stroke:none;" d="M185 243L185 306L186 306L186 263L185 243z"/>
<path style="fill:#b68968; stroke:none;" d="M298 243L298 248L299 248L298 243z"/>
<path style="fill:#986d4b; stroke:none;" d="M333 243L333 248L334 248L333 243z"/>
<path style="fill:#b78a69; stroke:none;" d="M375 243L375 248L376 248L375 243z"/>
<path style="fill:#ac815f; stroke:none;" d="M290 244L290 251L291 251L290 244z"/>
<path style="fill:#7e7e80; stroke:none;" d="M30 245L30 248L31 248L30 245z"/>
<path style="fill:#a17552; stroke:none;" d="M277.333 246.667L277.667 247.333L277.333 246.667z"/>
<path style="fill:#a57a57; stroke:none;" d="M340 248L340 256L341 256L340 248z"/>
<path style="fill:#895c3b; stroke:none;" d="M375 248L375 253L376 253L375 248z"/>
<path style="fill:#939395; stroke:none;" d="M533 248L533 251L534 251L533 248z"/>
<path style="fill:#bd9270; stroke:none;" d="M332 251L332 259L333 259L332 251z"/>
<path style="fill:#6c6c6e; stroke:none;" d="M559 251L559 256L560 256L559 251z"/>
<path style="fill:#b4b4b6; stroke:none;" d="M29 252L29 259L30 259L29 252z"/>
<path style="fill:#976c4a; stroke:none;" d="M297 252L297 259L298 259L297 252z"/>
<path style="fill:#9c9c9c; stroke:none;" d="M534 253L534 259L535 259L534 253z"/>
<path style="fill:#bf9472; stroke:none;" d="M262 254L262 256L264 254L262 254z"/>
<path style="fill:#777779; stroke:none;" d="M3 256L3 262L4 262L3 256z"/>
<path style="fill:#a07553; stroke:none;" d="M374 256L374 264L375 264L374 256z"/>
<path style="fill:#bc916f; stroke:none;" d="M253 257L253 258L256 258L253 257z"/>
<path style="fill:#858587; stroke:none;" d="M28 259L28 264L29 264L28 259z"/>
<path style="fill:#906543; stroke:none;" d="M339 259L339 264L340 264L339 259z"/>
<path style="fill:#878787; stroke:none;" d="M560 259L560 264L561 264L560 259z"/>
<path style="fill:#ae8160; stroke:none;" d="M237 260L237 261L240 261L237 260z"/>
<path style="fill:#a87d5b; stroke:none;" d="M232.667 261.333L233.333 261.667L232.667 261.333z"/>
<path style="fill:#af8764; stroke:none;" d="M226 262L226 263L229 263L226 262z"/>
<path style="fill:#9f7451; stroke:none;" d="M288.333 262.667L288.667 263.333L288.333 262.667z"/>
<path style="fill:#c19371; stroke:none;" d="M223 263L223 272L224 272L223 263z"/>
<path style="fill:#b28764; stroke:none;" d="M262.667 263.333L263.333 263.667L262.667 263.333z"/>
<path style="fill:#afafb1; stroke:none;" d="M2 264L2 272L3 272L2 264z"/>
<path style="fill:#b88d6b; stroke:none;" d="M259.667 264.333L260.333 264.667L259.667 264.333z"/>
<path style="fill:#a1a1a1; stroke:none;" d="M535 264L535 269L536 269L535 264z"/>
<path style="fill:#c79d77; stroke:none;" d="M241 267L241 268L246 268L241 267z"/>
<path style="fill:#f4c6a5; stroke:none;" d="M273 398C315.634 398 356.168 378.522 371.302 336C376.622 321.05 377 306.648 377 291C371.587 294.765 366.615 299.776 360 301.442C346.569 304.826 336.002 292.506 331 282C315.385 287.586 301.756 289.875 292 273L290 273C278.332 286.01 256.891 282.21 249 267C241.63 267.931 226.564 268.633 232.603 280.566C234.087 283.498 240.177 284.134 243 285.375C251.07 288.922 258.528 292.954 264.985 299.09C285.208 318.307 291.463 346.685 284.416 373C281.989 382.061 276.253 389.405 273 398z"/>
<path style="fill:#ab805e; stroke:none;" d="M373 267L373 272L374 272L373 267z"/>
<path style="fill:#a27852; stroke:none;" d="M236.667 268.333L237.333 268.667L236.667 268.333z"/>
<path style="fill:#b1b1b1; stroke:none;" d="M561 268L561 277L562 277L561 268z"/>
<path style="fill:#bb8f6a; stroke:none;" d="M231 269L231 275L232 275L234 270L231 269z"/>
<path style="fill:#757577; stroke:none;" d="M27 270L27 277L28 277L27 270z"/>
<path style="fill:#6b6b6d; stroke:none;" d="M2 272L2 280L3 280L2 272z"/>
<path style="fill:#9e7350; stroke:none;" d="M277.667 272.333L278.333 272.667L277.667 272.333z"/>
<path style="fill:#ae845e; stroke:none;" d="M338 272L338 280L339 280L338 272z"/>
<path style="fill:#977049; stroke:none;" d="M270 273L270 274L275 274L270 273z"/>
<path style="fill:#8f653f; stroke:none;" d="M231 275L231 282L232 282L231 275z"/>
<path style="fill:#838383; stroke:none;" d="M536 275L536 296L537 296L536 275z"/>
<path style="fill:#b5b5b7; stroke:none;" d="M27 277L27 297L28 297L27 277z"/>
<path style="fill:#7f7f7f; stroke:none;" d="M561 277L561 301L562 301L561 277z"/>
<path style="fill:#a57d5a; stroke:none;" d="M311 279L311 280L317 280L311 279z"/>
<path style="fill:#996f49; stroke:none;" d="M224 280L224 289L225 289L224 280z"/>
<path style="fill:#b38665; stroke:none;" d="M277 280L277 281L280 281L277 280z"/>
<path style="fill:#9e7652; stroke:none;" d="M232.667 282.333L233.333 282.667L232.667 282.333z"/>
<path style="fill:#bb9370; stroke:none;" d="M237 283L237 284L240 284L237 283z"/>
<path style="fill:#a37953; stroke:none;" d="M304.667 285.333L305.333 285.667L304.667 285.333z"/>
<path style="fill:#b98d68; stroke:none;" d="M307 286L307 287L310 287L307 286z"/>
<path style="fill:#976c4a; stroke:none;" d="M225 289L225 290L231 290L225 289z"/>
<path style="fill:#ad8262; stroke:none;" d="M376 289L377 308L378 308C378 302.909 380.022 292.514 376 289z"/>
<path style="fill:#be9370; stroke:none;" d="M352 293L352 294L360 294L352 293z"/>
<path style="fill:#858587; stroke:none;" d="M27 297L27 305L28 305L27 297z"/>
<path style="fill:#828284; stroke:none;" d="M2 299L2 304L3 304L2 299z"/>
<path style="fill:#a87b5a; stroke:none;" d="M361 300L361 301L364 301L361 300z"/>
<path style="fill:#c59877; stroke:none;" d="M352 301L352 302L361 302L352 301z"/>
<path style="fill:#b2b2b2; stroke:none;" d="M561 301L561 308L562 308L561 301z"/>
<path style="fill:#c4c4c6; stroke:none;" d="M2 304L2 312L3 312L2 304z"/>
<path style="fill:#7f7f7f; stroke:none;" d="M535 307L535 312L536 312L535 307z"/>
<path style="fill:#c8b8a9; stroke:none;" d="M178 309L178 314L179 314L178 309z"/>
<path style="fill:#a6988d; stroke:none;" d="M384 312L384 316L385 316L384 312z"/>
<path style="fill:#d8d8d8; stroke:none;" d="M560 315L560 320L561 320L560 315z"/>
<path style="fill:#cbcbcd; stroke:none;" d="M29 316L29 323L30 323L29 316z"/>
<path style="fill:#9d9d9d; stroke:none;" d="M534 316L534 320L535 320L534 316z"/>
<path style="fill:#a0a0a2; stroke:none;" d="M3 317L3 320L4 320L3 317z"/>
<path style="fill:#988670; stroke:none;" d="M179 317L179 320L180 320L179 317z"/>
<path style="fill:#b68c66; stroke:none;" d="M375.333 320.667L375.667 321.333L375.333 320.667z"/>
<path style="fill:#b19882; stroke:none;" d="M180.333 323.667L180.667 324.333L180.333 323.667z"/>
<path style="fill:#818183; stroke:none;" d="M533 324L533 328L534 328L533 324z"/>
<path style="fill:#c7c7c9; stroke:none;" d="M30 325L30 328L31 328L30 325z"/>
<path style="fill:#9e7350; stroke:none;" d="M374 325L374 328L375 328L374 325z"/>
<path style="fill:#c8b8a8; stroke:none;" d="M181.333 328.667L181.667 329.333L181.333 328.667z"/>
<path style="fill:#ac8460; stroke:none;" d="M373.333 328.667L373.667 329.333L373.333 328.667z"/>
<path style="fill:#828284; stroke:none;" d="M5 330L5 333L6 333L5 330z"/>
<path style="fill:#b18664; stroke:none;" d="M284.333 330.667L284.667 331.333L284.333 330.667z"/>
<path style="fill:#c8c8ca; stroke:none;" d="M31 331L31 334L32 334L31 331z"/>
<path style="fill:#806b5a; stroke:none;" d="M380 331L380 334L381 334L380 331z"/>
<path style="fill:#777779; stroke:none;" d="M31.3333 334.667L31.6667 335.333L31.3333 334.667z"/>
<path style="fill:#b7a591; stroke:none;" d="M183.333 334.667L183.667 335.333L183.333 334.667z"/>
<path style="fill:#88613a; stroke:none;" d="M285 334L285 338L286 338L285 334z"/>
<path style="fill:#7b7b7b; stroke:none;" d="M6 336L6 339L7 339L6 336z"/>
<path style="fill:#a6a6a8; stroke:none;" d="M531.333 336.667L531.667 337.333L531.333 336.667z"/>
<path style="fill:#aaaaac; stroke:none;" d="M557.333 336.667L557.667 337.333L557.333 336.667z"/>
<path style="fill:#b4b4b4; stroke:none;" d="M32.3333 337.667L32.6667 338.333L32.3333 337.667z"/>
<path style="fill:#858587; stroke:none;" d="M556.333 340.667L556.667 341.333L556.333 340.667z"/>
<path style="fill:#a4a4a6; stroke:none;" d="M530 341L530 344L531 344L530 341z"/>
<path style="fill:#878787; stroke:none;" d="M7.33333 342.667L7.66667 343.333L7.33333 342.667z"/>
<path style="fill:#b7b7b7; stroke:none;" d="M33.3333 342.667L33.6667 343.333L33.3333 342.667z"/>
<path style="fill:#c1ac99; stroke:none;" d="M186.333 342.667L186.667 343.333L186.333 342.667z"/>
<path style="fill:#be9170; stroke:none;" d="M279 344L279 360L280 360L279 344z"/>
<path style="fill:#acacae; stroke:none;" d="M529.333 345.667L529.667 346.333L529.333 345.667z"/>
<path style="fill:#cda37d; stroke:none;" d="M287 346L287 358L288 358L287 346z"/>
<path style="fill:#9a9a9a; stroke:none;" d="M8 347L8 350L9 350L8 347z"/>
<path style="fill:#8e8e8e; stroke:none;" d="M34.3333 347.667L34.6667 348.333L34.3333 347.667z"/>
<path style="fill:#b0b0b2; stroke:none;" d="M528 349L528 352L529 352L528 349z"/>
<path style="fill:#b5b5b5; stroke:none;" d="M35.3333 350.667L35.6667 351.333L35.3333 350.667z"/>
<path style="fill:#909092; stroke:none;" d="M554.333 350.667L554.667 351.333L554.333 350.667z"/>
<path style="fill:#b0b0b0; stroke:none;" d="M9.33333 352.667L9.66667 353.333L9.33333 352.667z"/>
<path style="fill:#919191; stroke:none;" d="M553.333 354.667L553.667 355.333L553.333 354.667z"/>
<path style="fill:#848484; stroke:none;" d="M36.3333 355.667L36.6667 356.333L36.3333 355.667z"/>
<path style="fill:#b7b7b7; stroke:none;" d="M10.3333 356.667L10.6667 357.333L10.3333 356.667z"/>
<path style="fill:#929292; stroke:none;" d="M526 357L526 360L527 360L526 357z"/>
<path style="fill:#a9a9a9; stroke:none;" d="M37.3333 358.667L37.6667 359.333L37.3333 358.667z"/>
<path style="fill:#b88b64; stroke:none;" d="M358 358L358 360L360 358L358 358z"/>
<path style="fill:#8c8c8c; stroke:none;" d="M552.333 358.667L552.667 359.333L552.333 358.667z"/>
<path style="fill:#afafaf; stroke:none;" d="M11.3333 360.667L11.6667 361.333L11.3333 360.667z"/>
<path style="fill:#7a7a7a; stroke:none;" d="M525.333 361.667L525.667 362.333L525.333 361.667M38.3333 362.667L38.6667 363.333L38.3333 362.667z"/>
<path style="fill:#a38d80; stroke:none;" d="M197 362L198 363L197 362z"/>
<path style="fill:#959595; stroke:none;" d="M12.3333 363.667L12.6667 364.333L12.3333 363.667z"/>
<path style="fill:#818181; stroke:none;" d="M524.333 364.667L524.667 365.333L524.333 364.667z"/>
<path style="fill:#7b7b7b; stroke:none;" d="M39.3333 365.667L39.6667 366.333L39.3333 365.667z"/>
<path style="fill:#7c7c7c; stroke:none;" d="M13.3333 366.667L13.6667 367.333L13.3333 366.667z"/>
<path style="fill:#a8a8a8; stroke:none;" d="M550.333 366.667L550.667 367.333L550.333 366.667z"/>
<path style="fill:#7e7e7e; stroke:none;" d="M523.333 367.667L523.667 368.333L523.333 367.667z"/>
<path style="fill:#8a8a8c; stroke:none;" d="M40.3333 368.667L40.6667 369.333L40.3333 368.667z"/>
<path style="fill:#af8461; stroke:none;" d="M277.333 368.667L277.667 369.333L277.333 368.667z"/>
<path style="fill:#a9a9a9; stroke:none;" d="M14.3333 370.667L14.6667 371.333L14.3333 370.667z"/>
<path style="fill:#808080; stroke:none;" d="M522.333 370.667L522.667 371.333L522.333 370.667z"/>
<path style="fill:#78787a; stroke:none;" d="M41.3333 371.667L41.6667 372.333L41.3333 371.667z"/>
<path style="fill:#956a48; stroke:none;" d="M284 371L284 374L285 374L284 371z"/>
<path style="fill:#b3a18d; stroke:none;" d="M205 372L206 373L205 372z"/>
<path style="fill:#986c49; stroke:none;" d="M276.333 372.667L276.667 373.333L276.333 372.667z"/>
<path style="fill:#a2917f; stroke:none;" d="M206 373L207 374L206 373z"/>
<path style="fill:#7d7d7d; stroke:none;" d="M521.333 373.667L521.667 374.333L521.333 373.667z"/>
<path style="fill:#ac917e; stroke:none;" d="M208 375L209 376L208 375z"/>
<path style="fill:#a79281; stroke:none;" d="M210 377L211 378L210 377z"/>
<path style="fill:#b78c69; stroke:none;" d="M282.333 378.667L282.667 379.333L282.333 378.667z"/>
<path style="fill:#79797b; stroke:none;" d="M44.3333 379.667L44.6667 380.333L44.3333 379.667z"/>
<path style="fill:#787878; stroke:none;" d="M518.333 381.667L518.667 382.333L518.333 381.667z"/>
<path style="fill:#a6a6a8; stroke:none;" d="M18.3333 382.667L18.6667 383.333L18.3333 382.667z"/>
<path style="fill:#8b8b8d; stroke:none;" d="M46.3333 384.667L46.6667 385.333L46.3333 384.667z"/>
<path style="fill:#b4b4b4; stroke:none;" d="M544.333 384.667L544.667 385.333L544.333 384.667z"/>
<path style="fill:#b4b4b6; stroke:none;" d="M19.3333 385.667L19.6667 386.333L19.3333 385.667z"/>
<path style="fill:#c9c9cb; stroke:none;" d="M20.3333 388.667L20.6667 389.333L20.3333 388.667z"/>
<path style="fill:#7e7e80; stroke:none;" d="M515.333 388.667L515.667 389.333L515.333 388.667z"/>
<path style="fill:#b2b2b4; stroke:none;" d="M21.3333 390.667L21.6667 391.333L21.3333 390.667z"/>
<path style="fill:#99724b; stroke:none;" d="M318.667 390.333L319.333 390.667L318.667 390.333z"/>
<path style="fill:#a47c58; stroke:none;" d="M254.667 394.333L255.333 394.667L254.667 394.333z"/>
<path style="fill:#ab7f5c; stroke:none;" d="M306.667 394.333L307.333 394.667L306.667 394.333z"/>
<path style="fill:#a37754; stroke:none;" d="M258.667 395.333L259.333 395.667L258.667 395.333z"/>
<path style="fill:#a07553; stroke:none;" d="M298 396L298 397L301 397L298 396z"/>
<path style="fill:#837260; stroke:none;" d="M240.667 397.333L241.333 397.667L240.667 397.333z"/>
<path style="fill:#896e53; stroke:none;" d="M318.667 398.333L319.333 398.667L318.667 398.333z"/>
<path style="fill:#b59b82; stroke:none;" d="M316.667 399.333L317.333 399.667L316.667 399.333z"/>
<path style="fill:#bfbfbf; stroke:none;" d="M538.333 399.667L538.667 400.333L538.333 399.667z"/>
<path style="fill:#8b7867; stroke:none;" d="M248.667 400.333L249.333 400.667L248.667 400.333z"/>
<path style="fill:#af9f90; stroke:none;" d="M250 401L250 402L253 402L250 401z"/>
<path style="fill:#a39282; stroke:none;" d="M310.667 401.333L311.333 401.667L310.667 401.333z"/>
<path style="fill:#b3a292; stroke:none;" d="M253 402L253 403L256 403L253 402z"/>
<path style="fill:#a99781; stroke:none;" d="M258.667 403.333L259.333 403.667L258.667 403.333z"/>
<path style="fill:#9f8a77; stroke:none;" d="M302.667 403.333L303.333 403.667L302.667 403.333z"/>
<path style="fill:#9d8d7e; stroke:none;" d="M262 404L262 405L267 405L262 404z"/>
<path style="fill:#968677; stroke:none;" d="M294 404L294 405L298 405L294 404z"/>
<path style="fill:#7e6551; stroke:none;" d="M272 405L272 406L288 406L272 405z"/>
<path style="fill:#b9afa5; stroke:none;" d="M288 405L288 406L294 406L288 405z"/>
<path style="fill:#999999; stroke:none;" d="M493 429L494 430L493 429z"/>
<path style="fill:#c9c9c9; stroke:none;" d="M521.333 432.667L521.667 433.333L521.333 432.667z"/>
<path style="fill:#9d9d9f; stroke:none;" d="M76 438L77 439L76 438z"/>
<path style="fill:#a8a8aa; stroke:none;" d="M486 439L487 440L486 439z"/>
<path style="fill:#9f9fa1; stroke:none;" d="M79 442L80 443L79 442z"/>
<path style="fill:#a9a9ab; stroke:none;" d="M482 444L483 445L482 444z"/>
<path style="fill:#a2a2a4; stroke:none;" d="M88 453L89 454L88 453z"/>
<path style="fill:#949494; stroke:none;" d="M474 454L475 455L474 454z"/>
<path style="fill:#9e9e9e; stroke:none;" d="M60 459L61 460L60 459z"/>
<path style="fill:#a5a5a7; stroke:none;" d="M98 464L99 465L98 464z"/>
<path style="fill:#a7a7a9; stroke:none;" d="M99 465L100 466L99 465z"/>
<path style="fill:#a5a5a7; stroke:none;" d="M100 466L101 467L100 466z"/>
<path style="fill:#a3a3a5; stroke:none;" d="M101 467L102 468L101 467z"/>
<path style="fill:#8e8e8e; stroke:none;" d="M462 467L463 468L462 467z"/>
<path style="fill:#a9a9ab; stroke:none;" d="M102 468L103 469L102 468z"/>
<path style="fill:#8b8b8b; stroke:none;" d="M461 468L462 469L461 468z"/>
<path style="fill:#a4a4a6; stroke:none;" d="M103 469L104 470L103 469z"/>
<path style="fill:#909090; stroke:none;" d="M460 469L461 470L460 469z"/>
<path style="fill:#99999b; stroke:none;" d="M81 483L82 484L81 483z"/>
<path style="fill:#9e9ea0; stroke:none;" d="M442 485L443 486L442 485M122 486L123 487L122 486z"/>
<path style="fill:#969698; stroke:none;" d="M479 486L480 487L479 486z"/>
<path style="fill:#929294; stroke:none;" d="M85 487L86 488L85 487z"/>
<path style="fill:#98989a; stroke:none;" d="M437 489L438 490L437 489z"/>
<path style="fill:#a7a7a9; stroke:none;" d="M433 492L434 493L433 492z"/>
<path style="fill:#a5a5a7; stroke:none;" d="M426 497L427 498L426 497z"/>
<path style="fill:#949496; stroke:none;" d="M98 499L99 500L98 499z"/>
<path style="fill:#9e9e9e; stroke:none;" d="M154 508L155 509L154 508z"/>
<path style="fill:#a8a8a8; stroke:none;" d="M442 517L443 518L442 517z"/>
<path style="fill:#a5a5a5; stroke:none;" d="M439 519L440 520L439 519z"/>
<path style="fill:#bdbdbd; stroke:none;" d="M184.667 523.333L185.333 523.667L184.667 523.333z"/>
<path style="fill:#c6c6c6; stroke:none;" d="M192.667 526.333L193.333 526.667L192.667 526.333z"/>
<path style="fill:#8a8a8a; stroke:none;" d="M370.667 526.333L371.333 526.667L370.667 526.333z"/>
<path style="fill:#b2b2b4; stroke:none;" d="M200.667 529.333L201.333 529.667L200.667 529.333z"/>
<path style="fill:#727274; stroke:none;" d="M362.667 529.333L363.333 529.667L362.667 529.333z"/>
<path style="fill:#a9a9ab; stroke:none;" d="M358.667 530.333L359.333 530.667L358.667 530.333z"/>
<path style="fill:#a5a5a7; stroke:none;" d="M206.667 531.333L207.333 531.667L206.667 531.333z"/>
<path style="fill:#a2a2a4; stroke:none;" d="M355.667 531.333L356.333 531.667L355.667 531.333z"/>
<path style="fill:#a1a1a1; stroke:none;" d="M209.667 532.333L210.333 532.667L209.667 532.333z"/>
<path style="fill:#8d8d8f; stroke:none;" d="M352.667 532.333L353.333 532.667L352.667 532.333z"/>
<path style="fill:#b6b6b6; stroke:none;" d="M213 533L213 534L216 534L213 533z"/>
<path style="fill:#737373; stroke:none;" d="M349.667 533.333L350.333 533.667L349.667 533.333z"/>
<path style="fill:#8b8b8b; stroke:none;" d="M216.667 534.333L217.333 534.667L216.667 534.333z"/>
<path style="fill:#b6b6b6; stroke:none;" d="M344.667 534.333L345.333 534.667L344.667 534.333z"/>
<path style="fill:#979797; stroke:none;" d="M220.667 535.333L221.333 535.667L220.667 535.333z"/>
<path style="fill:#b6b6b6; stroke:none;" d="M340.667 535.333L341.333 535.667L340.667 535.333z"/>
<path style="fill:#828282; stroke:none;" d="M224.667 536.333L225.333 536.667L224.667 536.333z"/>
<path style="fill:#9d9d9d; stroke:none;" d="M229 537L229 538L232 538L229 537z"/>
<path style="fill:#b3b3b3; stroke:none;" d="M331.667 537.333L332.333 537.667L331.667 537.333z"/>
<path style="fill:#8f8f8f; stroke:none;" d="M234 538L234 539L237 539L234 538z"/>
<path style="fill:#a4a4a4; stroke:none;" d="M326.667 538.333L327.333 538.667L326.667 538.333z"/>
<path style="fill:#6f6f6f; stroke:none;" d="M328.667 538.333L329.333 538.667L328.667 538.333z"/>
<path style="fill:#ababab; stroke:none;" d="M241.667 539.333L242.333 539.667L241.667 539.333z"/>
<path style="fill:#707070; stroke:none;" d="M245 540L245 541L248 541L245 540z"/>
<path style="fill:#cccccc; stroke:none;" d="M248 540L248 541L252 541L248 540z"/>
<path style="fill:#b9b9b9; stroke:none;" d="M312 540L312 541L315 541L312 540z"/>
<path style="fill:#999999; stroke:none;" d="M254 541L254 542L258 542L254 541z"/>
<path style="fill:#adadad; stroke:none;" d="M301 541L301 542L309 542L301 541z"/>
<path style="fill:#afafaf; stroke:none;" d="M264 542L264 543L291 543L264 542z"/>
<path style="fill:#808080; stroke:none;" d="M291 542L291 543L299 543L291 542z"/>
<path style="fill:#b5b5b7; stroke:none;" d="M398.667 542.333L399.333 542.667L398.667 542.333z"/>
<path style="fill:#777777; stroke:none;" d="M173.667 546.333L174.333 546.667L173.667 546.333z"/>
<path style="fill:#bcbcbc; stroke:none;" d="M389.667 546.333L390.333 546.667L389.667 546.333z"/>
<path style="fill:#747474; stroke:none;" d="M178.667 548.333L179.333 548.667L178.667 548.333z"/>
<path style="fill:#6d6d6f; stroke:none;" d="M192.667 553.333L193.333 553.667L192.667 553.333z"/>
<path style="fill:#b0b0b0; stroke:none;" d="M370.667 553.333L371.333 553.667L370.667 553.333z"/>
<path style="fill:#78787a; stroke:none;" d="M366.667 554.333L367.333 554.667L366.667 554.333z"/>
<path style="fill:#a4a4a6; stroke:none;" d="M364.667 555.333L365.333 555.667L364.667 555.333z"/>
<path style="fill:#b4b4b6; stroke:none;" d="M200.667 556.333L201.333 556.667L200.667 556.333z"/>
<path style="fill:#bcbcbe; stroke:none;" d="M361.667 556.333L362.333 556.667L361.667 556.333z"/>
<path style="fill:#9e9ea0; stroke:none;" d="M204.667 557.333L205.333 557.667L204.667 557.333z"/>
<path style="fill:#9f9fa1; stroke:none;" d="M357 557L357 558L360 558L357 557z"/>
<path style="fill:#979799; stroke:none;" d="M208.667 558.333L209.333 558.667L208.667 558.333z"/>
<path style="fill:#b1b1b3; stroke:none;" d="M211 559L211 560L214 560L211 559z"/>
<path style="fill:#a9a9ab; stroke:none;" d="M350.667 559.333L351.333 559.667L350.667 559.333z"/>
<path style="fill:#888888; stroke:none;" d="M216.667 560.333L217.333 560.667L216.667 560.333z"/>
<path style="fill:#939393; stroke:none;" d="M345 560L345 561L348 561L345 560z"/>
<path style="fill:#aaaaaa; stroke:none;" d="M219.667 561.333L220.333 561.667L219.667 561.333z"/>
<path style="fill:#a0a0a0; stroke:none;" d="M341 561L341 562L344 562L341 561z"/>
<path style="fill:#929292; stroke:none;" d="M336.667 562.333L337.333 562.667L336.667 562.333z"/>
<path style="fill:#a5a5a5; stroke:none;" d="M229 563L229 564L232 564L229 563z"/>
<path style="fill:#818181; stroke:none;" d="M330 563L330 564L333 564L330 563z"/>
<path style="fill:#8d8d8d; stroke:none;" d="M234 564L234 565L238 565L234 564z"/>
<path style="fill:#9d9d9d; stroke:none;" d="M323 564L323 565L328 565L323 564z"/>
<path style="fill:#c2c2c2; stroke:none;" d="M238 565L238 566L243 566L238 565z"/>
<path style="fill:#8b8b8b; stroke:none;" d="M243 565L243 566L246 566L243 565z"/>
<path style="fill:#7e7e7e; stroke:none;" d="M317 565L317 566L320 566L317 565z"/>
<path style="fill:#b3b3b3; stroke:none;" d="M320 565L320 566L323 566L320 565z"/>
<path style="fill:#868686; stroke:none;" d="M250 566L250 567L254 567L250 566z"/>
<path style="fill:#888888; stroke:none;" d="M307 566L307 567L314 567L307 566z"/>
<path style="fill:#a6a6a6; stroke:none;" d="M259 567L259 568L264 568L259 567z"/>
<path style="fill:#717171; stroke:none;" d="M264 567L264 568L272 568L264 567z"/>
<path style="fill:#727272; stroke:none;" d="M292 567L292 568L299 568L292 567z"/>
<path style="fill:#c0c0c0; stroke:none;" d="M299 567L299 568L304 568L299 567z"/>
</svg>
