<svg xmlns="http://www.w3.org/2000/svg" xmlns:xlink="http://www.w3.org/1999/xlink" width="500" zoomAndPan="magnify" viewBox="0 0 375 374.999991" height="500" preserveAspectRatio="xMidYMid meet" version="1.0"><path fill="#5e3528" d="M 91.960938 176.355469 C 91.769531 178.972656 90.914062 181.515625 90.648438 184.140625 C 89.832031 190.035156 90.449219 196.789062 93.445312 202.046875 C 96.148438 206.648438 100.867188 209.445312 105.527344 211.75 C 104.976562 220.3125 107.898438 229.183594 113.152344 235.9375 C 117.734375 241.601562 124.363281 242.988281 131.308594 243.332031 C 135.589844 243.8125 139.714844 243.058594 143.960938 242.8125 C 148.355469 245.738281 152.855469 248.308594 158.03125 249.605469 C 167.769531 251.917969 177.785156 252.050781 187.042969 247.820312 C 192.121094 245.875 195.757812 242.332031 200.089844 239.257812 C 199.050781 244.203125 197.695312 248.613281 199.578125 253.605469 C 200.964844 257.421875 204.117188 259.652344 207.328125 261.863281 C 214.046875 266.15625 221.199219 269.703125 228.679688 272.460938 C 232.957031 274.269531 237.320312 275.078125 241.886719 273.808594 C 250.511719 271.511719 258.253906 264.941406 264.066406 258.382812 C 273.46875 247.773438 279.949219 235.210938 284.21875 221.753906 C 287.835938 210.191406 289.78125 197.109375 287.460938 185.109375 C 287.050781 183.445312 287.019531 181.667969 285.539062 180.554688 C 278.84375 175.082031 270.746094 170.988281 263.15625 166.882812 C 258.695312 164.648438 253.890625 161.648438 248.964844 160.847656 C 247.492188 160.554688 246.234375 161.058594 244.898438 161.609375 C 240.1875 163.714844 236.101562 166.730469 232.308594 170.1875 C 232.410156 166.160156 232.53125 162.273438 231.609375 158.3125 C 229.625 150.152344 226.292969 142.292969 222.3125 134.910156 C 217.195312 125.492188 209.730469 117.613281 199.738281 113.394531 C 189.183594 108.570312 176.738281 108.660156 166.40625 114.058594 C 160.039062 108.570312 152.503906 105.144531 144.375 103.144531 C 136.167969 101.195312 127.878906 99.578125 119.550781 101.90625 C 111.285156 104.417969 105.449219 111.796875 103.863281 120.132812 C 103.109375 124.835938 104.582031 129.054688 106.824219 133.109375 C 102.277344 133.164062 98.183594 134.003906 94.886719 137.359375 C 86.925781 145.199219 85.019531 158.441406 88.328125 168.808594 C 89.054688 171.609375 90.722656 173.8125 91.960938 176.355469 Z M 91.960938 176.355469 " fill-opacity="1" fill-rule="nonzero"/><path fill="#ffe3d4" d="M 156.203125 172.042969 C 159.375 172.273438 162.019531 173.417969 164.996094 174.386719 C 166.054688 169.3125 167.625 163.6875 166.945312 158.503906 C 166.503906 155.375 164.15625 152.488281 160.914062 152.0625 C 157.398438 152.121094 153.007812 153.734375 151.6875 157.296875 C 150.070312 162.066406 149.054688 167.082031 148.683594 172.105469 C 151.175781 172.050781 153.714844 171.882812 156.203125 172.042969 Z M 156.203125 172.042969 " fill-opacity="1" fill-rule="nonzero"/><path fill="#ffe3d4" d="M 245.601562 187.957031 C 240.074219 185.964844 235.070312 182.066406 230.480469 178.476562 C 229.464844 180.90625 228.617188 183.339844 227.308594 185.652344 C 225.621094 188.722656 223.417969 191.15625 221.398438 193.996094 C 222.425781 190.117188 224.074219 186.484375 224.972656 182.570312 C 227.453125 169.105469 224.066406 155.550781 217.402344 143.800781 C 213.425781 136.40625 209.050781 129.613281 201.988281 124.789062 C 196.359375 120.996094 189.429688 118.378906 182.566406 118.683594 C 173.367188 118.722656 164.332031 123.789062 159.945312 131.949219 C 156.941406 137.503906 155.386719 144.070312 153.714844 150.136719 C 156.796875 149.105469 159.632812 147.902344 162.957031 148.65625 C 167.496094 149.75 170.441406 154 170.828125 158.519531 C 171.300781 165.21875 169.753906 172.003906 166.207031 177.722656 C 162.746094 177.265625 159.632812 175.699219 156.1875 175.25 C 153.875 174.945312 151.503906 174.90625 149.179688 174.835938 C 149.582031 175.609375 150 176.378906 150.414062 177.148438 C 151.519531 178.980469 152.617188 180.730469 154.628906 181.667969 C 159.839844 184.050781 165.742188 183.140625 170.476562 180.089844 C 177.539062 175.515625 183.105469 168.433594 186.316406 160.6875 C 188.519531 155.777344 189.304688 150.640625 190.96875 145.574219 C 191.410156 149.871094 191.480469 154.128906 190.367188 158.335938 C 188.140625 167.179688 187.050781 176.164062 188.023438 185.277344 C 188.535156 189.996094 190.207031 194.613281 190.136719 199.253906 C 187.316406 197.023438 184.761719 194.734375 183.328125 191.347656 C 181.792969 187.964844 181.460938 184.507812 181.207031 180.84375 C 178.5 183.820312 175.632812 186.042969 172.078125 187.949219 C 171.847656 188.523438 171.609375 189.09375 171.367188 189.660156 C 171.609375 189.09375 171.847656 188.523438 172.078125 187.949219 C 168.777344 189.109375 165.359375 189.734375 161.898438 190.203125 C 161.394531 194.574219 160.601562 198.644531 158.445312 202.527344 C 161.625 207.0625 163.988281 212.464844 164.726562 217.976562 C 165.367188 222.898438 163.1875 227.050781 160.625 231.050781 C 158.480469 234.363281 155.636719 236.683594 152.695312 239.25 C 159.816406 242.5 167.601562 244.019531 175.417969 243.554688 C 182.519531 242.859375 189.925781 240.121094 195.171875 235.171875 C 200.011719 230.5625 203.804688 225.136719 206.953125 219.273438 C 207.152344 224.082031 205.894531 228.34375 204.046875 232.722656 C 209.417969 234.179688 214.175781 236.457031 218.804688 239.53125 C 223.171875 234.648438 226.8125 229.234375 230.105469 223.585938 C 229.683594 223.699219 229.265625 223.816406 228.847656 223.933594 C 229.265625 223.816406 229.683594 223.699219 230.105469 223.585938 C 236.914062 212.558594 242.414062 200.542969 245.601562 187.957031 Z M 167.289062 178.300781 C 167.515625 178.203125 167.734375 178.09375 167.9375 177.964844 C 167.734375 178.09375 167.515625 178.203125 167.289062 178.300781 Z M 170.195312 175.058594 C 170.144531 175.183594 170.09375 175.304688 170.039062 175.425781 C 170.09375 175.304688 170.144531 175.183594 170.195312 175.058594 C 170.515625 174.226562 170.785156 173.394531 171.039062 172.566406 C 170.785156 173.394531 170.515625 174.226562 170.195312 175.058594 Z M 174.429688 164.839844 C 174.273438 165.042969 174.125 165.242188 173.980469 165.449219 C 174.125 165.242188 174.273438 165.042969 174.429688 164.839844 C 174.777344 164.378906 175.113281 163.910156 175.4375 163.441406 C 175.113281 163.910156 174.777344 164.378906 174.429688 164.839844 Z M 193.242188 201.746094 C 194.085938 202.375 194.960938 202.957031 195.882812 203.453125 C 194.960938 202.957031 194.085938 202.375 193.242188 201.746094 Z M 196.800781 222.964844 C 197.417969 222.792969 198.03125 222.59375 198.632812 222.371094 C 198.03125 222.59375 197.417969 222.792969 196.800781 222.964844 Z M 198.964844 204.691406 C 199.617188 204.863281 200.28125 204.980469 200.953125 205.054688 C 200.28125 204.980469 199.617188 204.863281 198.964844 204.691406 Z M 209.355469 214.152344 C 208.808594 214.929688 208.21875 215.660156 207.59375 216.351562 C 208.21875 215.660156 208.808594 214.929688 209.355469 214.152344 Z M 214.617188 187.226562 C 214.808594 187.230469 215 187.230469 215.1875 187.222656 C 215 187.230469 214.808594 187.230469 214.617188 187.226562 Z M 214.617188 187.226562 " fill-opacity="1" fill-rule="nonzero"/><path fill="#ffe3d4" d="M 129.695312 217.710938 C 123.820312 217.3125 118.222656 215.824219 112.511719 214.503906 C 113 217.878906 113.800781 221.121094 115.128906 224.273438 C 116.660156 227.9375 118.445312 232.21875 122.210938 234.082031 C 126.300781 236.089844 131.707031 235.960938 136.175781 235.976562 C 143.289062 235.953125 150.351562 233.355469 154.769531 227.59375 C 156.652344 225.074219 158.742188 221.90625 158.496094 218.632812 C 158.261719 214.609375 156.574219 210.535156 154.636719 207.046875 C 150.375 209.96875 146.722656 213.28125 142.09375 215.726562 C 142.191406 216.085938 142.300781 216.457031 142.40625 216.835938 C 142.300781 216.457031 142.191406 216.085938 142.09375 215.726562 C 138.234375 217.832031 134.003906 218.25 129.695312 217.710938 Z M 129.695312 217.710938 " fill-opacity="1" fill-rule="nonzero"/><path fill="#ffe3d4" d="M 122.234375 136.453125 C 129.695312 140.757812 137.847656 144.277344 145.824219 147.527344 C 146.9375 143.71875 147.925781 139.878906 149.148438 136.132812 C 148.8125 136.007812 148.480469 135.882812 148.144531 135.757812 C 148.480469 135.882812 148.8125 136.007812 149.148438 136.132812 C 150.542969 132.039062 152.320312 127.941406 154.761719 124.363281 C 156.332031 122.027344 158.582031 120.042969 160.496094 117.964844 C 153.363281 112.996094 144.320312 110.394531 135.902344 108.53125 C 129.503906 107.355469 122.03125 106.875 116.730469 111.355469 C 114.066406 113.929688 111.886719 117.355469 111.269531 121.042969 C 110.765625 124.148438 111.773438 127.324219 113.710938 129.757812 C 115.914062 132.550781 119.191406 134.679688 122.234375 136.453125 Z M 133.210938 130.292969 C 133.539062 130.445312 133.863281 130.597656 134.191406 130.742188 C 133.863281 130.597656 133.539062 130.445312 133.210938 130.292969 C 131.929688 129.691406 130.664062 129.046875 129.421875 128.359375 C 130.664062 129.046875 131.929688 129.691406 133.210938 130.292969 Z M 133.210938 130.292969 " fill-opacity="1" fill-rule="nonzero"/><path fill="#ffe3d4" d="M 108.746094 178.730469 C 119.933594 182.597656 132.394531 184.578125 144.046875 181.683594 C 141.988281 176.242188 141.035156 170.660156 141.535156 164.832031 C 142.335938 160.007812 143.757812 155.472656 144.929688 150.75 C 136.472656 148.421875 127.597656 145.960938 119.628906 142.261719 C 117.09375 141.117188 114.707031 139.4375 111.976562 139.085938 C 108.714844 138.605469 104.65625 138.519531 101.675781 140.167969 C 98.183594 142.320312 96.167969 146.734375 95.085938 150.535156 C 93.636719 156.898438 93.507812 163.503906 96.367188 169.507812 C 98.90625 174.316406 103.8125 176.9375 108.746094 178.730469 Z M 108.746094 178.730469 " fill-opacity="1" fill-rule="nonzero"/><path fill="#ffe3d4" d="M 140.78125 189.613281 C 128.71875 191.46875 116.765625 189.492188 105.441406 185.210938 C 102.835938 184.21875 100.492188 182.675781 97.878906 181.746094 C 96.976562 184.773438 97.136719 188.238281 97.398438 191.355469 C 97.777344 194.765625 98.0625 197.917969 100.59375 200.484375 C 104.527344 204.542969 110.453125 206.976562 115.820312 208.480469 C 121.648438 210.054688 127.710938 211.449219 133.765625 211.703125 C 138.273438 211.886719 141.804688 209.40625 145.328125 206.964844 C 148.164062 204.894531 151.28125 202.613281 153.355469 199.75 C 155.484375 196.804688 155.4375 193.222656 155.730469 189.742188 C 153.496094 188.964844 151.230469 187.882812 148.894531 187.507812 C 146.152344 187.683594 143.449219 188.964844 140.78125 189.613281 Z M 125.25 202.414062 C 125.792969 202.398438 126.332031 202.363281 126.867188 202.316406 C 126.332031 202.363281 125.792969 202.398438 125.25 202.414062 Z M 135.351562 200.183594 C 134.148438 200.722656 132.898438 201.160156 131.613281 201.5 C 132.898438 201.160156 134.148438 200.722656 135.351562 200.183594 C 135.777344 199.976562 136.171875 199.757812 136.542969 199.519531 C 136.171875 199.757812 135.777344 199.976562 135.351562 200.183594 Z M 142.203125 190.242188 C 142.285156 189.964844 142.367188 189.683594 142.445312 189.40625 C 142.367188 189.683594 142.285156 189.964844 142.203125 190.242188 Z M 142.203125 190.242188 " fill-opacity="1" fill-rule="nonzero"/><path fill="#6d6d6d" d="M 238.128906 175.011719 C 241.078125 176.890625 244.070312 178.691406 247.042969 180.53125 C 248.996094 177.753906 248.453125 175.019531 248.554688 171.835938 C 253.378906 175.609375 252.753906 181.109375 252.382812 186.605469 C 250.695312 199.519531 245.199219 212.261719 238.746094 223.496094 C 235.953125 228.953125 236.335938 236.113281 238.785156 241.636719 C 241.71875 247.859375 249.5 249.84375 255.621094 247.453125 C 262.089844 244.929688 266.589844 238.875 269.996094 233.082031 C 273.535156 227.601562 275.816406 221.601562 277.738281 215.390625 C 280.246094 206.964844 281.65625 198.300781 280.355469 189.523438 C 279.902344 187.683594 279.574219 185.300781 277.691406 184.378906 C 269.5625 179.652344 261.402344 174.972656 253.097656 170.554688 C 251.792969 169.882812 250.46875 169.035156 249.035156 168.683594 C 244.6875 169.402344 240.996094 171.714844 238.128906 175.011719 Z M 262.53125 223.519531 C 265.863281 229 263.636719 236.523438 258.078125 239.59375 C 253.578125 242.089844 247.675781 240.699219 245.007812 236.226562 C 241.445312 230.21875 244.511719 222.121094 250.984375 219.671875 C 255.203125 217.96875 260.175781 219.648438 262.53125 223.519531 Z M 262.53125 223.519531 " fill-opacity="1" fill-rule="nonzero"/><path fill="#ffffff" d="M 249.460938 234.929688 C 250.964844 236.425781 253.25 236.929688 255.210938 236.066406 C 259.375 234.378906 260.960938 228.867188 258.398438 225.183594 C 256.980469 223.03125 254.339844 222.289062 251.9375 223.105469 C 247.339844 224.792969 246.160156 231.496094 249.460938 234.929688 Z M 249.460938 234.929688 " fill-opacity="1" fill-rule="nonzero"/><path fill="#6d6d6d" d="M 237.289062 246.324219 C 233.835938 242.125 233.4375 237.378906 232.867188 232.195312 C 228.742188 237.675781 223.820312 243.089844 217.957031 246.730469 C 215.28125 248.4375 212.398438 249.1875 209.25 249.386719 C 210.804688 247.738281 212.429688 246.171875 213.984375 244.515625 C 211.886719 243.53125 209.8125 242.515625 207.699219 241.578125 C 206.375 244.769531 205.457031 247.921875 205.328125 251.402344 C 213.398438 257.867188 222.976562 262.605469 232.605469 266.285156 C 235.230469 267.550781 238.128906 266.324219 240.660156 265.398438 C 248.035156 262.277344 254.402344 256.035156 259.480469 249.964844 C 252.214844 253.378906 242.605469 252.917969 237.289062 246.324219 Z M 237.289062 246.324219 " fill-opacity="1" fill-rule="nonzero"/><path fill="#e5b1a3" d="M 122.234375 136.453125 C 129.695312 140.757812 137.847656 144.277344 145.824219 147.527344 C 146.9375 143.71875 147.925781 139.878906 149.148438 136.132812 C 143.785156 134.085938 138.425781 132.75 133.210938 130.292969 C 128.65625 128.15625 124.300781 125.476562 120.457031 122.21875 C 118.980469 120.910156 117.226562 119.253906 116.636719 117.324219 C 116.210938 115.425781 116.613281 113.285156 116.730469 111.355469 C 114.066406 113.929688 111.886719 117.355469 111.269531 121.042969 C 110.765625 124.148438 111.773438 127.324219 113.710938 129.757812 C 115.914062 132.550781 119.191406 134.679688 122.234375 136.453125 Z M 122.234375 136.453125 " fill-opacity="1" fill-rule="nonzero"/><path fill="#e5b1a3" d="M 154.628906 181.667969 C 159.839844 184.050781 165.742188 183.140625 170.476562 180.089844 C 177.539062 175.515625 183.105469 168.433594 186.316406 160.6875 C 188.519531 155.777344 189.304688 150.640625 190.96875 145.574219 C 191.410156 149.871094 191.480469 154.128906 190.367188 158.335938 C 188.140625 167.179688 187.050781 176.164062 188.023438 185.277344 C 188.535156 189.996094 190.207031 194.613281 190.136719 199.253906 C 192.464844 201.175781 194.804688 203.199219 197.671875 204.277344 C 201.074219 205.566406 204.863281 205.3125 208.289062 204.230469 C 213.671875 202.453125 218.390625 198.804688 221.398438 193.996094 C 222.425781 190.117188 224.074219 186.484375 224.972656 182.570312 C 221.921875 185.164062 218.8125 187.285156 214.617188 187.226562 C 209.105469 187.355469 204.460938 183.949219 201.957031 179.210938 C 197.726562 171.449219 198.59375 162.617188 197.277344 154.128906 C 196.695312 150.449219 195.941406 145.824219 193.441406 142.917969 C 191.25 140.488281 188.453125 140.503906 185.433594 140.222656 C 182.894531 149 179.957031 157.433594 174.429688 164.839844 C 171.980469 167.945312 171.566406 171.507812 170.195312 175.058594 C 169.410156 177.058594 167.992188 178.46875 165.765625 178.667969 C 160.6875 179.066406 155.386719 178.164062 150.414062 177.148438 C 151.519531 178.980469 152.617188 180.730469 154.628906 181.667969 Z M 154.628906 181.667969 " fill-opacity="1" fill-rule="nonzero"/><path fill="#e5b1a3" d="M 108.746094 178.730469 C 119.933594 182.597656 132.394531 184.578125 144.046875 181.683594 C 141.988281 176.242188 141.035156 170.660156 141.535156 164.832031 C 141.253906 166.53125 141.011719 168.234375 140.789062 169.9375 C 130.402344 170.203125 120.085938 168.539062 110.246094 165.242188 C 105.464844 163.609375 101.066406 161.679688 97.847656 157.609375 C 96.125 155.570312 95.339844 153.167969 95.085938 150.535156 C 93.636719 156.898438 93.507812 163.503906 96.367188 169.507812 C 98.90625 174.316406 103.8125 176.9375 108.746094 178.730469 Z M 108.746094 178.730469 " fill-opacity="1" fill-rule="nonzero"/><path fill="#e5b1a3" d="M 140.78125 189.613281 L 142.445312 189.40625 C 141.15625 193.894531 139.890625 198.003906 135.351562 200.183594 C 127.65625 203.636719 117.949219 202.871094 110.324219 199.558594 C 105.382812 197.527344 101.828125 194.15625 97.398438 191.355469 C 97.777344 194.765625 98.0625 197.917969 100.59375 200.484375 C 104.527344 204.542969 110.453125 206.976562 115.820312 208.480469 C 121.648438 210.054688 127.710938 211.449219 133.765625 211.703125 C 138.273438 211.886719 141.804688 209.40625 145.328125 206.964844 C 148.164062 204.894531 151.28125 202.613281 153.355469 199.75 C 155.484375 196.804688 155.4375 193.222656 155.730469 189.742188 C 153.496094 188.964844 151.230469 187.882812 148.894531 187.507812 C 146.152344 187.683594 143.449219 188.964844 140.78125 189.613281 Z M 140.78125 189.613281 " fill-opacity="1" fill-rule="nonzero"/><path fill="#e5b1a3" d="M 216.820312 224.34375 C 212.503906 222.320312 210.75 218.449219 209.355469 214.152344 C 203.132812 222.992188 191.402344 226.160156 181.4375 222.121094 C 176.9375 220.199219 172.765625 216.671875 170.324219 212.421875 C 167.464844 207.101562 167.113281 200.4375 169.21875 194.796875 C 170.074219 192.476562 171.164062 190.246094 172.078125 187.949219 C 168.777344 189.109375 165.359375 189.734375 161.898438 190.203125 C 161.394531 194.574219 160.601562 198.644531 158.445312 202.527344 C 161.625 207.0625 163.988281 212.464844 164.726562 217.976562 C 165.367188 222.898438 163.1875 227.050781 160.625 231.050781 C 158.480469 234.363281 155.636719 236.683594 152.695312 239.25 C 159.816406 242.5 167.601562 244.019531 175.417969 243.554688 C 182.519531 242.859375 189.925781 240.121094 195.171875 235.171875 C 200.011719 230.5625 203.804688 225.136719 206.953125 219.273438 C 207.152344 224.082031 205.894531 228.34375 204.046875 232.722656 C 209.417969 234.179688 214.175781 236.457031 218.804688 239.53125 C 223.171875 234.648438 226.8125 229.234375 230.105469 223.585938 C 225.613281 224.792969 221.382812 226.410156 216.820312 224.34375 Z M 216.820312 224.34375 " fill-opacity="1" fill-rule="nonzero"/><path fill="#e5b1a3" d="M 154.769531 227.59375 C 156.652344 225.074219 158.742188 221.90625 158.496094 218.632812 C 158.261719 214.609375 156.574219 210.535156 154.636719 207.046875 C 150.375 209.96875 146.722656 213.28125 142.09375 215.726562 C 142.535156 217.359375 143.230469 219.289062 142.984375 220.992188 C 142.398438 223.664062 140.140625 225.519531 137.730469 226.570312 C 134.085938 228.152344 129.738281 228.34375 125.828125 227.960938 C 121.882812 227.53125 118.675781 225.875 115.128906 224.273438 C 116.660156 227.9375 118.445312 232.21875 122.210938 234.082031 C 126.300781 236.089844 131.707031 235.960938 136.175781 235.976562 C 143.289062 235.953125 150.351562 233.355469 154.769531 227.59375 Z M 154.769531 227.59375 " fill-opacity="1" fill-rule="nonzero"/></svg>