<svg xmlns="http://www.w3.org/2000/svg" xmlns:xlink="http://www.w3.org/1999/xlink" width="500" zoomAndPan="magnify" viewBox="0 0 375 374.999991" height="500" preserveAspectRatio="xMidYMid meet" version="1.0"><defs><clipPath id="6fca82e330"><path d="M 87 109 L 288 109 L 288 265.714844 L 87 265.714844 Z M 87 109 " clip-rule="nonzero"/></clipPath></defs><g clip-path="url(#6fca82e330)"><path fill="#5e3528" d="M 284.324219 194.011719 C 279.214844 190.191406 273.351562 187.175781 267.71875 184.195312 C 264.53125 182.601562 261.367188 180.640625 257.8125 180.113281 C 256.707031 179.933594 255.792969 180.332031 254.800781 180.75 C 251.292969 182.34375 248.132812 184.582031 245.382812 187.273438 C 246.128906 180.929688 244.453125 174.96875 241.851562 169.25 C 239.355469 162.546875 235.640625 155.667969 230.382812 150.722656 C 223.007812 143.90625 212.683594 140.414062 202.722656 142.640625 C 198.714844 143.460938 195.332031 145.4375 191.953125 147.640625 C 189.476562 145.996094 186.796875 144.832031 184.15625 143.496094 C 175.117188 138.96875 166.613281 133.671875 158.355469 127.863281 C 153.054688 124.15625 147.917969 120.242188 142.472656 116.746094 C 139.675781 114.988281 137.363281 112.984375 134.320312 111.652344 C 128.636719 109.082031 121.746094 108.992188 116.285156 112.179688 C 111.847656 114.683594 108.6875 119.175781 107.847656 124.191406 C 107.136719 127.761719 107.859375 131.667969 109.042969 135.070312 C 110.136719 138.28125 113.074219 140.730469 115.464844 143.046875 C 119.722656 147.042969 124.636719 149.996094 129.375 153.34375 C 123.484375 151.265625 117.929688 148.1875 112.226562 145.640625 C 107.984375 143.570312 103.441406 142.226562 98.6875 143.238281 C 94.359375 143.921875 90.699219 146.796875 88.851562 150.734375 C 86.785156 155.203125 86.753906 160.609375 88.398438 165.210938 C 90.78125 172.386719 96.160156 177.945312 102.796875 181.4375 C 114.433594 187.511719 127.042969 191.652344 140.097656 193.257812 C 138.457031 198.683594 138.304688 205.351562 140.96875 210.484375 C 143.070312 214.390625 146.46875 216.121094 150.128906 218.253906 C 150.640625 220.699219 150.152344 223.269531 150.925781 225.722656 C 152.296875 230.636719 154.695312 236.207031 159.105469 239.128906 C 163.175781 241.796875 169.03125 242.015625 173.761719 241.964844 C 175.527344 242.035156 177.785156 241.207031 179.421875 241.65625 C 183.128906 244.191406 187.101562 246.1875 191.5625 247 C 197.109375 248.023438 203.359375 248.222656 208.757812 246.367188 C 211.707031 245.359375 214.679688 243.980469 217.148438 242.058594 C 218.488281 241.011719 219.785156 239.914062 221.191406 238.945312 C 220.515625 242.605469 219.492188 245.820312 220.851562 249.511719 C 221.867188 252.351562 224.234375 254.0625 226.621094 255.703125 C 232.480469 259.449219 238.773438 262.441406 245.382812 264.613281 C 248.820312 265.714844 252.386719 265.054688 255.632812 263.675781 C 260.609375 261.550781 265.019531 257.808594 268.65625 253.867188 C 276.722656 245.054688 282.203125 234.007812 285.335938 222.550781 C 287.539062 214.265625 288.5 204.992188 286.464844 196.585938 C 286.261719 195.390625 285.191406 194.742188 284.324219 194.011719 Z M 284.324219 194.011719 " fill-opacity="1" fill-rule="nonzero"/></g><path fill="#ffe3d4" d="M 195.269531 188.9375 C 196.527344 185.015625 197.566406 180.367188 196.273438 176.328125 C 195.53125 174.292969 194.332031 172.140625 191.816406 172.339844 C 188.683594 172.746094 185.121094 175.171875 184.585938 178.460938 C 183.78125 181.347656 183.082031 184.25 182.828125 187.242188 C 187.113281 187.050781 191.238281 187.386719 195.269531 188.9375 Z M 195.269531 188.9375 " fill-opacity="1" fill-rule="nonzero"/><path fill="#ffe3d4" d="M 236.980469 205.082031 C 238.023438 201.992188 239.324219 199.15625 239.949219 195.929688 C 241.539062 187.484375 239.679688 178.964844 236.265625 171.207031 C 233.152344 165.054688 229.367188 157.933594 223.65625 153.816406 C 219.246094 150.558594 213.542969 148.296875 207.988281 148.566406 C 201.4375 148.636719 194.863281 152.140625 191.539062 157.832031 C 189.132812 161.886719 187.902344 166.902344 186.652344 171.417969 C 189.0625 170.375 191.136719 169.226562 193.859375 169.824219 C 196.808594 170.375 198.277344 173.292969 199.097656 175.875 C 200.589844 181.167969 199.082031 187.195312 196.796875 192.054688 C 192.234375 190.113281 187.722656 189.023438 182.714844 189.28125 C 182.871094 189.699219 183.027344 190.125 183.191406 190.542969 C 183.578125 190.605469 183.960938 190.675781 184.34375 190.753906 C 183.960938 190.675781 183.578125 190.605469 183.191406 190.542969 C 184.0625 192.777344 185.210938 194.796875 187.492188 195.839844 C 191.453125 197.546875 195.824219 196.675781 199.332031 194.359375 C 204.597656 190.847656 208.722656 185.53125 211.070312 179.683594 C 212.621094 176.101562 213.179688 172.359375 214.429688 168.699219 C 214.769531 171.765625 214.816406 174.820312 214.066406 177.839844 C 212.28125 184.929688 211.277344 192.621094 212.417969 199.894531 C 212.886719 203.070312 213.949219 205.792969 213.636719 208.902344 C 212.023438 207.359375 210.378906 206.09375 209.28125 204.09375 C 207.640625 201.265625 207.359375 198.296875 207.109375 195.101562 C 204.917969 197.511719 202.601562 199.242188 199.640625 200.613281 C 197.34375 201.398438 194.984375 201.78125 192.589844 202.117188 C 192.234375 205.371094 191.574219 208.398438 190.148438 211.367188 C 192.632812 215.3125 195.007812 220.367188 194.777344 225.113281 C 193.941406 230.953125 190.125 235.199219 185.726562 238.8125 C 191.160156 241.316406 197.230469 242.503906 203.203125 242.011719 C 208.75 241.292969 214.46875 239.003906 218.390625 234.914062 C 221.699219 231.640625 224.085938 227.796875 226.53125 223.886719 C 226.609375 227.539062 225.699219 230.671875 224.214844 233.960938 C 228.273438 235.007812 231.820312 236.710938 235.269531 239.058594 C 238.785156 235.207031 241.566406 230.953125 244.207031 226.472656 C 249.105469 218.386719 253.121094 209.59375 255.425781 200.410156 C 251.316406 198.996094 247.554688 195.996094 244.132812 193.378906 C 242.5 198.011719 240.300781 201.476562 236.980469 205.082031 Z M 209.15625 166.605469 C 209.402344 165.945312 209.660156 165.285156 209.941406 164.636719 C 209.660156 165.285156 209.402344 165.945312 209.15625 166.605469 Z M 198.089844 218.253906 C 197.714844 217.488281 197.410156 216.691406 197.167969 215.875 C 197.046875 215.464844 196.945312 215.050781 196.855469 214.632812 C 196.945312 215.050781 197.046875 215.464844 197.167969 215.875 C 197.410156 216.691406 197.714844 217.488281 198.089844 218.253906 C 198.386719 218.808594 198.714844 219.34375 199.070312 219.855469 C 198.714844 219.34375 198.386719 218.808594 198.089844 218.253906 Z M 214.636719 227.257812 C 214.371094 227.28125 214.109375 227.296875 213.847656 227.304688 C 214.109375 227.296875 214.371094 227.28125 214.636719 227.257812 C 214.964844 227.238281 215.289062 227.210938 215.609375 227.171875 C 215.289062 227.210938 214.964844 227.238281 214.636719 227.257812 Z M 215.238281 166.253906 C 215.019531 166.066406 214.785156 165.902344 214.542969 165.757812 C 214.785156 165.902344 215.019531 166.066406 215.238281 166.253906 C 215.460938 166.445312 215.675781 166.65625 215.875 166.898438 C 215.675781 166.65625 215.460938 166.445312 215.238281 166.253906 Z M 218.332031 212.449219 C 218.09375 212.347656 217.863281 212.242188 217.640625 212.125 C 217.863281 212.242188 218.09375 212.347656 218.332031 212.449219 C 218.460938 212.503906 218.59375 212.558594 218.726562 212.609375 C 218.59375 212.558594 218.460938 212.503906 218.332031 212.449219 Z M 218.332031 212.449219 " fill-opacity="1" fill-rule="nonzero"/><path fill="#ffe3d4" d="M 100.988281 173.058594 C 109.277344 178.210938 118.519531 181.929688 127.902344 184.59375 C 135.847656 186.6875 143.980469 188.148438 152.136719 189.171875 C 155.015625 189.5625 157.851562 189.890625 160.65625 190.617188 C 156.210938 191.066406 151.917969 190.578125 147.777344 192.550781 C 148.070312 192.699219 148.359375 192.855469 148.648438 193.011719 C 148.359375 192.855469 148.070312 192.699219 147.777344 192.550781 C 146.148438 193.628906 144.699219 195.074219 144.28125 197.042969 C 143.90625 198.976562 144.046875 201.039062 144.136719 202.996094 C 144.453125 205.601562 144.933594 208.066406 146.839844 210.019531 C 149.292969 212.496094 152.796875 214.101562 156.070312 215.199219 C 160.03125 216.457031 164.179688 217.390625 168.304688 217.949219 C 170.425781 218.199219 172.648438 218.457031 174.710938 217.738281 C 177.023438 216.949219 179.175781 215.390625 181.140625 213.960938 C 183.101562 212.480469 185.34375 210.765625 186.597656 208.628906 C 187.789062 206.640625 187.789062 204.082031 187.945312 201.835938 C 185.523438 200.917969 183.246094 200.320312 181.5625 198.199219 C 180.046875 196.574219 179.054688 194.03125 177.203125 192.820312 C 174.726562 192.335938 171.824219 192.6875 169.75 194.214844 C 168.566406 195.046875 167.46875 196.011719 166.308594 196.882812 C 167.214844 195.011719 168.199219 193.246094 169.734375 191.800781 C 171.746094 189.847656 174.332031 188.882812 176.921875 187.957031 C 177.035156 186.542969 177.121094 185.128906 177.257812 183.714844 C 178.125 178.074219 180.070312 172.5 181.464844 166.949219 C 182.828125 161.6875 184.601562 156.632812 187.667969 152.097656 C 174.699219 146.625 162.984375 139.203125 151.601562 131 C 145.332031 126.429688 138.96875 121.867188 132.308594 117.871094 C 130.304688 116.636719 128.136719 116.03125 125.785156 115.949219 C 122.398438 115.75 119.085938 116.648438 116.980469 119.453125 C 113.171875 124.28125 113.957031 132.03125 117.5625 136.769531 C 119.78125 139.652344 122.992188 141.898438 125.914062 144.023438 C 133.359375 149.183594 141.148438 153.890625 149.304688 157.851562 C 156.667969 161.460938 164.3125 164.46875 171.765625 167.90625 C 172.882812 166.257812 174.074219 164.703125 175.527344 163.332031 C 175.402344 168.738281 173.007812 172.925781 171.128906 177.808594 C 170.839844 177.964844 170.558594 178.121094 170.269531 178.277344 C 170.296875 176.011719 170.429688 173.800781 170.675781 171.554688 C 166.386719 170.40625 161.992188 169.78125 157.695312 168.660156 C 143.355469 165.15625 130.171875 159.699219 116.691406 153.824219 C 114.054688 152.703125 111.554688 151.242188 108.867188 150.242188 C 106.089844 149.421875 102.882812 149.464844 100.210938 150.667969 C 95.796875 152.496094 93.386719 156.992188 93.710938 161.664062 C 93.867188 166.546875 96.914062 170.589844 100.988281 173.058594 Z M 154.761719 196.136719 C 154.453125 196.015625 154.148438 195.886719 153.851562 195.75 C 154.148438 195.886719 154.453125 196.015625 154.761719 196.136719 C 155.09375 196.269531 155.425781 196.398438 155.761719 196.523438 C 155.425781 196.398438 155.09375 196.269531 154.761719 196.136719 Z M 121.074219 119.984375 C 121.042969 120.09375 121.019531 120.203125 120.996094 120.3125 C 121.019531 120.203125 121.042969 120.09375 121.074219 119.984375 C 121.113281 119.902344 121.15625 119.820312 121.199219 119.738281 C 121.15625 119.820312 121.113281 119.902344 121.074219 119.984375 Z M 159 154.769531 C 157.972656 154.164062 156.941406 153.554688 155.910156 152.945312 C 156.941406 153.554688 157.972656 154.164062 159 154.769531 C 159.832031 155.253906 160.671875 155.738281 161.515625 156.210938 C 160.671875 155.738281 159.832031 155.253906 159 154.769531 Z M 169.382812 159.964844 C 168.933594 159.800781 168.480469 159.625 168.035156 159.445312 C 168.480469 159.625 168.933594 159.800781 169.382812 159.964844 C 169.824219 160.113281 170.261719 160.234375 170.695312 160.335938 C 170.261719 160.234375 169.824219 160.113281 169.382812 159.964844 Z M 164.839844 198.707031 C 165.78125 198.820312 166.726562 198.902344 167.671875 198.949219 C 166.726562 198.902344 165.78125 198.820312 164.839844 198.707031 C 164.210938 198.632812 163.585938 198.542969 162.960938 198.4375 C 163.585938 198.542969 164.210938 198.632812 164.839844 198.707031 Z M 111.742188 168.929688 C 112.914062 169.535156 114.097656 170.117188 115.296875 170.675781 C 114.097656 170.117188 112.914062 169.535156 111.742188 168.929688 C 111.363281 168.730469 110.980469 168.523438 110.597656 168.308594 C 110.980469 168.523438 111.363281 168.730469 111.742188 168.929688 Z M 99.15625 153.300781 C 99.078125 153.523438 99.003906 153.75 98.949219 153.976562 C 99.003906 153.75 99.078125 153.523438 99.15625 153.300781 Z M 99.15625 153.300781 " fill-opacity="1" fill-rule="nonzero"/><path fill="#ffe3d4" d="M 186.921875 230.515625 C 188.382812 228.707031 190 226.328125 190.125 223.949219 C 190.046875 220.746094 188.691406 217.476562 187.128906 214.707031 C 183.921875 216.964844 181.074219 219.457031 177.566406 221.367188 C 173.058594 223.601562 168.765625 222.820312 164 222.160156 C 161.15625 221.714844 158.417969 220.859375 155.585938 220.367188 C 155.914062 223.179688 156.648438 225.722656 157.808594 228.300781 C 158.957031 230.976562 160.320312 233.839844 163.132812 235.117188 C 166.128906 236.433594 169.945312 236.375 173.164062 236.378906 C 178.375 236.390625 183.53125 234.59375 186.921875 230.515625 Z M 176.902344 227.121094 C 176.796875 227.246094 176.691406 227.371094 176.578125 227.492188 C 176.691406 227.371094 176.796875 227.246094 176.902344 227.121094 C 176.992188 227.015625 177.074219 226.910156 177.148438 226.800781 C 177.074219 226.910156 176.992188 227.015625 176.902344 227.121094 Z M 177.824219 224.726562 C 177.839844 224.484375 177.84375 224.238281 177.832031 223.992188 C 177.84375 224.238281 177.839844 224.484375 177.824219 224.726562 Z M 177.824219 224.726562 " fill-opacity="1" fill-rule="nonzero"/><path fill="#6d6d6d" d="M 279.433594 197.691406 C 272.777344 193.863281 266.132812 190.039062 259.328125 186.484375 C 258.839844 186.183594 258.347656 186.039062 257.84375 186.050781 C 254.617188 186.574219 251.953125 188.351562 249.777344 190.710938 C 252.050781 192.160156 254.359375 193.59375 256.726562 194.886719 C 257.773438 192.753906 257.65625 190.6875 257.621094 188.386719 C 258.824219 189.511719 259.953125 190.484375 260.277344 192.203125 C 261.203125 196.355469 260.433594 201.09375 259.4375 205.183594 C 257.890625 211.316406 255.511719 217.257812 252.585938 222.859375 C 251.371094 225.25 249.632812 227.558594 249.160156 230.175781 C 248.425781 233.65625 248.875 237.722656 250.464844 240.921875 C 252.855469 245.457031 258.738281 246.785156 263.257812 244.851562 C 268.109375 242.800781 271.320312 238.308594 273.910156 233.9375 C 276.503906 229.910156 278.109375 225.519531 279.539062 220.96875 C 281.476562 214.59375 282.460938 208.113281 281.492188 201.464844 C 281.117188 200.0625 280.898438 198.371094 279.433594 197.691406 Z M 265.429688 238.703125 C 262.117188 240.980469 257.394531 240.230469 255.164062 236.828125 C 252.1875 232.390625 254.503906 226.148438 259.359375 224.214844 C 262.511719 222.890625 266.269531 224.09375 268.085938 226.976562 C 270.429688 230.816406 269.195312 236.21875 265.429688 238.703125 Z M 265.429688 238.703125 " fill-opacity="1" fill-rule="nonzero"/><path fill="#ffffff" d="M 260.585938 226.628906 C 257.789062 227.371094 256.417969 230.550781 257.0625 233.222656 C 257.53125 235.261719 259.261719 236.972656 261.46875 236.75 C 265.027344 236.351562 266.949219 232.117188 265.457031 229.011719 C 264.617188 227.09375 262.621094 226.132812 260.585938 226.628906 Z M 260.585938 226.628906 " fill-opacity="1" fill-rule="nonzero"/><path fill="#6d6d6d" d="M 249.128906 244.046875 C 246.660156 241.039062 246.203125 237.253906 245.960938 233.503906 C 242.726562 237.679688 238.832031 242.035156 234.21875 244.699219 C 232.332031 245.832031 230.269531 246.28125 228.085938 246.40625 C 229.289062 245.199219 230.53125 244.03125 231.710938 242.796875 C 230.15625 242.046875 228.605469 241.296875 227.054688 240.542969 C 225.960938 242.980469 225.347656 245.222656 225.191406 247.910156 C 230.683594 252.363281 237.246094 255.65625 243.761719 258.335938 C 245.492188 258.9375 246.851562 259.863281 248.75 259.328125 C 255.558594 257.835938 261.40625 252.042969 265.796875 246.929688 C 260.207031 249.367188 253.1875 249.078125 249.128906 244.046875 Z M 249.128906 244.046875 " fill-opacity="1" fill-rule="nonzero"/><path fill="#e5b1a3" d="M 125.914062 144.023438 C 133.359375 149.183594 141.148438 153.890625 149.304688 157.851562 C 156.667969 161.460938 164.3125 164.46875 171.765625 167.90625 C 172.882812 166.257812 174.074219 164.703125 175.527344 163.332031 C 175.402344 168.738281 173.007812 172.925781 171.128906 177.808594 C 171.207031 178.851562 171.320312 179.882812 171.441406 180.917969 C 173.976562 177.203125 175.675781 173.257812 177.648438 169.152344 C 179.074219 166.183594 180.003906 163.054688 180.839844 159.886719 C 176.898438 160.582031 173.308594 161.300781 169.382812 159.964844 C 165.761719 158.652344 162.328125 156.699219 159 154.769531 C 150.242188 149.601562 141.222656 144.222656 133.257812 137.902344 C 129.253906 134.703125 125.371094 131.285156 122.691406 126.867188 C 121.511719 124.910156 120.429688 122.28125 121.074219 119.984375 C 121.898438 118.1875 124.195312 116.996094 125.785156 115.949219 C 122.398438 115.75 119.085938 116.648438 116.980469 119.453125 C 113.171875 124.28125 113.957031 132.03125 117.5625 136.769531 C 119.78125 139.652344 122.992188 141.898438 125.914062 144.023438 Z M 125.914062 144.023438 " fill-opacity="1" fill-rule="nonzero"/><path fill="#e5b1a3" d="M 100.988281 173.058594 C 109.277344 178.210938 118.519531 181.929688 127.902344 184.59375 C 135.847656 186.6875 143.980469 188.148438 152.136719 189.171875 C 155.015625 189.5625 157.851562 189.890625 160.65625 190.617188 C 156.210938 191.066406 151.917969 190.578125 147.777344 192.550781 C 150.121094 193.753906 152.296875 195.15625 154.761719 196.136719 C 159.449219 198.011719 164.515625 198.988281 169.566406 198.996094 C 170.738281 199.054688 172.105469 198.949219 173.207031 199.398438 C 175.539062 200.667969 176.8125 203.625 175.695312 206.125 C 174.578125 208.449219 172.203125 209.785156 169.800781 210.449219 C 165.574219 211.59375 160.96875 211.507812 156.761719 210.324219 C 151.871094 209.035156 147.921875 206.238281 144.136719 202.996094 C 144.453125 205.601562 144.933594 208.066406 146.839844 210.019531 C 149.292969 212.496094 152.796875 214.101562 156.070312 215.199219 C 160.03125 216.457031 164.179688 217.390625 168.304688 217.949219 C 170.425781 218.199219 172.648438 218.457031 174.710938 217.738281 C 177.023438 216.949219 179.175781 215.390625 181.140625 213.960938 C 183.101562 212.480469 185.34375 210.765625 186.597656 208.628906 C 187.789062 206.640625 187.789062 204.082031 187.945312 201.835938 C 185.523438 200.917969 183.246094 200.320312 181.5625 198.199219 C 180.046875 196.574219 179.054688 194.03125 177.203125 192.820312 C 174.726562 192.335938 171.824219 192.6875 169.75 194.214844 C 168.566406 195.046875 167.46875 196.011719 166.308594 196.882812 C 167.214844 195.011719 168.199219 193.246094 169.734375 191.800781 C 171.746094 189.847656 174.332031 188.882812 176.921875 187.957031 C 177.035156 186.542969 177.121094 185.128906 177.257812 183.714844 C 177.121094 184.519531 176.96875 185.320312 176.8125 186.121094 C 165.539062 185.164062 154.414062 183.402344 143.488281 180.421875 C 132.644531 177.492188 121.753906 174.09375 111.742188 168.929688 C 106.90625 166.375 101.503906 162.558594 99.214844 157.4375 C 98.074219 154.925781 99.3125 152.980469 100.210938 150.667969 C 95.796875 152.496094 93.386719 156.992188 93.710938 161.664062 C 93.867188 166.546875 96.914062 170.589844 100.988281 173.058594 Z M 100.988281 173.058594 " fill-opacity="1" fill-rule="nonzero"/><path fill="#e5b1a3" d="M 187.492188 195.839844 C 191.453125 197.546875 195.824219 196.675781 199.332031 194.359375 C 204.597656 190.847656 208.722656 185.53125 211.070312 179.683594 C 212.621094 176.101562 213.179688 172.359375 214.429688 168.699219 C 214.769531 171.765625 214.816406 174.820312 214.066406 177.839844 C 212.28125 184.929688 211.277344 192.621094 212.417969 199.894531 C 212.886719 203.070312 213.949219 205.792969 213.636719 208.902344 C 215.074219 210.324219 216.425781 211.648438 218.332031 212.449219 C 221.714844 213.894531 225.617188 213.359375 228.863281 211.816406 C 232.148438 210.261719 234.691406 207.847656 236.980469 205.082031 C 238.023438 201.992188 239.324219 199.15625 239.949219 195.929688 C 237.390625 198.089844 234.949219 199.964844 231.398438 199.875 C 227.082031 199.941406 223.679688 197.097656 221.824219 193.402344 C 219.109375 188.015625 219.515625 181.859375 218.710938 176.042969 C 218.308594 173.160156 217.828125 169.738281 216.167969 167.277344 C 214.652344 165.132812 212.375 164.839844 209.941406 164.636719 C 208.433594 168.097656 207.632812 171.8125 206.003906 175.238281 C 204.839844 177.964844 203.179688 180.367188 201.707031 182.917969 C 200.113281 185.644531 200.441406 189.734375 198.097656 191.910156 C 196.441406 193.519531 194.296875 193.542969 192.1875 192.957031 C 189.195312 192.070312 186.285156 191.039062 183.191406 190.542969 C 184.0625 192.777344 185.210938 194.796875 187.492188 195.839844 Z M 187.492188 195.839844 " fill-opacity="1" fill-rule="nonzero"/><path fill="#e5b1a3" d="M 233.566406 227.8125 C 230.226562 226.429688 228.921875 223.484375 227.570312 220.386719 C 224.199219 224.292969 219.894531 226.945312 214.636719 227.257812 C 207.90625 227.828125 201.257812 224.167969 198.089844 218.253906 C 196.136719 214.257812 196.011719 209.371094 197.640625 205.242188 C 198.246094 203.679688 198.980469 202.160156 199.640625 200.613281 C 197.34375 201.398438 194.980469 201.78125 192.589844 202.117188 C 192.234375 205.371094 191.574219 208.398438 190.148438 211.367188 C 192.632812 215.3125 195.007812 220.367188 194.777344 225.113281 C 193.941406 230.953125 190.125 235.199219 185.726562 238.8125 C 191.160156 241.316406 197.230469 242.503906 203.203125 242.011719 C 208.75 241.292969 214.46875 239.003906 218.390625 234.914062 C 221.699219 231.640625 224.085938 227.796875 226.53125 223.886719 C 226.609375 227.539062 225.699219 230.671875 224.214844 233.960938 C 228.273438 235.007812 231.820312 236.710938 235.269531 239.058594 C 238.785156 235.207031 241.566406 230.953125 244.207031 226.472656 C 240.679688 227.800781 237.359375 229.304688 233.566406 227.8125 Z M 233.566406 227.8125 " fill-opacity="1" fill-rule="nonzero"/><path fill="#e5b1a3" d="M 186.921875 230.515625 C 188.382812 228.707031 190 226.328125 190.125 223.949219 C 190.046875 220.746094 188.691406 217.476562 187.128906 214.707031 C 183.921875 216.964844 181.074219 219.457031 177.566406 221.367188 C 177.75 223.359375 178.328125 225.441406 176.902344 227.121094 C 174.667969 229.851562 170.460938 230.558594 167.125 230.503906 C 163.765625 230.546875 160.917969 229.367188 157.808594 228.300781 C 158.957031 230.976562 160.320312 233.839844 163.132812 235.117188 C 166.128906 236.433594 169.945312 236.375 173.164062 236.378906 C 178.375 236.390625 183.53125 234.59375 186.921875 230.515625 Z M 186.921875 230.515625 " fill-opacity="1" fill-rule="nonzero"/></svg>